<svg width="57" height="58" viewBox="0 0 57 58" fill="none" xmlns="http://www.w3.org/2000/svg">
<g clip-path="url(#clip0_548_1223)">
<path d="M19.0133 43.7284C29.4839 33.3176 39.8648 23.0114 50.3353 12.6006C50.7834 14.2436 51.1867 15.7671 51.6049 17.3056C53.2778 23.579 54.9507 29.8523 56.6535 36.1108C56.8029 36.6485 56.6983 36.9621 56.3099 37.3356C49.7827 43.818 43.2554 50.3304 36.743 56.8427C36.4443 57.1415 36.1904 57.3804 35.6676 57.246C26.5712 54.8711 17.4599 52.5111 8.36354 50.1661C7.79595 50.0167 7.49722 49.8076 7.36279 49.1952C6.92963 47.2833 6.43673 45.3714 5.91395 43.4745C5.74964 42.8621 6.13799 42.6082 6.4666 42.2945C14.8161 33.9002 23.1657 25.4909 31.5302 17.0965C36.2352 12.3616 40.9402 7.64165 45.6602 2.9217C46.0485 2.53334 46.1381 2.27942 45.6602 1.93588C45.3316 1.6969 45.0179 1.4131 44.7042 1.14424C44.749 1.05462 44.7938 0.950068 44.8387 0.860449C45.9738 0.860449 47.0941 0.875385 48.2293 0.860449C49.1553 0.845512 50.0665 0.815639 50.9925 0.785766C51.351 0.770829 51.6199 0.800702 51.5751 1.29361C51.4108 3.22043 51.2913 5.16218 51.1419 7.16368C50.6042 6.89482 50.2756 6.49154 49.947 6.11812C49.5885 5.72977 49.3644 5.74471 49.006 6.11812C45.003 10.1659 40.9701 14.1988 36.9521 18.2466C28.498 26.7157 20.0738 35.1548 11.6795 43.6089C11.2911 43.9973 10.6787 44.2661 10.7534 45.0279C10.8878 46.5216 10.858 46.5365 12.3964 46.9398C19.6407 48.8517 26.8849 50.7486 34.1142 52.6754C34.6669 52.8248 35.0104 52.7501 35.4137 52.3319C40.8506 46.8502 46.2875 41.3834 51.7394 35.9315C52.1128 35.5581 52.1576 35.2295 52.0232 34.7515C50.7834 30.6589 49.5885 26.5514 48.3637 22.4587C48.1098 21.5924 48.1098 21.5775 47.4376 22.2347C39.9843 29.703 32.5309 37.1862 25.1074 44.6844C24.5847 45.2071 24.1515 45.3117 23.4794 45.0876C22.0753 44.6246 20.6115 44.2213 19.0133 43.7284Z" fill="#7558FF"/>
<path d="M26.4975 17.6647C26.139 17.3361 25.7507 17.0224 25.4221 16.6639C25.0785 16.2905 24.8545 16.2756 24.4811 16.6639C20.0748 21.2196 15.6386 25.7752 11.2174 30.316C9.08148 32.5116 6.94555 34.7073 4.80962 36.8881C4.66025 37.0374 4.49595 37.1868 4.2719 37.4108C3.79393 35.6035 3.34583 33.8858 2.89774 32.1532C2.03141 28.8522 1.19497 25.5512 0.313709 22.2652C0.194217 21.8021 0.298773 21.5333 0.612441 21.2196C7.30403 14.5429 13.9807 7.83642 20.6424 1.14483C20.8963 0.89091 21.1204 0.696735 21.5386 0.816227C26.3332 2.14558 31.1279 3.47494 35.9225 4.78936C35.9673 4.80429 36.0121 4.83417 36.1615 4.90885C35.5342 5.6258 34.9217 6.32782 34.3093 7.01491C34.1002 7.25389 33.8613 7.47794 33.6671 7.7468C33.3833 8.13515 33.0696 8.16502 32.6365 8.04553C29.2459 7.16427 25.8403 6.32782 22.4348 5.44657C21.8672 5.2972 21.4938 5.35695 21.0606 5.80504C15.6685 11.2868 10.2615 16.7536 4.83949 22.2054C4.5557 22.5041 4.42127 22.773 4.52582 23.1912C4.94405 24.8044 5.34733 26.4175 5.73569 28.0456C5.87011 28.5833 6.03442 28.658 6.4377 28.2398C11.3369 23.3256 16.251 18.4264 21.1801 13.5273C21.5236 13.1837 21.4938 12.9746 21.1502 12.6908C20.8664 12.4668 20.6125 12.1979 20.2092 11.8245C22.375 11.6303 24.3168 11.4361 26.2585 11.2569C26.5125 11.227 26.6917 11.3166 26.6917 11.6303C26.6917 13.6169 26.6917 15.6034 26.6917 17.5751C26.632 17.6199 26.5722 17.6497 26.4975 17.6647Z" fill="url(#paint0_linear_548_1223)"/>
</g>
<defs>
<linearGradient id="paint0_linear_548_1223" x1="18.1428" y1="0.78009" x2="31.1758" y2="31.9301" gradientUnits="userSpaceOnUse">
<stop offset="0.33125" stop-color="#C7009B"/>
<stop offset="1" stop-color="#6708B2"/>
</linearGradient>
<clipPath id="clip0_548_1223">
<rect width="56.4453" height="56.52" fill="white" transform="translate(0.277344 0.770325)"/>
</clipPath>
</defs>
</svg>
