<svg width="282" height="92" viewBox="0 0 282 92" fill="none" xmlns="http://www.w3.org/2000/svg">
<path d="M183.209 28.823V47.2165H179.849V28.823H183.209Z" fill="#FEFEFE"/>
<path d="M187.081 37.8772C187.081 36.3586 187.024 35.0679 186.967 33.929H189.891L190.061 35.9221H190.137C190.745 34.8781 192.187 33.6252 194.389 33.6252C196.705 33.6252 199.116 35.1248 199.116 39.3198V47.1973H195.756V39.6995C195.756 37.7823 195.054 36.3397 193.212 36.3397C191.884 36.3397 190.954 37.2888 190.593 38.2948C190.479 38.5605 190.422 38.9781 190.422 39.3578V47.1973H187.062V37.8772H187.081Z" fill="#FEFEFE"/>
<path d="M202.684 37.8772C202.684 36.3586 202.627 35.0679 202.57 33.929H205.493L205.664 35.9221H205.74C206.347 34.8781 207.79 33.6252 209.992 33.6252C212.308 33.6252 214.718 35.1248 214.718 39.3198V47.1973H211.358V39.6995C211.358 37.7823 210.656 36.3397 208.815 36.3397C207.486 36.3397 206.556 37.2888 206.195 38.2948C206.082 38.5605 206.025 38.9781 206.025 39.3578V47.1973H202.665V37.8772H202.684Z" fill="#FEFEFE"/>
<path d="M230.929 40.4399C230.929 45.3183 227.493 47.5012 224.114 47.5012C220.375 47.5012 217.452 44.9386 217.452 40.6487C217.452 36.2829 220.318 33.6064 224.323 33.6064C228.272 33.6254 230.929 36.4158 230.929 40.4399ZM220.907 40.5918C220.907 43.1543 222.197 45.0905 224.209 45.0905C226.127 45.0905 227.455 43.2303 227.455 40.5348C227.455 38.4658 226.525 36.0551 224.228 36.0551C221.875 36.0551 220.907 38.3709 220.907 40.5918Z" fill="#FEFEFE"/>
<path d="M235.598 33.929L237.762 40.6675C238.142 41.8444 238.408 42.9074 238.654 43.9894H238.73C238.977 42.9074 239.281 41.8634 239.623 40.6675L241.749 33.929H245.26L240.192 47.2163H236.889L231.954 33.929H235.598Z" fill="#FEFEFE"/>
<path d="M257.466 44.0274C257.466 45.2232 257.523 46.4001 257.694 47.2163H254.657L254.41 45.7358H254.334C253.537 46.7798 252.151 47.5011 250.405 47.5011C247.728 47.5011 246.229 45.5649 246.229 43.5528C246.229 40.231 249.209 38.5037 254.106 38.5416V38.3328C254.106 37.4596 253.746 36.017 251.411 36.017C250.101 36.017 248.734 36.4346 247.842 37.0041L247.197 34.8212C248.184 34.2137 249.892 33.6443 251.999 33.6443C256.251 33.6443 257.485 36.3397 257.485 39.2629V44.0274H257.466ZM254.201 40.7245C251.829 40.7056 249.57 41.1801 249.57 43.2112C249.57 44.5209 250.424 45.1283 251.487 45.1283C252.854 45.1283 253.803 44.2552 254.125 43.3061C254.201 43.0593 254.201 42.8125 254.201 42.5658V40.7245Z" fill="#FEFEFE"/>
<path d="M264.698 30.5125V33.9292H267.887V36.4348H264.698V42.3002C264.698 43.9327 265.134 44.7489 266.425 44.7489C267.033 44.7489 267.355 44.7299 267.735 44.616L267.792 47.1596C267.298 47.3494 266.406 47.5202 265.362 47.5202C264.109 47.5202 263.103 47.1026 262.477 46.4383C261.737 45.679 261.414 44.4452 261.414 42.6988V36.4348H259.535V33.9292H261.414V31.4426L264.698 30.5125Z" fill="#FEFEFE"/>
<path d="M272.651 41.5029C272.727 43.8946 274.588 44.9386 276.752 44.9386C278.308 44.9386 279.39 44.6919 280.434 44.3312L280.928 46.628C279.789 47.1216 278.194 47.4822 276.296 47.4822C271.987 47.4822 269.444 44.8437 269.444 40.7626C269.444 37.0801 271.683 33.6064 275.935 33.6064C280.244 33.6064 281.668 37.1561 281.668 40.0793C281.668 40.7057 281.611 41.1992 281.554 41.5029H272.651ZM278.479 39.1681C278.498 37.9343 277.966 35.9222 275.727 35.9222C273.658 35.9222 272.784 37.8014 272.651 39.1681H278.479Z" fill="#FEFEFE"/>
<path d="M183.171 54.8283V65.5531C183.171 69.1596 184.671 70.8111 186.929 70.8111C189.359 70.8111 190.802 69.1407 190.802 65.5531V54.8283H194.162V65.3253C194.162 71.0009 191.238 73.5065 186.816 73.5065C182.564 73.5065 179.811 71.1338 179.811 65.3443V54.8093H183.171V54.8283Z" fill="#FEFEFE"/>
<path d="M198.015 54.8286H201.337V63.2945H201.413C201.849 62.5922 202.305 61.9278 202.741 61.3014L207.563 54.8286H211.682L205.361 62.6681L212.099 73.2221H208.17L202.988 64.7941L201.318 66.7493V73.2221H197.996V54.8286H198.015Z" fill="#FEFEFE"/>
<path d="M0.50811 10.9233C0.887748 10.9423 1.26739 10.9803 1.64702 10.9803C27.7471 10.9803 53.8283 10.9803 79.9284 10.9613C80.8775 10.9613 81.1242 11.1701 81.1242 12.1382C81.0863 33.7396 81.1053 55.341 81.1053 76.9424C81.1053 77.36 81.1242 77.7586 81.1242 78.1762C81.428 78.5559 81.409 78.9925 81.409 79.429C81.409 83.0736 81.409 86.7371 81.409 90.3816C81.409 90.8182 81.4469 91.2737 81.1053 91.6344C80.7636 91.6534 80.4029 91.6724 80.0613 91.6724C53.8852 91.6724 27.6902 91.6724 1.51415 91.6913C0.622001 91.6913 0.375237 91.5205 0.375237 90.5904C0.4132 64.4143 0.394218 38.2193 0.4132 12.0433C0.4132 11.6636 0.299309 11.284 0.50811 10.9233Z" fill="#E3E3E3"/>
<path d="M120.777 0.748779C120.758 0.824707 120.758 0.881653 120.739 0.95758C120.379 1.29925 119.923 1.26129 119.487 1.26129C107.129 1.26129 94.7531 1.26129 82.3959 1.26129C81.9593 1.26129 81.5037 1.29925 81.1431 0.95758C81.1241 0.881653 81.1241 0.824707 81.1051 0.748779C94.3355 0.748779 107.547 0.748779 120.777 0.748779Z" fill="#CD60CB"/>
<path d="M81.1241 0.95752C94.3355 0.95752 107.528 0.95752 120.739 0.95752C120.758 3.9187 120.796 6.89885 120.739 9.86003C120.72 10.7142 120.986 10.8851 121.802 10.8851C134.748 10.8661 147.694 10.8661 160.658 10.8661C161.019 10.8661 161.418 10.7332 161.759 10.9989C161.247 11.4355 160.62 11.3027 160.032 11.3027C147.732 11.3027 135.431 11.3027 123.112 11.3027C120.929 11.3027 121.081 11.1888 121.081 13.2958C121.081 18.4778 121.081 23.6789 121.081 28.8609C121.081 30.2086 121.119 30.2466 122.467 30.2466C134.995 30.2466 147.523 30.2466 160.051 30.2466C161.437 30.2466 161.474 30.2086 161.474 28.804C161.474 23.3941 161.474 17.9843 161.474 12.5744C161.474 12.0429 161.38 11.4925 161.778 11.0369C162.025 11.3027 161.911 11.6443 161.911 11.948C161.892 38.2 161.873 64.433 161.854 90.685C161.854 91.3114 161.873 91.71 161 91.71C151.794 91.672 142.588 91.691 133.4 91.691C133.248 91.691 133.078 91.672 132.926 91.653C132.546 91.2354 132.622 90.7039 132.622 90.2104C132.603 86.8506 132.622 83.5098 132.622 80.15C132.622 78.5176 132.622 78.5176 131.009 78.5176C114.988 78.5176 98.9481 78.5176 82.9274 78.5176C82.301 78.5176 81.6556 78.6315 81.0862 78.2708C80.6876 77.6634 80.8204 76.98 80.8204 76.3346C80.8204 55.3976 80.8204 34.4606 80.8204 13.5046C80.8204 8.69641 81.1241 13.2708 81.1241 9.5753C81.1241 6.70904 81.1241 3.82379 81.1241 0.95752Z" fill="#B8B8B8"/>
<path d="M81.1051 91.634C81.1051 87.1542 81.1241 82.6555 81.1241 78.1758C97.3346 78.1758 113.564 78.1758 129.775 78.1948C130.496 78.1948 131.236 78.2327 131.958 78.1758C132.679 78.1189 132.945 78.3277 132.945 79.1059C132.907 83.2819 132.926 87.458 132.926 91.615C132.679 91.634 132.413 91.653 132.166 91.653C115.405 91.653 98.6254 91.653 81.8644 91.653C81.5986 91.6719 81.3519 91.653 81.1051 91.634Z" fill="#8B8B8B"/>
<path d="M161.779 11.0177C161.779 17.1868 161.76 23.3559 161.779 29.5251C161.779 30.3792 161.513 30.5691 160.716 30.5691C147.751 30.5501 134.786 30.5501 121.822 30.5691C120.987 30.5691 120.759 30.3413 120.759 29.5061C120.797 23.6786 120.797 17.8702 120.759 12.0427C120.759 11.2075 120.968 10.9797 121.803 10.9797C134.729 10.9987 147.675 10.9987 160.602 10.9987C160.981 10.9987 161.361 10.9987 161.741 10.9797C161.76 10.9987 161.779 11.0177 161.779 11.0177Z" fill="#8B8B8B"/>
<path d="M50.2026 33.2079C52.4804 30.7782 54.5494 28.5763 56.6374 26.3744C58.5736 24.3243 60.5097 22.2933 62.4079 20.2243C62.7116 19.8826 63.0153 19.7497 63.4709 19.7497C66.1663 19.7687 68.8428 19.7877 71.5382 19.7497C72.2026 19.7307 72.2785 19.9965 72.3165 20.5659C72.3734 21.4201 72.0887 22.0275 71.4813 22.635C67.4002 26.735 63.376 30.8921 59.2949 34.9922C58.8393 35.4477 58.9722 35.6376 59.3329 36.0362C63.433 40.2122 67.5141 44.4072 71.6141 48.5832C72.0887 49.0578 72.3355 49.5323 72.3165 50.2346C72.2595 52.4555 72.2785 54.6574 72.3165 56.8783C72.3165 57.4857 72.1456 57.6755 71.5192 57.6755C68.3872 57.6376 65.2552 57.6755 62.1232 57.6376C61.4588 57.6376 61.269 57.8084 61.288 58.4728C61.307 64.1294 61.326 69.805 61.288 75.4616C61.288 76.2019 61.5158 76.3348 62.1991 76.3348C65.2742 76.2968 68.3303 76.3537 71.4053 76.2968C72.1836 76.2778 72.3544 76.5436 72.3355 77.2649C72.2785 78.8214 72.2975 80.3589 72.3355 81.9154C72.3544 82.5608 72.1836 82.7696 71.5003 82.7696C68.4252 82.7317 65.3691 82.7506 62.294 82.7506C52.3285 82.7506 42.363 82.7506 32.3975 82.7696C31.7711 82.7696 31.3725 82.5988 30.9929 82.0863C28.4683 78.6505 25.9057 75.2338 23.3622 71.7981C23.0015 71.3235 22.6408 71.0768 22.0334 71.1337C21.2552 71.1907 20.4579 71.1907 19.6607 71.1337C18.9773 71.0768 18.7496 71.2666 18.7496 72.0069C18.7875 75.2907 18.7496 78.5936 18.7875 81.8775C18.7875 82.5608 18.6546 82.7886 17.9144 82.7696C15.3138 82.7127 12.7323 82.7317 10.1318 82.7696C9.54334 82.7696 9.31555 82.6747 9.33453 82.0103C9.35352 72.0069 9.35352 62.0224 9.33453 52.0189C9.33453 51.4115 9.48639 51.2217 10.1128 51.2217C14.0041 51.2597 17.8764 51.2407 21.7677 51.1837C19.5468 50.6902 17.4018 50.0069 15.4657 48.773C11.4605 46.2295 9.33453 42.6229 9.33453 37.8205C9.35352 32.0879 9.35352 26.3744 9.31555 20.6419C9.31555 19.9395 9.48639 19.7307 10.2077 19.7497C12.7703 19.7877 15.3328 19.8066 17.8954 19.7497C18.6357 19.7307 18.7875 19.9585 18.7875 20.6608C18.7685 26.2036 18.7685 31.7273 18.7685 37.27C18.7685 40.2691 19.9075 42.1483 22.3371 43.1544C25.0705 44.2743 28.4873 43.7238 30.3095 41.8636C31.5054 40.6298 31.923 39.1112 31.923 37.4408C31.923 31.8791 31.942 26.2985 31.904 20.7368C31.904 20.0534 31.9799 19.7497 32.7962 19.7497C38.3009 19.7877 43.8057 19.7877 49.3104 19.7497C49.9938 19.7497 50.2215 19.9016 50.2215 20.6229C50.1836 24.4193 50.2026 28.2156 50.2026 32.012C50.2026 32.3157 50.2026 32.6194 50.2026 33.2079Z" fill="#6A6A6A"/>
<path d="M40.5601 80.4348C38.0925 77.2078 35.6438 73.9809 33.1002 70.6781C33.7266 70.5072 34.2771 70.3744 34.8466 70.2225C41.0157 68.5141 42.8 63.9015 41.699 58.5107C41.5472 57.7704 41.6231 57.6185 42.3824 57.6375C45.2297 57.6755 48.077 57.6755 50.9242 57.6375C51.5506 57.6375 51.7974 57.7514 51.7974 58.4537C51.7594 64.1483 51.7594 69.8429 51.7974 75.5184C51.7974 76.2208 51.5506 76.3347 50.9242 76.3347C47.8492 76.2967 44.7931 76.3537 41.718 76.2967C40.9018 76.2777 40.693 76.5435 40.7499 77.3027C40.8069 78.3278 40.7689 79.3528 40.7689 80.3778C40.693 80.3968 40.6171 80.4158 40.5601 80.4348Z" fill="#FEFEFE"/>
<path d="M23.7231 64.7178C22.2994 64.7178 20.8758 64.6988 19.4522 64.7367C18.9397 64.7557 18.7309 64.6418 18.7309 64.0724C18.7688 62.1742 18.7498 60.276 18.7309 58.3778C18.7309 57.8653 18.8258 57.6565 19.3952 57.6565C22.2994 57.6945 25.2227 57.6945 28.1269 57.6945C28.7723 57.6945 29.3797 57.8273 29.9871 58.0361C31.5057 58.5486 32.2839 59.6116 32.2839 61.1492C32.2839 62.6677 31.5057 63.8066 30.0251 64.3002C29.1139 64.6039 28.1838 64.7178 27.2158 64.7178C26.0579 64.7178 24.9 64.7178 23.7231 64.7178Z" fill="#FEFEFE"/>
<path d="M62.7688 51.2408C58.6308 51.2408 54.7395 51.2408 50.8672 51.2408C50.4116 51.2408 50.1838 51.1838 50.1838 50.6333C50.2028 46.4953 50.2028 42.3572 50.2028 38.2192C50.2028 38.1622 50.2598 38.1243 50.3357 37.9724C54.4548 42.3572 58.5359 46.7231 62.7688 51.2408Z" fill="#FEFEFE"/>
<path d="M40.7119 55.9481C37.504 51.9429 33.1002 51.6202 28.4496 51.2026C33.9923 50.0827 38.3582 47.691 40.7119 42.1672C40.7119 46.8937 40.7119 51.3165 40.7119 55.9481Z" fill="#FEFEFE"/>
</svg>
