<svg width="46" height="53" viewBox="0 0 46 53" fill="none" xmlns="http://www.w3.org/2000/svg">
<path d="M11.5648 7.16069C7.94816 7.90697 1.64491 11.3973 5.36486 19.3883C8.86665 18.8716 15.0092 15.7028 11.5648 7.16069Z" fill="white"/>
<path d="M34.1059 12.4406C33.5134 10.0218 30.9389 5.8485 25.3808 8.50623C25.8095 10.8523 28.1546 14.9236 34.1059 12.4406Z" fill="white"/>
<path d="M18.5257 30.7555C18.9078 28.2946 18.134 23.4526 11.9814 23.7713C11.476 26.102 12.0772 30.7618 18.5257 30.7555Z" fill="white"/>
<path d="M24.5454 43.7069C22.1464 41.9724 16.6328 40.157 13.7709 46.7712C15.9685 48.5641 21.2 50.4614 24.5454 43.7069Z" fill="white"/>
<path d="M19.8974 26.5957C21.4972 24.6951 23.3813 20.2412 18.1187 17.6304C16.4846 19.3633 14.5526 23.5824 19.8974 26.5957Z" fill="white"/>
<path d="M24.0133 28.7244C25.2779 30.8179 28.8837 33.9786 33.1896 29.873C32.0969 27.8 28.7319 24.6681 24.0133 28.7244Z" fill="white"/>
<path d="M34.9953 38.3625C34.8319 40.4354 35.7747 44.4146 40.8522 43.7485C41.1258 41.7759 40.3374 37.9371 34.9953 38.3625Z" fill="white"/>
<path d="M27.668 45.5784C25.589 45.5481 21.6783 46.7436 22.6681 51.7681C24.6541 51.9149 28.4346 50.8824 27.668 45.5784Z" fill="white"/>
<path d="M21.462 3.40075C20.8886 4.82746 20.737 7.9116 24.7172 8.83451C25.3521 7.5093 25.5899 4.56726 21.462 3.40075Z" fill="white"/>
<path d="M20.3161 1.5022C18.888 1.69047 16.2936 3.00685 17.3407 6.76619C18.7135 6.67684 21.2306 5.49894 20.3161 1.5022Z" fill="white"/>
<path d="M14.349 2.91431C13.2833 3.80602 11.8587 6.25486 14.6858 8.91646C15.7583 8.1372 17.1925 5.8458 14.349 2.91431Z" fill="white"/>
<path d="M28.7897 1.23389C28.4323 2.35796 28.5252 4.75913 31.7554 5.37122C32.1688 4.32441 32.1543 2.03141 28.7897 1.23389Z" fill="white"/>
<path d="M24.6981 1.06327C23.8735 0.852205 22.2162 0.936429 22.1833 2.96183C22.961 3.2087 24.5526 3.17462 24.6981 1.06327Z" fill="white"/>
<path d="M27.7922 0.94942C26.9731 1.03495 25.5021 1.6531 26.1712 3.44145C26.9602 3.40276 28.3891 2.85017 27.7922 0.94942Z" fill="white"/>
<path d="M18.1723 8.20914C17.2984 8.44475 15.8079 9.38818 16.8369 11.277C17.6861 11.0989 19.142 10.2361 18.1723 8.20914Z" fill="white"/>
<path d="M31.0682 5.97154C30.9442 6.71588 31.2179 8.22523 33.3049 8.30785C33.471 7.60707 33.2562 6.15873 31.0682 5.97154Z" fill="white"/>
<path d="M29.4093 44.6886C29.9413 45.2238 31.3266 45.8825 32.6118 44.2363C32.1398 43.6923 30.8385 43.0213 29.4093 44.6886Z" fill="white"/>
<path d="M29.6339 24.6286C28.782 24.3231 27.0197 24.2466 26.786 26.3847C27.5848 26.7234 29.2727 26.8464 29.6339 24.6286Z" fill="white"/>
<path d="M24.9142 20.9992C24.6191 20.1436 23.5755 18.7214 21.7619 19.8777C21.9978 20.7126 22.9586 22.1059 24.9142 20.9992Z" fill="white"/>
<path d="M30.9087 40.4813C30.0407 40.738 28.5734 41.7171 29.6477 43.5805C30.4923 43.382 31.927 42.4843 30.9087 40.4813Z" fill="white"/>
<path d="M39.0053 45.7667C38.6983 44.7782 37.5924 43.1187 35.625 44.3898C35.8686 45.353 36.8857 46.9768 39.0053 45.7667Z" fill="white"/>
<path d="M45.5535 34.443C45.5429 33.4187 44.8478 31.4803 42.152 31.9212C42.0986 32.8986 42.7042 34.7713 45.5535 34.443Z" fill="white"/>
<path d="M12.8432 19.92C11.9693 20.1556 10.4788 21.0991 11.5077 22.9879C12.3569 22.8098 13.8129 21.947 12.8432 19.92Z" fill="white"/>
<path d="M9.66066 45.8113C9.05573 45.9481 7.98074 46.6638 8.52025 48.4323C9.10403 48.3447 10.1494 47.698 9.66066 45.8113Z" fill="white"/>
<path d="M13.88 47.8278C13.3767 48.2848 12.7264 49.5016 14.1525 50.7129C14.6612 50.3099 15.319 49.1687 13.88 47.8278Z" fill="white"/>
<path d="M15.6922 49.1558C15.4323 49.7755 15.2868 51.0593 16.7841 51.2374C17.0647 50.6566 17.2392 49.4272 15.6922 49.1558Z" fill="white"/>
<path d="M13.3769 46.7144C12.5637 46.425 10.7775 46.4575 10.1383 48.9026C10.891 49.2333 12.5924 49.2587 13.3769 46.7144Z" fill="white"/>
<path d="M12.8512 38.8848C12.1431 39.1103 10.9415 40.0361 11.8 41.9353C12.4886 41.7671 13.663 40.9215 12.8512 38.8848Z" fill="white"/>
<path d="M5.43624 39.8329C4.98392 40.3732 4.50254 41.7515 6.19555 42.9426C6.66238 42.4605 7.16407 41.1637 5.43624 39.8329Z" fill="white"/>
<path d="M12.5948 35.5347C12.1788 36.5412 11.9947 38.6642 14.5866 39.1039C15.0403 38.164 15.2771 36.1343 12.5948 35.5347Z" fill="white"/>
<path d="M32.4801 36.4414C31.4021 36.2863 29.2992 36.6312 29.512 39.2515C30.5347 39.4595 32.5601 39.1887 32.4801 36.4414Z" fill="white"/>
<path d="M42.1811 34.7263C41.5087 35.8226 40.8815 38.2395 43.7528 39.1367C44.4552 38.1229 45.1241 35.8213 42.1811 34.7263Z" fill="white"/>
<path d="M33.7027 21.6343C32.5054 21.1646 30.016 20.9713 29.6365 23.9554C30.7579 24.469 33.1411 24.7238 33.7027 21.6343Z" fill="white"/>
<path d="M29.2716 48.3692C28.5344 48.5849 27.2799 49.4601 28.1601 51.2346C28.8768 51.0727 30.1025 50.2728 29.2716 48.3692Z" fill="white"/>
<path d="M34.8743 22.1211C34.2749 22.7992 33.5509 24.4078 35.4504 25.417C36.0609 24.8005 36.8004 23.2782 34.8743 22.1211Z" fill="white"/>
<path d="M39.1884 7.50206C38.5855 7.90591 37.6979 9.01336 38.9709 10.2124C39.57 9.85936 40.4523 8.823 39.1884 7.50206Z" fill="white"/>
<path d="M41.4127 6.8383C40.7232 7.06446 39.5697 7.89129 40.4718 9.3894C41.144 9.21112 42.2732 8.45131 41.4127 6.8383Z" fill="white"/>
<path d="M37.8821 5.28864C37.8729 6.01424 38.2817 7.37332 39.9912 7.00481C40.0401 6.31113 39.6868 4.99674 37.8821 5.28864Z" fill="white"/>
<path d="M35.174 8.2337C35.3761 8.93064 36.1625 10.1121 37.691 9.26246C37.5361 8.58452 36.8159 7.42965 35.174 8.2337Z" fill="white"/>
<path d="M31.5361 14.8103C32.2106 15.0779 33.6261 15.181 33.8919 13.4526C33.2614 13.1593 31.9075 13.0202 31.5361 14.8103Z" fill="white"/>
<path d="M20.2592 10.7518C20.1455 11.3272 20.2943 12.4839 21.7988 12.5075C21.9415 11.9649 21.8334 10.8541 20.2592 10.7518Z" fill="white"/>
<path d="M19.3651 11.716C18.9202 12.098 18.3222 13.0992 19.4904 14.0477C19.938 13.7093 20.5395 12.7693 19.3651 11.716Z" fill="white"/>
<path d="M12.9502 9.72195C12.9312 10.3081 13.2652 11.4254 14.7538 11.2051C14.8067 10.6466 14.5202 9.56792 12.9502 9.72195Z" fill="white"/>
<path d="M6.64153 24.9422C7.12185 25.2788 8.23992 25.6102 8.86965 24.2436C8.431 23.8937 7.37127 23.5437 6.64153 24.9422Z" fill="white"/>
<path d="M8.03937 22.9645C8.4711 23.3615 9.5357 23.8375 10.3402 22.5658C9.9515 22.1612 8.94719 21.6744 8.03937 22.9645Z" fill="white"/>
<path d="M5.25551 22.9555C5.60013 23.43 6.54943 24.1074 7.58971 23.0201C7.28883 22.5465 6.40075 21.8706 5.25551 22.9555Z" fill="white"/>
<path d="M4.35752 19.7024C4.20421 20.2685 4.27243 21.4327 5.77173 21.5606C5.95171 21.0291 5.92085 19.9135 4.35752 19.7024Z" fill="white"/>
<path d="M15.1938 20.6089C14.6231 20.7437 13.6319 21.3582 14.2336 22.7374C14.7866 22.6425 15.7529 22.084 15.1938 20.6089Z" fill="white"/>
<path d="M24.1952 22.9226C24.1033 22.3434 23.5644 21.3092 22.1442 21.8064C22.1976 22.365 22.6825 23.3702 24.1952 22.9226Z" fill="white"/>
<path d="M25.1189 32.3335C25.3466 31.793 25.4347 30.6302 23.966 30.3029C23.7165 30.8055 23.5979 31.9152 25.1189 32.3335Z" fill="white"/>
<path d="M37.7875 16.0067C38.3243 15.7706 39.1876 14.9865 38.3457 13.7393C37.8191 13.9329 36.9702 14.6574 37.7875 16.0067Z" fill="white"/>
<path d="M29.0215 33.2785C29.3635 33.7549 30.3091 34.4374 31.3553 33.3558C31.057 32.8806 30.1726 32.1998 29.0215 33.2785Z" fill="white"/>
<path d="M30.2934 35.8303C30.8266 36.0493 31.9717 36.1244 32.2869 34.6725C31.791 34.4315 30.698 34.3258 30.2934 35.8303Z" fill="white"/>
<path d="M33.5946 38.88C34.1596 38.7659 35.1535 38.1921 34.6088 36.8097C34.0626 36.885 33.095 37.4044 33.5946 38.88Z" fill="white"/>
<path d="M38.4901 37.8373C38.4713 37.2611 38.0703 36.1859 36.6168 36.4937C36.6004 37.0448 36.952 38.0851 38.4901 37.8373Z" fill="white"/>
<path d="M22.0424 40.8675C21.649 40.4462 20.6393 39.9008 19.7478 41.0893C20.0982 41.515 21.0478 42.0665 22.0424 40.8675Z" fill="white"/>
<path d="M11.7323 38.0878C11.7565 37.5119 11.4368 36.4098 9.96433 36.6084C9.90687 37.1567 10.18 38.2203 11.7323 38.0878Z" fill="white"/>
<path d="M10.7423 36.3542C11.2475 36.0767 12.0248 35.2324 11.0923 34.0756C10.5935 34.3104 9.82508 35.0949 10.7423 36.3542Z" fill="white"/>
<path d="M12.2135 42.7565C12.7542 42.9563 13.9013 42.9903 14.1642 41.528C13.66 41.305 12.5639 41.2385 12.2135 42.7565Z" fill="white"/>
<path d="M40.6815 46.2143C40.9328 45.6956 41.078 44.5572 39.6481 44.1535C39.3772 44.6338 39.2046 45.7182 40.6815 46.2143Z" fill="white"/>
<path d="M29.1361 47.655C29.6672 47.4308 30.5271 46.6709 29.7184 45.4244C29.1981 45.6067 28.3532 46.3081 29.1361 47.655Z" fill="white"/>
<path d="M28.0684 40.3494C28.3476 40.73 29.1261 41.2694 30.0062 40.3818C29.7633 40.0015 29.0357 39.4627 28.0684 40.3494Z" fill="white"/>
<path d="M41.5053 41.8837C42.0744 41.9755 43.2065 41.7876 43.1825 40.302C42.6447 40.1804 41.5564 40.3266 41.5053 41.8837Z" fill="white"/>
<path d="M40.3589 39.2523C40.5992 39.58 41.375 40.0358 42.5551 39.237C42.3559 38.9088 41.6379 38.4524 40.3589 39.2523Z" fill="white"/>
<path d="M39.3856 38.6494C39.771 38.7544 40.5964 38.6745 40.8139 37.5151C40.4551 37.3887 39.6671 37.4387 39.3856 38.6494Z" fill="white"/>
<path d="M38.1549 32.2853C38.202 31.8885 38.0014 31.084 36.8226 31.0395C36.7505 31.413 36.9159 32.185 38.1549 32.2853Z" fill="white"/>
<path d="M26.4439 45.3741C26.491 44.9773 26.2905 44.1728 25.1117 44.1283C25.0395 44.5018 25.205 45.2738 26.4439 45.3741Z" fill="white"/>
<path d="M45.1439 30.0725C44.7877 29.8917 43.9632 29.8029 43.5156 30.8943C43.8414 31.0907 44.6232 31.2012 45.1439 30.0725Z" fill="white"/>
<path d="M43.7659 27.317C43.4097 27.1362 42.5852 27.0474 42.1376 28.1388C42.4634 28.3351 43.2452 28.4457 43.7659 27.317Z" fill="white"/>
<path d="M21.4867 49.1407C21.886 49.1265 22.6504 48.8053 22.514 47.6335C22.1339 47.6194 21.3963 47.901 21.4867 49.1407Z" fill="white"/>
<path d="M23.3692 42.4333C23.6492 42.1483 23.9828 41.3892 23.0776 40.6328C22.792 40.8841 22.4505 41.5959 23.3692 42.4333Z" fill="white"/>
<path d="M26.1253 26.5891C26.4052 26.3041 26.7389 25.5449 25.8337 24.7885C25.5481 25.0398 25.2065 25.7517 26.1253 26.5891Z" fill="white"/>
<path d="M12.5257 6.20503C12.3466 5.84792 11.7362 5.2867 10.7277 5.8986C10.8731 6.25012 11.4363 6.80352 12.5257 6.20503Z" fill="white"/>
<path d="M18.856 15.526C18.4793 15.393 17.6503 15.412 17.3481 16.5522C17.6966 16.7046 18.4862 16.7128 18.856 15.526Z" fill="white"/>
<path d="M16.0474 10.7106C16.135 10.3209 16.0182 9.49993 14.8502 9.33455C14.74 9.69865 14.8252 10.4836 16.0474 10.7106Z" fill="white"/>
<path d="M14.3549 43.5907C14.7529 43.6253 15.5508 43.3996 15.5582 42.22C15.1826 42.1596 14.4162 42.3492 14.3549 43.5907Z" fill="white"/>
<path d="M9.93051 43.0096C10.2968 43.1692 11.125 43.2095 11.5079 42.0938C11.1711 41.9168 10.3842 41.8523 9.93051 43.0096Z" fill="white"/>
<path d="M3.21044 39.5563C3.57669 39.7159 4.4049 39.7562 4.78781 38.6404C4.45105 38.4635 3.66411 38.399 3.21044 39.5563Z" fill="white"/>
<path d="M4.39083 44.9155C4.78615 44.9732 5.59583 44.7944 5.67197 43.6172C5.30055 43.535 4.52434 43.6797 4.39083 44.9155Z" fill="white"/>
<path d="M35.5439 9.78763C35.2003 9.58378 34.3835 9.44098 33.8651 10.5006C34.1772 10.7179 34.9501 10.8796 35.5439 9.78763Z" fill="white"/>
<path d="M34.5475 7.85199C34.1557 7.77395 33.3379 7.9108 33.2011 9.08248C33.5678 9.1837 34.3504 9.07931 34.5475 7.85199Z" fill="white"/>
<path d="M40.7473 12.3297C40.3554 12.2517 39.5376 12.3885 39.4009 13.5602C39.7675 13.6614 40.5502 13.557 40.7473 12.3297Z" fill="white"/>
<path d="M41.5053 43.9503C42.0744 44.0421 43.2065 43.8542 43.1825 42.3686C42.6447 42.2471 41.5564 42.3932 41.5053 43.9503Z" fill="white"/>
<path d="M22.9939 31.326C22.6294 30.5073 21.4541 29.1941 19.669 30.4908C19.9712 31.2942 21.0592 32.5859 22.9939 31.326Z" fill="white"/>
<path d="M35.7385 14.117C35.0662 14.7645 34.2002 16.3889 36.1141 17.7067C36.7938 17.1265 37.6702 15.5961 35.7385 14.117Z" fill="white"/>
<path d="M31.038 25.1401C31.3345 26.1214 32.5166 27.7851 34.8726 26.5896C34.6481 25.6351 33.5668 24.0088 31.038 25.1401Z" fill="white"/>
<path d="M10.2046 23.7869C9.33722 24.3333 8.04699 25.9146 9.82512 27.8687C10.6858 27.3988 11.9666 25.9246 10.2046 23.7869Z" fill="white"/>
<path d="M37.3853 23.5687C37.1273 24.4363 37.1482 26.2001 39.296 26.3154C39.5901 25.4991 39.6197 23.807 37.3853 23.5687Z" fill="white"/>
<path d="M40.908 24.8546C40.2523 25.4823 39.407 27.0647 41.2715 28.3719C41.9344 27.81 42.7897 26.3199 40.908 24.8546Z" fill="white"/>
<path d="M43.3365 29.7516C42.5774 28.9576 40.7283 27.9097 39.4044 30.0695C40.0898 30.8698 41.8359 31.9267 43.3365 29.7516Z" fill="white"/>
<path d="M32.4965 50.2536C33.0354 49.2965 33.5005 47.2226 31.049 46.5838C30.4826 47.4724 29.979 49.4503 32.4965 50.2536Z" fill="white"/>
<path d="M21.9003 50.5744C21.1123 49.481 19.1147 47.8756 17.4285 50.2014C18.1328 51.2884 20.0132 52.8847 21.9003 50.5744Z" fill="white"/>
<path d="M14.0738 43.9389C13.0398 43.3007 10.7661 42.6959 9.94426 45.3824C10.9012 46.0481 13.0668 46.6914 14.0738 43.9389Z" fill="white"/>
<path d="M18.911 41.2017C18.3367 39.9329 16.6083 37.9001 14.2893 39.9194C14.777 41.1647 16.3841 43.1646 18.911 41.2017Z" fill="white"/>
<path d="M39.7088 37.0978C40.793 36.2174 42.3065 33.9659 39.6867 32.0036C38.6015 32.7887 37.0867 34.9066 39.7088 37.0978Z" fill="white"/>
<path d="M26.0482 12.7043C25.9898 11.3058 25.0441 8.72518 21.7284 9.59014C21.7056 10.9307 22.5375 13.4303 26.0482 12.7043Z" fill="white"/>
<path d="M18.4345 14.9918C18.1572 13.5201 16.7642 10.935 13.4113 12.3676C13.5943 13.7906 14.8552 16.3077 18.4345 14.9918Z" fill="white"/>
<path d="M21.0693 29.119C22.4109 28.8587 24.767 27.5588 23.4583 24.4418C22.1609 24.6143 19.8668 25.7911 21.0693 29.119Z" fill="white"/>
<path d="M36.8 47.7852C36.6199 46.4305 35.4622 44.0014 32.273 45.1227C32.3681 46.428 33.4066 48.788 36.8 47.7852Z" fill="white"/>
<path d="M4.32042 43.9456C4.78011 42.5382 4.84336 39.6709 1.41883 39.4604C0.904326 40.7841 0.764344 43.5343 4.32042 43.9456Z" fill="white"/>
<path d="M28.4231 44.5637C28.7647 43.009 28.501 39.9168 24.7134 39.9853C24.3018 41.4546 24.4676 44.4273 28.4231 44.5637Z" fill="white"/>
<path d="M34.1546 30.1239C35.6519 30.6643 38.7521 30.804 39.1756 27.0395C37.7721 26.4408 34.803 26.2195 34.1546 30.1239Z" fill="white"/>
<path d="M37.7306 34.6809C37.2516 32.9827 35.3603 30.0958 31.6267 32.1341C31.9911 33.7853 33.722 36.6063 37.7306 34.6809Z" fill="white"/>
<path d="M34.556 43.8435C35.0518 42.4102 35.2108 39.5121 31.8804 39.3853C31.334 40.7354 31.1042 43.5172 34.556 43.8435Z" fill="white"/>
<path d="M29.7279 20.5455C28.2274 19.9432 25.0082 19.7633 24.1357 23.8627C25.5317 24.5278 28.6047 24.7954 29.7279 20.5455Z" fill="white"/>
<path d="M6.13122 46.705C7.55594 46.5913 10.1433 45.5531 9.09511 42.3104C7.72543 42.3415 5.21511 43.2641 6.13122 46.705Z" fill="white"/>
<path d="M40.0146 10.9142C38.7077 10.1352 35.8383 9.43053 34.8164 12.8433C36.0263 13.659 38.7597 14.415 40.0146 10.9142Z" fill="white"/>
<path d="M36.453 7.34026C36.8868 5.75034 36.8012 2.56022 32.9886 2.51907C32.4894 4.01909 32.4835 7.08336 36.453 7.34026Z" fill="white"/>
<path d="M10.9405 39.6651C10.3385 38.1309 8.36408 35.6238 5.28204 37.8686C5.77789 39.3697 7.60376 41.8306 10.9405 39.6651Z" fill="white"/>
<path d="M45.241 10.1803C44.4772 9.4131 42.4701 8.47514 40.5515 10.861C41.2274 11.6414 43.1117 12.5978 45.241 10.1803Z" fill="white"/>
<path d="M14.9368 15.4389C14.1682 16.2321 13.2098 18.1873 15.5251 19.6621C16.3052 18.9479 17.2796 17.1034 14.9368 15.4389Z" fill="white"/>
<path d="M13.2442 16.1915C12.1399 16.2146 10.0834 16.9301 10.6915 19.607C11.7483 19.6481 13.7384 19.0225 13.2442 16.1915Z" fill="white"/>
<path d="M29.8793 5.76649C29.4355 4.81828 27.9456 3.30911 25.5361 4.85815C25.8984 5.78975 27.2743 7.27566 29.8793 5.76649Z" fill="white"/>
<path d="M10.1308 18.9265C9.14931 18.5794 7.09352 18.5303 6.72225 21.1106C7.64011 21.4989 9.60683 21.6057 10.1308 18.9265Z" fill="white"/>
<path d="M20.7069 10.2689C21.2746 9.51268 21.8394 7.67122 19.5572 6.35495C18.9676 7.03791 18.3721 8.77683 20.7069 10.2689Z" fill="white"/>
</svg>
