<svg width="238" height="100" viewBox="0 0 238 100" fill="none" xmlns="http://www.w3.org/2000/svg">
<path d="M134.431 98.4669C174.059 98.4669 206.184 76.6186 206.184 49.6673C206.184 22.716 174.059 0.867676 134.431 0.867676C94.8026 0.867676 62.6775 22.716 62.6775 49.6673C62.6775 76.6186 94.8026 98.4669 134.431 98.4669Z" fill="#6A6A6A"/>
<path d="M99.2772 26.1349C98.7349 26.7675 84.3662 47.1007 79.4862 57.7643C77.6788 61.6502 77.5884 65.9879 76.4136 70.0546C76.2329 70.5968 76.0522 71.139 75.8714 71.6812C70.3589 72.4042 68.8226 68.2472 67.7382 64.4516C66.473 60.1139 66.0211 55.5954 65.2078 51.0769C65.4789 42.1303 65.75 33.1838 66.0211 24.2372C66.0211 24.0564 66.0211 23.7853 65.9308 23.7853C65.75 23.6949 65.4789 23.6949 65.2078 23.6046C58.4301 40.7748 50.2968 57.0413 36.7414 69.9642C29.8733 76.4708 22.1015 80.6278 12.2512 79.5434C7.91346 79.0012 4.2083 77.6456 0.864624 74.6634C2.1298 73.6693 2.85276 74.2116 3.57571 74.6634C14.4201 81.0797 24.0896 78.2782 32.8555 70.5968C46.5917 58.4872 54.8153 42.7629 61.9545 26.3157C62.4967 25.0505 63.1293 23.7853 63.7619 22.5201C63.9426 22.249 64.033 21.8875 64.2137 21.6164C64.9367 19.0861 65.8404 16.5557 66.3826 13.935C67.1056 10.5913 69.5456 10.501 72.1663 10.6817C74.6966 10.7721 76.1425 12.1276 76.0522 14.7483C75.9618 19.1765 75.7811 23.6046 75.6003 28.0327C73.7929 40.323 71.3529 52.6132 74.064 65.0842C75.3292 64.9035 75.6003 63.9094 75.9618 62.825C80.9321 47.0103 106.868 14.1158 108.495 12.7602C110.302 11.2239 112.652 11.0432 114.459 12.3084C116.628 13.8446 114.279 15.4713 113.646 16.8268C107.41 30.7438 102.802 45.0222 103.073 60.4754C103.163 68.1568 104.609 75.6575 107.591 82.7967C111.477 92.1048 118.255 97.6173 128.467 98.7017C128.195 101.322 110.573 97.5269 102.53 86.05C92.4091 71.6812 90.692 55.0532 96.0239 38.0637C96.8372 35.3526 97.7409 32.6415 98.6446 29.9304C98.9157 28.846 99.0061 27.4001 99.2772 26.1349Z" fill="#B8B8B8"/>
<path d="M157.891 46.7679C160.873 43.2435 163.042 39.9902 164.488 36.3754C168.645 25.8022 164.85 17.1267 154.276 13.1504C148.041 10.8008 141.534 10.8008 135.299 12.066C125.9 13.9637 120.93 19.9281 122.286 27.3384C122.918 30.9532 122.105 33.574 120.569 36.6465C114.785 48.2138 120.659 57.6123 133.672 57.6123C140.36 57.6123 146.234 55.2627 151.656 51.5575C154.276 49.7501 156.807 48.9368 159.97 48.7561C171.899 47.9427 182.653 43.9665 191.78 36.1043C181.116 41.3457 170.814 46.9487 157.891 46.7679ZM138.371 55.353C135.48 55.8953 133.13 54.359 131.865 51.7383C130.419 48.7561 130.419 45.4124 131.413 42.3398C131.865 40.9843 133.22 42.2494 134.034 42.7917C139.094 45.9546 144.607 47.5812 151.385 48.4849C147.499 52.8227 143.071 54.4493 138.371 55.353ZM151.836 46.6776C146.595 45.7739 141.354 44.7798 136.745 41.9783C133.672 40.0806 130.78 38.6347 133.672 34.2065C135.389 31.5858 133.13 30.5014 130.871 29.7784C128.973 29.2362 125.9 31.134 125.358 27.3384C124.906 23.9044 125.81 21.0126 128.521 18.7533C132.678 15.2289 137.558 14.1445 142.8 13.783C146.143 14.0541 149.487 14.4156 152.65 15.8615C158.253 18.4822 162.681 22.1874 163.133 28.8747C163.585 36.0139 159.608 41.3457 154.819 46.045C153.915 46.9487 152.921 46.8583 151.836 46.6776Z" fill="#B8B8B8"/>
<path d="M118.49 67.5529C120.478 67.3721 122.918 67.1914 125.539 67.1914C130.328 67.1914 133.762 67.9144 136.021 69.1795C138.281 70.4447 139.636 72.3425 139.636 74.8728C139.636 77.4935 138.371 79.572 135.931 81.1083C133.491 82.6446 129.515 83.3676 124.545 83.3676C122.195 83.3676 120.207 83.2772 118.49 83.1868V67.5529ZM121.833 81.7409C122.647 81.8313 123.912 81.8313 125.177 81.8313C132.316 81.8313 136.202 79.3913 136.202 75.0536C136.202 71.258 132.768 68.9084 125.719 68.9084C124.002 68.9084 122.737 68.9988 121.833 69.0892V81.7409Z" fill="#B8B8B8"/>
<path d="M148.493 67.3716V83.367H145.149V67.3716H148.493Z" fill="#B8B8B8"/>
<path d="M155.455 67.5529C157.172 67.3721 159.521 67.1914 161.871 67.1914C165.395 67.1914 167.745 67.5529 169.372 68.4566C170.637 69.1795 171.36 70.264 171.36 71.5291C171.36 73.6076 169.191 75.0536 166.48 75.5958V75.6861C168.468 76.138 169.643 77.2224 170.275 78.9395C171.089 81.1987 171.721 82.735 172.264 83.2772H168.83C168.378 82.8253 167.835 81.4698 167.113 79.4817C166.39 77.3128 164.944 76.4091 161.961 76.4091H158.799V83.3676H155.455V67.5529ZM158.799 74.8728H162.233C165.757 74.8728 168.016 73.698 168.016 71.8003C168.016 69.7218 165.576 68.8181 162.052 68.8181C160.425 68.8181 159.25 68.9084 158.799 68.9988V74.8728Z" fill="#B8B8B8"/>
<path d="M190.604 75.8663H180.573V81.65H191.779V83.367H177.23V67.3716H191.147V69.0886H180.573V74.1493H190.604V75.8663Z" fill="#B8B8B8"/>
<path d="M215.276 82.8251C214.011 83.1866 211.571 83.5481 208.498 83.5481C201.178 83.5481 195.756 80.7466 195.756 75.5052C195.756 70.5349 201.268 67.1008 209.221 67.1008C212.474 67.1008 214.462 67.5527 215.366 67.8238L214.553 69.5408C213.288 69.1793 211.48 68.9082 209.311 68.9082C203.257 68.9082 199.19 71.2578 199.19 75.5052C199.19 79.3911 202.805 81.9215 209.131 81.9215C211.119 81.9215 213.197 81.6503 214.553 81.2889L215.276 82.8251Z" fill="#B8B8B8"/>
<path d="M226.572 69.0886H218.71V67.3716H237.869V69.0886H230.006V83.2766H226.663V69.0886H226.572Z" fill="#B8B8B8"/>
</svg>
