<svg width="36" height="36" viewBox="0 0 36 36" fill="none" xmlns="http://www.w3.org/2000/svg">
<rect width="36" height="36" rx="18" fill="#111013"/>
<path d="M12.2188 14.4688C12.25 14.2812 12.1562 14.0938 12.0312 13.9688L10.625 12.2812V12H15L18.375 19.4375L21.375 12H25.5312V12.2812L24.3438 13.4375C24.25 13.5 24.1875 13.625 24.2188 13.75V22.25C24.1875 22.375 24.25 22.5312 24.3438 22.5938L25.5312 23.75V24H19.5938V23.75L20.8125 22.5625C20.9375 22.4375 20.9375 22.4062 20.9375 22.2188V15.375L17.5312 24H17.0625L13.125 15.375V21.1562C13.0938 21.375 13.1562 21.625 13.3438 21.8125L14.9375 23.7188V23.9688H10.4375V23.7188L12.0312 21.8125C12.1875 21.625 12.25 21.375 12.2188 21.1562V14.4688Z" fill="white"/>
</svg>
