<svg width="276" height="74" viewBox="0 0 276 74" fill="none" xmlns="http://www.w3.org/2000/svg">
<path d="M2.12341 48.4852L3.34385 50.926C3.54725 51.282 4.00492 51.4346 4.36088 51.2311C7.20856 49.5022 18.1925 42.9424 19.6163 42.9932C26.1253 43.3492 10.2596 38.3657 10.2596 38.3657L2.12341 48.4852Z" fill="#C7C7C7"/>
<path d="M35.6872 41.6709L36.2974 47.0103C36.2974 47.0103 36.7042 49.0952 37.4161 48.8918C38.128 48.6884 40.0095 48.7393 40.4672 47.6205C40.9249 46.5018 40.9757 41.6709 40.9757 41.6709H35.6872Z" fill="#C7C7C7"/>
<path d="M65.1789 46.1966C65.1789 46.1966 71.6371 49.6545 72.8575 51.4343C73.0101 51.6886 73.3152 51.7903 73.6203 51.6886C75.2984 50.9767 75.9086 44.01 75.9086 44.01L65.1789 46.1966Z" fill="#C7C7C7"/>
<path d="M5.53009 54.8924C11.8865 47.8241 19.4634 45.1798 27.803 44.9255C28.3116 44.9255 28.7692 45.1798 29.0235 45.6375C29.532 46.5528 32.9899 51.8413 33.2441 53.0109C34.3629 63.2321 32.0237 70.097 25.0062 72.487C24.3451 72.7413 23.5824 72.7413 22.8704 72.5379C19.5651 71.5209 14.3782 68.3172 10.361 63.8931C8.22522 61.554 6.80138 58.808 5.37754 56.1129C5.17413 55.7061 5.22498 55.2484 5.53009 54.8924Z" fill="#C7C7C7"/>
<path d="M71.9938 54.8924C65.6374 47.8241 58.0605 45.1798 49.7209 44.9255C49.2124 44.9255 48.1954 44.9255 47.9411 45.3324C47.4326 46.2477 46.9749 46.9596 46.7207 47.7224C46.4664 48.4343 45.5002 51.8413 45.246 52.9601C44.1272 63.1812 44.1272 70.453 52.4669 72.4362C53.1788 72.5887 53.8907 72.6904 54.6026 72.487C57.908 71.47 63.0948 68.2664 67.1121 63.8423C69.2479 61.5031 70.6717 58.7571 72.0956 56.062C72.3498 55.706 72.299 55.2484 71.9938 54.8924Z" fill="#C7C7C7"/>
<path d="M74.9961 48.9938C74.7927 49.6549 72.7078 49.2481 72.1485 49.0447C66.9616 46.9598 61.8256 44.8749 56.6388 42.7899C55.876 42.4848 55.0624 42.3831 54.2996 42.078C54.0453 41.9763 53.8419 41.6712 53.6894 41.417C53.6385 41.3661 53.9436 41.0101 54.147 40.9084C58.266 38.9761 62.5375 37.3488 67.165 37.1963C69.7076 37.1454 72.301 37.6031 74.8436 37.9082C75.9115 38.0608 76.3691 38.8744 76.42 39.8914C76.42 40.5016 76.42 41.061 76.42 41.6712C76.5217 41.7221 75.7589 46.6038 74.9961 48.9938Z" fill="#9F9F9F"/>
<path d="M7.67067 36.9922C12.9592 37.1447 17.8918 38.416 22.4685 40.9586C22.621 41.0603 22.7736 41.2129 22.8753 41.4163C23.0278 41.6197 22.977 41.8739 22.7736 42.0265C22.5702 42.179 22.4176 42.3316 22.2142 42.3824C19.3157 43.3995 16.4171 44.3657 13.5694 45.4335C10.976 46.3489 8.43345 47.3659 5.84002 48.3321C5.07725 48.6372 4.36533 48.9931 3.60256 49.1965C2.94149 49.3999 2.48383 49.0948 2.17872 48.4846C0.500618 45.3827 0.348063 42.1282 1.05998 38.772C1.11084 38.416 1.61935 37.9584 2.02616 37.9075C3.85681 37.5516 5.78917 37.2973 7.67067 36.9922Z" fill="#9F9F9F"/>
<path d="M23.1781 30.7889C23.229 31.1448 23.1273 31.7042 22.873 31.8567C22.6188 32.0093 22.0594 31.9076 21.7543 31.7042C19.9236 30.4837 18.0421 29.2633 16.3132 27.8903C15.7538 27.4327 15.347 26.619 15.1945 25.958C14.5334 21.9407 13.7198 17.9234 11.584 14.4655C9.9059 11.7196 12.4485 10.4991 14.2791 9.38039C14.6351 9.17698 15.2962 9.38039 15.6521 9.63464C17.7879 11.2619 19.9236 12.94 21.9577 14.6689C22.3137 14.974 22.5171 15.5334 22.5171 16.0419C22.6188 17.5675 22.9239 27.4327 23.1781 30.7889Z" fill="#9F9F9F"/>
<path d="M62.1836 9.12573C62.4379 9.22744 62.7939 9.27829 63.0481 9.48169C63.7092 9.99021 64.3702 10.4479 64.8788 11.0581C66.15 12.4311 66.0483 12.6345 65.3873 14.3126C64.2177 17.1603 63.1498 20.0079 62.1328 22.9065C61.8785 23.6693 61.8785 24.5846 61.8277 25.4491C61.7768 26.4152 61.4209 27.2289 60.6072 27.8391C58.7766 29.1104 56.9459 30.4325 55.0644 31.6529C54.7593 31.8563 54.2508 31.7546 53.844 31.8055C53.844 31.3987 53.7423 30.9919 53.7931 30.5851C53.9965 28.4493 54.4034 26.3644 54.4542 24.2286C54.5559 21.4826 54.4542 18.7875 54.5559 16.0415C54.5559 15.4822 54.8102 14.7702 55.1661 14.4651C57.251 12.7362 59.3868 11.1089 61.4717 9.43084C61.6751 9.27829 61.9294 9.22744 62.1836 9.12573Z" fill="#9F9F9F"/>
<path d="M35.2807 22.1944C35.5858 21.3808 36.0435 19.9061 36.6029 18.4822C36.9588 17.5161 37.4673 16.6007 37.9759 15.7363C40.4167 11.5664 40.9761 6.78641 41.8914 2.15893C41.9931 1.70126 42.5016 0.93849 42.8576 0.93849C43.7221 0.887638 44.6883 1.04019 45.5019 1.39615C45.7053 1.447 45.6544 2.56574 45.451 3.07425C44.3323 6.32875 43.061 9.53239 42.0948 12.7869C41.6372 14.2616 41.7389 15.9397 41.6372 17.5161C41.3321 21.635 41.4338 25.8049 42.1457 29.873C42.1457 29.9238 42.1965 30.0255 42.1965 30.0764C41.9931 30.8392 41.7897 31.6019 41.5863 32.3138C40.9761 31.9579 40.315 31.7036 39.8065 31.246C38.8912 30.3815 38.1284 29.3645 37.3148 28.3983C36.0435 26.8727 35.3824 24.9912 35.2807 22.1944Z" fill="#9F9F9F"/>
<path d="M74.4361 34.297C71.1307 34.3987 67.7745 34.297 64.4692 34.7038C61.7232 35.0089 59.0789 35.9243 56.3838 36.5853C56.1296 36.6362 55.8753 36.7887 55.621 36.7887C55.3668 36.7887 54.96 36.687 54.8583 36.4836C54.7566 36.3311 54.9091 35.8734 55.1125 35.7717C57.2483 34.0936 59.2824 32.3646 61.5707 30.89C64.9777 28.7033 68.8424 27.3812 72.8088 26.5676C73.8767 26.3133 74.3852 26.6184 74.7412 27.6863C75.1989 29.3136 75.6565 30.9408 76.0633 32.6189C76.4193 34.0427 75.9108 34.653 74.4361 34.297Z" fill="#9F9F9F"/>
<path d="M3.95691 26.4153C4.61798 26.5678 5.38075 26.7712 6.14352 26.9746C10.0591 28.0934 13.8729 29.5172 17.1274 32.1106C18.3987 33.1277 19.6192 34.1956 20.7887 35.3143C20.9922 35.5177 20.9922 35.9754 21.043 36.2805C20.687 36.2805 20.3819 36.2805 20.026 36.1788C17.7885 35.7211 15.551 35.06 13.3136 34.7549C9.34717 34.1956 5.3299 34.043 1.36348 34.5007C0.702413 34.5515 0.193898 34.5007 0.448156 33.6362C1.05837 31.653 1.66859 29.6698 2.27881 27.6866C2.48222 26.9238 2.93988 26.4153 3.95691 26.4153Z" fill="#9F9F9F"/>
<path d="M51.5549 23.9744C51.1989 29.1104 50.2836 33.8904 47.8427 38.3145C47.1816 39.4841 46.724 40.7554 46.1138 41.8741C45.9104 42.2809 45.4527 42.5352 45.0967 42.8911C44.8933 42.4843 44.5882 42.0775 44.5882 41.6707C44.2323 37.0941 44.995 32.67 46.4697 28.2968C47.2833 25.8559 48.5038 23.6184 49.9276 21.5335C50.1819 21.1776 50.7412 21.025 51.1481 20.7708C51.3006 21.1776 51.5549 21.5844 51.6057 21.9912C51.6057 22.6523 51.5549 23.415 51.5549 23.9744Z" fill="#9F9F9F"/>
<path d="M32.2796 38.4165C32.2796 39.3318 32.3304 40.2472 32.2796 41.2133C32.2796 41.3659 32.2287 41.4676 32.1779 41.5693C32.0253 41.8236 31.7202 41.9253 31.466 41.8236C31.3134 41.7219 31.1609 41.671 31.0591 41.5185C30.8049 41.1625 30.6523 40.654 30.4489 40.1963C29.3302 37.7046 28.2623 35.2129 27.0419 32.772C25.9231 30.4328 25.9231 27.8903 25.7197 25.3985C25.618 24.1273 25.6689 22.9068 25.7706 21.6355C25.7706 21.3304 26.1266 20.9745 26.3808 20.8728C26.5842 20.8219 27.0419 21.0762 27.1436 21.3304C28.2115 23.3645 29.381 25.3477 30.1947 27.4834C31.5168 30.9922 32.4321 34.6027 32.2796 38.4165Z" fill="#9F9F9F"/>
<path d="M50.7903 13.0922C50.5869 13.8549 50.5361 14.6686 50.1293 15.2279C48.6037 17.618 47.0273 20.008 45.4001 22.3471C45.2475 22.6014 44.5864 22.8048 44.383 22.6522C44.0779 22.4488 43.8237 21.9403 43.8745 21.5844C44.0271 19.8554 44.3322 18.1265 44.4847 16.3975C44.7899 13.2447 45.6543 10.2445 46.8748 7.34596C47.0273 6.93914 47.4341 6.63404 47.6884 6.27808C47.9935 6.63404 48.3495 6.93915 48.502 7.29511C49.0105 8.26128 49.4682 9.27831 49.875 10.2953C50.3327 11.2107 50.5361 12.126 50.7903 13.0922Z" fill="#9F9F9F"/>
<path d="M26.1283 12.4313C26.6877 11.2109 27.1962 9.93957 27.7556 8.71914C28.0098 8.15977 28.3149 7.60041 28.6709 7.09189C29.0777 6.48167 29.7896 6.53253 29.993 7.24445C30.7558 9.88872 31.8745 12.4313 32.1288 15.2281C32.3322 17.3639 32.6373 19.4997 32.7899 21.6354C32.8407 21.9914 32.5865 22.4999 32.2814 22.7033C32.0779 22.8559 31.366 22.6524 31.2643 22.449C29.6371 19.5505 27.4505 17.0079 26.4843 13.7534C26.3826 13.3466 26.3317 12.9398 26.23 12.533C26.2809 12.4821 26.23 12.4821 26.1283 12.4313Z" fill="#9F9F9F"/>
<path d="M38.688 3.3797C38.4337 5.92228 37.5184 8.82081 36.2471 11.5668C36.0945 11.9228 35.586 12.0753 35.2809 12.3296C35.0775 11.9736 34.8232 11.6685 34.6707 11.3125C33.9588 9.53273 33.2977 7.75293 32.5858 5.97313C32.0773 4.70184 31.467 3.48141 31.0094 2.21012C30.9077 2.00671 31.2636 1.3965 31.5179 1.34565C33.0943 0.989686 34.6707 0.481171 36.2471 0.430319C38.2811 0.277765 38.7388 0.887983 38.688 3.3797Z" fill="#9F9F9F"/>
<path d="M34.8247 32.2122C34.7739 31.8563 34.9773 31.4495 35.079 31.0935C35.3841 31.2461 35.7909 31.2969 35.9943 31.5512C37.5199 33.1276 39.0454 34.7548 40.571 36.3821C41.1812 36.9923 41.3337 37.7042 41.1303 38.6195C40.9269 39.6366 40.9778 40.6536 40.9778 41.7215C40.9778 43.3996 41.1303 43.1962 38.9946 43.1962C38.6386 43.1962 38.1809 43.1962 37.825 43.247C35.6892 43.4504 35.8926 43.1962 35.6892 41.7723C35.3841 39.5857 34.9264 33.2801 34.8247 32.2122Z" fill="#9F9F9F"/>
<path d="M64.7249 24.127C65.4877 21.9912 66.2504 19.9063 67.0132 17.8214C67.2166 17.3129 67.5217 16.8044 67.776 16.3467C68.1828 15.5331 68.5896 15.4822 69.1998 16.1941C70.8271 18.0756 71.9966 20.1606 72.8611 22.4997C73.0645 23.0591 72.8611 23.4151 72.3018 23.5676C70.2677 24.1778 68.2845 24.788 66.2504 25.3983C65.3351 25.6017 64.8774 25.1949 64.7249 24.127Z" fill="#9F9F9F"/>
<path d="M11.9417 24.3304C11.9417 25.2457 11.5857 25.5508 10.7212 25.2966C8.83973 24.7372 6.90737 24.127 5.02586 23.5168C3.85628 23.11 3.70373 22.8049 4.31394 21.737C5.38182 19.8555 6.55141 18.0248 7.72099 16.1942C8.1278 15.584 8.58547 15.4314 9.14483 16.0925C10.0093 17.3129 11.9417 22.8557 11.9417 24.3304Z" fill="#9F9F9F"/>
<path d="M26.4327 2.4646C26.5344 2.82056 26.7886 3.22737 26.7378 3.48163C26.2801 4.75292 25.6699 5.97335 25.1614 7.24464C24.8054 8.10911 24.5003 8.97359 24.2461 9.83806C23.8393 11.2111 23.1273 11.4653 22.0086 10.6008C20.7373 9.58381 19.466 8.56678 18.2456 7.54975C17.7371 7.14294 17.4828 6.68527 18.2456 6.27846C20.7373 5.05803 23.2799 3.83759 25.8225 2.66801C25.8733 2.61715 25.975 2.5663 26.4327 2.4646Z" fill="#9F9F9F"/>
<path d="M53.6909 11.2104C53.4875 11.0578 53.1824 10.8544 53.0807 10.6002C52.0637 8.1593 51.0975 5.71843 50.1822 3.32841C50.0805 3.12501 50.1313 2.76905 50.2839 2.61649C50.4364 2.46394 50.7924 2.46394 50.9958 2.51479C53.4875 3.63352 55.9284 4.8031 58.3693 5.97269C58.9795 6.2778 59.2846 6.88802 58.6744 7.44738C57.2505 8.66782 55.7758 9.8374 54.3012 11.007C54.1486 11.1087 53.9452 11.1087 53.6909 11.2104Z" fill="#9F9F9F"/>
<path d="M106.622 16.4489C106.622 24.4326 101.741 29.2126 94.5198 29.2126C87.2481 29.2126 82.9257 23.7715 82.9257 16.8557C82.9257 9.58396 87.7057 4.1937 94.9266 4.1937C102.504 4.14285 106.622 9.73651 106.622 16.4489ZM88.8245 16.754C88.8245 21.5341 91.1128 24.8903 94.8249 24.8903C98.5879 24.8903 100.775 21.3815 100.775 16.6523C100.775 12.2791 98.6897 8.51608 94.8249 8.51608C91.0111 8.51608 88.8245 12.0248 88.8245 16.754Z" fill="#9F9F9F"/>
<path d="M124.983 24.5852C124.983 26.2124 125.033 27.8397 125.288 28.8059H120.253L119.948 27.0261H119.847C118.677 28.4499 116.846 29.1618 114.711 29.1618C111.1 29.1618 108.914 26.5684 108.914 23.7716C108.914 19.1949 113.083 17.0592 119.44 17.0592V16.8558C119.44 15.8896 118.931 14.5675 116.185 14.5675C114.355 14.5675 112.422 15.1777 111.253 15.8896L110.236 12.3808C111.456 11.7198 113.948 10.8044 117.202 10.8044C123.152 10.8044 125.033 14.2623 125.033 18.4322V24.5852H124.983ZM119.643 20.5171C116.694 20.5171 114.456 21.1781 114.456 23.2631C114.456 24.6869 115.422 25.348 116.643 25.348C118.016 25.348 119.186 24.4326 119.541 23.3139C119.592 23.0088 119.643 22.7037 119.643 22.3986V20.5171Z" fill="#9F9F9F"/>
<path d="M134.998 18.6357H135.049C135.456 17.8729 135.914 17.161 136.32 16.4999L139.931 11.2114H146.643L140.236 18.3306L147.559 28.806H140.694L136.32 21.5851L134.947 23.314V28.806H129.405V3.27856H134.947V18.6357H134.998Z" fill="#9F9F9F"/>
<path d="M149.238 24.0767C150.255 24.6869 152.391 25.348 154.018 25.348C155.696 25.348 156.408 24.7886 156.408 23.9241C156.408 23.0088 155.849 22.5511 153.815 21.8901C150.103 20.6696 148.628 18.6864 148.679 16.6015C148.679 13.2962 151.526 10.8044 155.95 10.8044C158.035 10.8044 159.866 11.313 160.985 11.8215L160.019 15.6353C159.205 15.2285 157.629 14.6183 156.154 14.6183C154.781 14.6183 154.018 15.1777 154.018 16.0421C154.018 16.9066 154.73 17.3134 156.917 18.0762C160.324 19.2458 161.697 20.9747 161.748 23.5173C161.748 26.8227 159.154 29.2127 154.018 29.2127C151.679 29.2127 149.594 28.6533 148.221 27.9414L149.238 24.0767Z" fill="#9F9F9F"/>
<path d="M89.6404 42.2817V66.487H84.0976V42.2817H89.6404Z" fill="#9F9F9F"/>
<path d="M94.4198 54.5366C94.4198 52.35 94.369 50.5193 94.2673 48.9429H99.0982L99.3524 51.3838H99.4541C100.166 50.2142 101.997 48.5361 104.997 48.5361C108.658 48.5361 111.404 50.9262 111.404 56.113V66.4867H105.861V56.7741C105.861 54.5366 105.048 52.9602 103.065 52.9602C101.539 52.9602 100.624 53.9772 100.217 54.9943C100.064 55.3502 100.013 55.8587 100.013 56.3673V66.4867H94.4198V54.5366Z" fill="#9F9F9F"/>
<path d="M121.879 44.1628V48.892H125.845V52.9093H121.879V59.2657C121.879 61.4015 122.438 62.3677 124.065 62.3677C124.828 62.3677 125.184 62.3168 125.693 62.2151L125.744 66.3341C125.032 66.5883 123.71 66.7917 122.133 66.7917C120.353 66.7917 118.828 66.1815 117.912 65.2662C116.895 64.2492 116.387 62.5202 116.387 60.0794V52.9093H113.997V48.892H116.387V45.6375L121.879 44.1628Z" fill="#9F9F9F"/>
<path d="M133.166 59.4691C133.319 61.7066 137.743 63.8424 140.743 60.3336L144.659 64.1983C142.981 67.6562 129.2 69.8937 127.827 58.0961C127.319 53.6721 131.336 48.9429 136.319 48.8412C142.116 48.7395 145.574 52.9093 145.574 57.2317C145.574 58.147 145.473 59.0115 145.371 59.3674L133.166 59.4691ZM139.726 55.7061C139.726 54.384 139.116 52.1465 136.573 52.1465C134.234 52.1465 133.268 54.2823 133.116 55.7061H139.726Z" fill="#9F9F9F"/>
<path d="M262.808 59.4691C262.961 61.7066 267.385 63.8424 270.385 60.3336L274.301 64.1983C272.623 67.6562 258.842 69.8937 257.469 58.0961C256.96 53.6721 260.978 48.9429 265.961 48.8412C271.758 48.7395 275.216 52.9093 275.216 57.2317C275.216 58.147 275.114 59.0115 275.013 59.3674L262.808 59.4691ZM269.368 55.7061C269.368 54.384 268.758 52.1465 266.215 52.1465C263.876 52.1465 262.91 54.2823 262.757 55.7061H269.368Z" fill="#9F9F9F"/>
<path d="M148.221 40.9595H153.764V66.4869H148.221V40.9595Z" fill="#9F9F9F"/>
<path d="M158.29 40.9595H163.832V66.4869H158.29V40.9595Z" fill="#9F9F9F"/>
<path d="M174.102 44.0104C174.102 45.5359 172.983 46.7564 171.102 46.7564C169.322 46.7564 168.203 45.5359 168.203 44.0104C168.203 42.4848 169.373 41.2644 171.153 41.2644C172.983 41.3153 174.051 42.4848 174.102 44.0104ZM168.356 66.4867V48.943H173.899V66.4867H168.356Z" fill="#9F9F9F"/>
<path d="M196.247 63.9441C196.247 67.3003 195.535 70.0972 193.501 71.8261C191.569 73.4534 188.315 73.8093 185.518 73.4534C183.179 73.1482 178.144 70.3514 176.517 69.4869L178.449 65.1137C179.568 65.7748 183.433 68.2157 185.569 68.2157C188.213 68.2157 190.705 68.4191 190.705 65.1646V64.0458H190.654C189.586 65.4697 187.857 66.3342 185.823 66.3342C181.399 66.3342 178.246 62.8254 178.246 57.7911C178.246 52.0957 181.958 48.5361 186.382 48.5361C188.823 48.5361 190.349 49.5532 191.264 51.0279H191.315L191.518 48.8921H196.349C196.298 50.0617 196.197 51.5364 196.197 54.1298V63.9441H196.247ZM190.705 56.0622C190.705 55.757 190.654 55.4011 190.603 55.0451C190.196 53.6213 189.128 52.6551 187.603 52.6551C185.569 52.6551 183.941 54.4349 183.941 57.6385C183.941 60.2828 185.263 62.3169 187.552 62.3169C189.026 62.3169 190.145 61.4016 190.501 60.1303C190.654 59.7235 190.705 59.1132 190.705 58.6556V56.0622Z" fill="#9F9F9F"/>
<path d="M204.992 59.4694C205.144 61.7068 207.433 62.8256 210.026 62.8256C211.908 62.8256 213.484 62.5713 214.959 62.0628L215.671 65.775C213.84 66.5377 211.602 66.8937 209.212 66.8937C203.11 66.8937 199.652 63.4358 199.652 57.9438C199.652 53.4689 202.449 48.5872 208.704 48.5872C214.501 48.5872 216.688 53.0112 216.688 57.3336C216.688 58.2489 216.586 59.1134 216.484 59.4694H204.992ZM211.552 55.7064C211.552 54.3842 210.941 52.1468 208.399 52.1468C206.06 52.1468 205.093 54.2825 204.941 55.7064H211.552Z" fill="#9F9F9F"/>
<path d="M220.043 54.5366C220.043 52.35 219.992 50.5193 219.891 48.9429H224.721L224.976 51.3838H225.077C225.789 50.2142 227.62 48.5361 230.62 48.5361C234.282 48.5361 237.028 50.9262 237.028 56.113V66.4867H231.485V56.7741C231.485 54.5366 230.671 52.9602 228.688 52.9602C227.162 52.9602 226.247 53.9772 225.84 54.9943C225.688 55.3502 225.637 55.8587 225.637 56.3673V66.4867H220.094V54.5366H220.043Z" fill="#9F9F9F"/>
<path d="M256.2 63.3337C254.979 64.3507 253.2 67.1984 249.589 67.1984C243.792 67.1984 239.775 63.4354 239.775 57.9434C239.775 52.8074 242.317 49.2478 248.979 49.2478C250.454 49.2478 253.861 49.9597 255.691 52.4006L251.572 56.1636C251.42 54.6889 246.589 51.7395 244.86 57.384C243.945 60.4351 246.996 62.1641 248.979 62.1641C250.301 62.1641 251.267 61.2488 252.437 60.0283L256.2 63.3337Z" fill="#9F9F9F"/>
<path d="M173.035 12.7876C176.406 12.7876 179.138 10.0556 179.138 6.68543C179.138 3.31529 176.406 0.583252 173.035 0.583252C169.665 0.583252 166.933 3.31529 166.933 6.68543C166.933 10.0556 169.665 12.7876 173.035 12.7876Z" fill="#9F9F9F"/>
</svg>
