<svg width="639" height="481" viewBox="0 0 639 481" fill="none" xmlns="http://www.w3.org/2000/svg">
<path d="M109.906 455.33C109.906 455.33 30.3967 398.704 7.51325 302.337C-15.3702 205.956 19.5664 89.1076 85.8148 30.0794C152.078 -28.9489 271.342 10.806 324.344 60.1976L377.346 109.589C377.346 109.589 427.946 137.291 494.209 134.889C560.472 132.473 619.5 222.827 635.163 293.909C650.826 364.99 613.473 458.955 613.473 458.955L109.906 455.345V455.33Z" fill="#29848A"/>
<g style="mix-blend-mode:multiply">
<path d="M73.7762 469.785C73.7762 469.785 18.3581 439.666 3.90308 369.793C-10.5519 299.92 52.0864 236.074 58.113 201.137C64.1395 166.2 50.8782 122.835 106.296 89.0925C161.714 55.3642 260.498 67.4028 297.851 58.9743C335.204 50.5459 378.569 -7.28867 453.26 5.97266C527.951 19.2194 600.241 58.9743 603.851 145.719C607.461 232.463 579.759 234.865 607.461 281.855C635.163 328.845 646.008 361.365 632.761 409.548C619.514 457.731 591.798 470.993 591.798 470.993L73.7762 469.785Z" fill="#1B727B"/>
</g>
<g style="mix-blend-mode:multiply">
<path d="M189.474 454.122C186.024 450.512 135.468 349.313 191.774 256.556C248.08 163.8 389.413 174.63 445.719 210.775C502.025 246.92 529.596 293.895 535.346 343.286C541.096 392.678 503.175 469.786 503.175 469.786L189.474 454.122Z" fill="#39EAF5" fill-opacity="0.44"/>
</g>
<path d="M585.917 236.772H520.965C516.945 236.772 513.686 240.031 513.686 244.051V276.484C513.686 280.503 516.945 283.762 520.965 283.762H585.917C589.937 283.762 593.196 280.503 593.196 276.484V244.051C593.196 240.031 589.937 236.772 585.917 236.772Z" fill="#007972"/>
<path d="M553.441 302.133L563.732 277.735H543.149L553.441 302.133Z" fill="#007972"/>
<path d="M553.193 252.201H571.797V254.923L580.91 249.668L571.797 244.413V247.135H553.193V252.201Z" fill="#6EFFFF"/>
<path d="M580.91 262.887H562.321V260.18L553.193 265.435L562.321 270.69V267.968H580.91V262.887Z" fill="#6FFFF7"/>
<path d="M541.781 267.677L540.893 267.997C540.893 267.997 538.128 264.853 536.701 261.418C535.274 257.982 535.216 253.804 535.216 253.804L535.857 253.528L531.926 244.124C531.228 244.677 530.558 245.376 530.019 246.293C527.792 250.049 528.011 255.828 530.252 261.461C532.494 267.095 534.881 272.131 539.248 275.29C541.825 277.154 544.038 277.488 545.741 277.212L541.767 267.692L541.781 267.677Z" fill="#6EFFFF"/>
<path d="M544.605 266.571L543.382 267.022L547.4 276.659C547.851 276.513 548.259 276.324 548.623 276.135C549.656 275.567 550.122 274.315 549.686 273.209L547.589 267.91C547.124 266.731 545.799 266.149 544.62 266.571H544.605Z" fill="#6EFFFF"/>
<path d="M535.012 242.464C534.517 242.639 533.979 242.887 533.44 243.207L537.458 252.814L538.812 252.247C539.991 251.752 540.544 250.427 540.093 249.233L537.982 243.818C537.531 242.639 536.206 242.028 535.027 242.464H535.012Z" fill="#6EFFFF"/>
<path d="M170.696 437.86V329.44C170.696 329.44 169.488 300.225 184.845 291.796C200.203 283.368 264.952 287.88 264.952 287.88V437.86H170.681H170.696Z" fill="#1C83FF"/>
<path d="M285.201 186.374C285.201 186.374 281.285 219.2 279.786 221.907L278.287 224.615L270.761 229.739C270.761 229.739 285.216 250.22 302.99 253.525C320.764 256.844 319.25 246.29 319.25 246.29L316.542 240.569L320.152 209.243C320.152 209.243 287.923 194.482 285.216 186.359L285.201 186.374Z" fill="#FF9D8C"/>
<path d="M261.401 232.463L273.148 227.339C273.148 227.339 280.674 239.683 298.142 246.918C315.611 254.153 315.916 249.931 316.819 246.918C317.721 243.905 316.513 240.6 316.513 240.6L317.809 230.061L324.796 232.39L349.048 428.544L286.701 431.558L261.401 232.477V232.463Z" fill="url(#paint0_linear_0_17664)"/>
<path d="M318.93 230.251C318.93 230.251 323.151 239.989 327.067 262.873C330.983 285.756 334.593 324.318 335.495 350.811C336.398 377.305 336.995 437.847 336.995 437.847H415.602C416.505 437.847 421.92 408.034 421.92 408.034C421.92 408.034 387.58 378.615 385.775 373.796C384.567 370.579 385.178 311.056 380.054 283.646C374.93 256.235 368.307 250.718 354.449 243.891C340.125 236.831 318.915 230.236 318.915 230.236L318.93 230.251Z" fill="#00575C"/>
<path d="M359.892 403.361C359.484 403.361 359.164 403.041 359.164 402.633C359.164 400.479 358.786 369.88 358.407 340.301C358.043 310.706 357.65 280.108 357.65 277.953C357.65 277.546 357.97 277.226 358.378 277.226C358.786 277.226 359.106 277.546 359.106 277.953C359.106 280.108 359.484 310.706 359.863 340.286C360.227 369.88 360.62 400.479 360.62 402.633C360.62 403.041 360.3 403.361 359.892 403.361Z" fill="#8593B6"/>
<path d="M203.275 395.995L202.678 437.86H294.241C294.241 437.86 298.157 402.327 296.657 399.008C295.158 395.689 203.289 395.995 203.289 395.995H203.275Z" fill="#223A7A"/>
<g style="mix-blend-mode:multiply">
<path d="M305.173 221.02C308.9 224.034 314.009 226.436 317.983 227.906L320.138 209.273C320.138 209.273 295.929 198.181 287.719 189.941C289.437 199.316 293.659 211.733 305.173 221.02Z" fill="#8E9BBB"/>
</g>
<path d="M348.451 125.236C348.451 125.236 354.769 136.081 355.977 149.328C357.185 162.575 355.977 196.609 345.132 211.064C334.287 225.519 311.695 221.297 301.461 212.563C292.058 204.542 282.785 195.691 280.383 178.223C277.967 160.755 285.507 127.623 306.891 120.694C328.275 113.765 348.451 125.207 348.451 125.207V125.236Z" fill="#FF9D8C"/>
<path d="M375.613 418.939C375.613 418.939 374.551 418.939 372.935 418.895C372.556 418.881 372.134 418.895 371.697 418.881C370.14 418.837 368.247 418.793 366.34 418.735C365.918 418.721 365.482 418.706 365.059 418.692C363.167 418.648 361.551 418.881 360.037 418.793H359.994C359.673 418.779 359.208 418.823 358.829 418.837C358.64 418.852 358.465 418.866 358.349 418.852C357.475 418.692 357.301 418.488 356.354 418.066C355.132 417.512 338.581 413.815 325.115 413.902C311.665 413.961 299.597 414.878 297.632 413.233C295.652 411.559 294.459 394.658 305.944 393.552L320.064 398.909C320.064 398.909 352.308 395.08 364.128 403.8C375.977 412.519 375.613 418.939 375.613 418.939Z" fill="#FF9D8C"/>
<path d="M359.994 418.793C359.674 418.778 359.208 418.822 358.83 418.836C358.538 418.371 357.927 417.526 357.592 417.177C353.953 413.465 345.161 411.063 341.973 410.292C341.682 410.219 341.492 409.928 341.565 409.637C341.623 409.345 341.929 409.171 342.235 409.229C346.878 410.35 356.733 413.218 359.528 417.919C359.616 418.05 359.849 418.502 359.994 418.793Z" fill="#223A7A"/>
<path d="M366.341 418.72C365.919 418.72 365.482 418.706 365.06 418.677C361.086 411.427 354.579 409.346 346.558 406.769L346.078 406.609C345.801 406.522 345.641 406.201 345.728 405.91C345.816 405.634 346.121 405.474 346.427 405.561L346.893 405.721C355.394 408.443 362.221 410.641 366.355 418.72H366.341Z" fill="#223A7A"/>
<path d="M372.934 418.881C372.556 418.881 372.134 418.881 371.697 418.867C369.281 413.801 361.304 405.314 350.764 403.349C350.459 403.291 350.269 403.014 350.313 402.709C350.371 402.417 350.662 402.228 350.954 402.272C361.828 404.31 370.591 413.19 372.949 418.881H372.934Z" fill="#223A7A"/>
<path d="M287.603 163.347C287.603 163.347 294.226 160.188 298.899 151.294C303.572 142.414 302.96 134.422 302.96 134.422C302.96 134.422 311.389 133.069 324.039 136.839C336.689 140.609 351.741 145.719 364.391 138.498C377.041 131.264 377.041 119.676 370.868 114.858C363.954 109.457 350.241 112.747 350.241 112.747C350.241 112.747 355.511 107.623 352.658 104.61C349.79 101.597 339.411 105.512 339.411 105.512C339.411 105.512 326.761 95.4245 302.815 96.6327C278.869 97.8409 267.427 114.552 266.073 133.229C264.72 151.905 271.488 170.582 271.488 170.582L287.603 163.347Z" fill="#223A7A"/>
<g style="mix-blend-mode:multiply">
<path d="M336.179 167.874C334.825 171.222 334.854 175.109 334.52 178.646C334.258 181.412 333.748 184.629 336.281 186.493C337.489 187.38 343.21 189.782 340.27 191.733C339.149 192.475 337.271 192.272 335.99 192.213C335.116 192.17 334.229 192.141 333.341 192.068C332.394 191.995 331.477 191.718 330.531 191.704C329.978 191.704 329.803 192.432 330.254 192.723C331.768 193.669 334.01 193.975 335.772 194.033C337.547 194.106 338.741 194.033 340.342 193.232C341.318 192.752 342.278 192.053 342.424 190.889C342.599 189.579 341.609 188.399 340.619 187.657C339.484 186.813 338.086 186.42 336.936 185.59C335.335 184.455 335.466 182.518 335.582 180.743C335.859 176.463 336.834 172.256 337.213 167.991C337.271 167.336 336.368 167.336 336.165 167.845L336.179 167.874Z" fill="#8E9BBB"/>
</g>
<path d="M348.495 177.874C348.043 180.407 346.195 182.212 344.375 181.892C342.541 181.572 341.435 179.243 341.871 176.71C342.323 174.177 344.171 172.372 345.991 172.692C347.825 173.012 348.931 175.341 348.495 177.874Z" fill="#223A7A"/>
<path d="M325.451 175.867C325.043 178.604 323.107 180.583 321.142 180.292C319.177 180.001 317.896 177.541 318.303 174.804C318.711 172.068 320.647 170.088 322.612 170.379C324.577 170.67 325.858 173.13 325.451 175.867Z" fill="#223A7A"/>
<path d="M343.123 167.422C344.535 167.655 345.947 167.422 347.373 167.524C347.708 167.553 348.058 167.596 348.392 167.625C348.64 167.655 347.941 167.553 348.276 167.611C348.349 167.611 348.421 167.64 348.494 167.64C348.669 167.669 348.844 167.713 349.018 167.756C349.324 167.829 349.615 167.946 349.921 168.004C350.197 168.062 350.503 168.135 350.78 168.12C350.94 168.106 351.085 168.077 351.245 168.062C351.144 168.077 351.056 168.091 350.954 168.12C350.954 168.149 351.478 168.077 351.537 168.062C352.337 167.873 352.847 166.941 352.614 166.155C352.556 165.922 352.454 165.733 352.308 165.544C352.25 165.471 352.192 165.384 352.119 165.311C352.177 165.369 352.235 165.442 352.294 165.5C352.235 165.413 352.177 165.34 352.104 165.253C352.032 165.122 351.915 165.005 351.784 164.932C351.668 164.845 351.566 164.758 351.449 164.67C351.071 164.408 350.59 164.263 350.139 164.146C349.295 163.928 348.421 163.826 347.548 163.812C346.689 163.812 345.83 163.899 344.986 164.015C344.229 164.117 343.399 164.379 342.788 164.831C342.322 165.18 342.031 165.631 342.104 166.243C342.177 166.752 342.57 167.334 343.123 167.422Z" fill="#223A7A"/>
<path d="M327.067 163.389C326.878 163.273 326.674 163.171 326.485 163.084C326.31 163.011 325.844 162.763 326.193 162.953C326.062 162.88 325.931 162.807 325.8 162.749C325.218 162.458 324.607 162.254 323.981 162.094C322.612 161.745 321.157 161.657 319.745 161.803C318.245 161.963 316.862 162.327 315.567 163.113C315.378 163.229 315.188 163.331 315.043 163.491C314.941 163.622 314.839 163.753 314.737 163.884C314.766 163.841 314.795 163.797 314.824 163.753C314.417 164.03 314.184 164.496 314.199 164.976C314.199 165.442 314.446 165.835 314.854 166.053C315.349 166.33 315.814 166.199 316.309 166.053H315.552C315.974 166.126 316.266 166.141 316.688 166.053C316.702 166.053 317.095 165.951 316.833 166.01C316.586 166.068 317.241 165.966 317.314 165.951C317.401 165.951 317.852 165.893 317.372 165.951C317.459 165.951 317.547 165.937 317.634 165.922C317.867 165.893 318.085 165.864 318.318 165.85C319.308 165.777 320.298 165.733 321.302 165.689C322.219 165.66 323.166 165.646 324.097 165.689C324.49 165.704 324.883 165.719 325.276 165.733C325.495 165.733 325.407 165.777 325.247 165.733C325.335 165.762 325.407 165.777 325.495 165.791C325.655 165.835 325.815 165.893 325.975 165.951C326.616 166.199 327.387 165.733 327.62 165.136C327.882 164.496 327.664 163.753 327.052 163.389H327.067Z" fill="#223A7A"/>
<path d="M334.214 205.255C335.597 202.474 338.115 200.436 341.012 199.126C338.494 198.864 326.572 197.772 323.573 199.476C320.21 201.382 324.199 209.069 331.157 209.447C331.885 209.491 332.555 209.432 333.195 209.331C333.253 207.933 333.573 206.536 334.214 205.255Z" fill="#223A7A"/>
<path d="M279.175 189.098C279.175 189.098 280.383 193.771 287.312 199.186C294.241 204.601 304.286 208.575 304.286 208.575L305.086 205.067C305.086 205.067 294.693 200.554 289.874 195.576C285.056 190.612 284.459 187.89 284.459 187.89L279.19 189.098H279.175Z" fill="#DEE1EB"/>
<path d="M306.279 202.463C311.855 202.201 314.97 206.612 315.348 209.465C315.741 212.318 313.063 215.521 306.789 212.711C299.001 209.218 300.689 202.725 306.265 202.463H306.279Z" fill="#223A7A"/>
<path d="M283.541 154.615C283.541 154.615 285.943 137.306 297.545 125.544C319.686 103.112 338.508 104.466 338.508 104.466C338.508 104.466 338.363 101.307 331.273 98.8907C324.621 96.6344 321.637 97.8426 321.637 97.8426C321.637 97.8426 303.411 99.342 288.054 116.359C272.696 133.376 271.037 155.066 271.037 155.066L283.541 154.615Z" fill="#DEE1EB"/>
<path d="M281.882 152.501C267.383 150.041 259.29 161.381 258.693 172.837C258.096 184.279 266.408 192.984 277.515 192.111C302.509 190.16 299.656 155.515 281.882 152.501Z" fill="white"/>
<path d="M274.662 180.975C270.834 180.975 267.602 179.053 265.754 175.662C263.774 172.037 263.934 167.568 266.176 164.278C266.35 164.031 266.685 163.972 266.933 164.133C267.18 164.307 267.253 164.642 267.078 164.89C265.069 167.845 264.924 171.862 266.714 175.138C268.403 178.238 271.402 180 274.954 179.883C278.272 179.796 281.082 178.282 282.858 175.618C284.896 172.576 285.362 168.383 284.052 164.919C282.741 161.483 279.175 159.154 275.929 159.576C275.638 159.62 275.361 159.402 275.317 159.11C275.274 158.819 275.492 158.543 275.783 158.499C279.583 157.99 283.571 160.595 285.071 164.54C286.512 168.325 285.988 172.91 283.76 176.229C281.766 179.199 278.651 180.888 274.983 180.975C274.881 180.975 274.779 180.975 274.677 180.975H274.662Z" fill="#818FB3"/>
<path d="M264.109 228.241C264.109 228.241 220.132 239.086 204.775 256.554C189.417 274.023 182.182 360.156 181.891 376.125C181.6 392.094 192.736 398.717 199.36 403.23C205.983 407.742 235.199 415.88 258.694 417.088C282.188 418.296 304.475 417.088 304.475 417.088C304.475 417.088 304.402 411.964 308.012 404.438C311.36 397.451 315.611 396.009 315.611 396.009L295.435 388.775C295.435 388.775 291.898 325.467 286.395 294.81C280.078 259.568 264.109 228.256 264.109 228.256V228.241Z" fill="#00575C"/>
<path d="M336.995 378.657C336.893 378.657 336.791 378.642 336.704 378.599C336.34 378.439 336.165 378.002 336.34 377.638C340.459 368.336 344.725 350.096 347.127 337.286L347.33 336.253C348.058 332.482 348.961 327.81 347.156 324.563C346.239 322.919 344.157 319.338 342.148 315.902C340.066 312.336 338.116 308.958 337.563 307.954C336.5 305.989 339.848 300.734 344.681 293.528C345.991 291.577 347.112 289.903 347.767 288.768C349.485 285.784 348.349 283.062 347.01 279.888L346.559 278.797C345.351 275.841 343.982 272.886 342.658 270.019C342.119 268.854 341.58 267.675 341.042 266.496C340.328 264.938 339.63 263.352 338.902 261.75C334.651 252.259 330.241 242.448 324.607 232.971C324.403 232.622 324.52 232.185 324.854 231.967C325.204 231.763 325.641 231.88 325.859 232.215C331.536 241.764 335.961 251.619 340.227 261.139C340.94 262.74 341.653 264.327 342.352 265.87C342.89 267.049 343.429 268.214 343.968 269.378C345.292 272.261 346.675 275.23 347.883 278.214L348.335 279.291C349.689 282.509 351.086 285.857 349.004 289.452C348.32 290.631 347.185 292.334 345.86 294.3C343.342 298.055 338.101 305.872 338.815 307.226C339.353 308.216 341.304 311.579 343.371 315.131C345.38 318.581 347.461 322.162 348.393 323.821C350.46 327.519 349.499 332.497 348.728 336.486L348.524 337.519C347.651 342.177 343.007 366.051 337.635 378.191C337.519 378.468 337.242 378.628 336.966 378.628L336.995 378.657Z" fill="#8593B6"/>
<path d="M294.081 381.218C293.892 381.218 293.703 381.146 293.572 381C290.151 377.55 273.643 348.975 272.42 343.603C271.751 340.663 273.439 333.195 275.07 325.975C276.336 320.385 277.646 314.606 277.268 313.034C276.715 310.69 272.493 307.24 268.417 303.907C263.483 299.875 258.388 295.711 257.398 291.956C256.277 287.69 257.238 260.993 257.864 243.336C258.096 236.989 258.271 231.967 258.271 230.176C258.271 229.768 258.591 229.448 258.999 229.448C259.407 229.448 259.727 229.768 259.727 230.176C259.727 231.996 259.552 237.018 259.319 243.379C258.722 259.887 257.733 287.516 258.795 291.577C259.669 294.867 264.793 299.059 269.32 302.757C273.789 306.411 277.996 309.846 278.665 312.67C279.117 314.562 277.894 319.992 276.467 326.266C274.939 332.991 273.221 340.619 273.818 343.24C275.026 348.509 291.228 376.546 294.591 379.937C294.867 380.229 294.867 380.68 294.591 380.971C294.445 381.117 294.27 381.189 294.081 381.189V381.218Z" fill="#8593B6"/>
<path d="M234.907 368.714C234.907 368.714 234.835 368.714 234.806 368.714C234.413 368.656 234.136 368.292 234.18 367.884C234.718 364.099 243.074 288.695 243.452 282.916C243.481 282.508 243.831 282.202 244.224 282.231C244.631 282.261 244.923 282.61 244.908 283.003C244.53 288.782 236.159 364.289 235.621 368.073C235.563 368.437 235.257 368.699 234.907 368.699V368.714Z" fill="#8593B6"/>
<path d="M294.838 389.198C294.75 389.198 294.648 389.184 294.561 389.14C292.712 388.383 284.531 385.632 274.181 382.138C253.278 375.092 224.659 365.441 219.215 362.603C218.851 362.413 218.72 361.977 218.909 361.627C219.098 361.263 219.535 361.132 219.884 361.322C225.227 364.102 254.966 374.132 274.647 380.77C285.026 384.278 293.222 387.029 295.114 387.801C295.493 387.946 295.667 388.383 295.522 388.747C295.405 389.023 295.129 389.198 294.852 389.198H294.838Z" fill="#8593B6"/>
<path d="M284.779 419.229C266.379 419.229 230.73 415.91 203.639 406.332C203.261 406.201 203.057 405.778 203.202 405.4C203.334 405.021 203.756 404.818 204.134 404.963C238.357 417.075 286.235 419.142 295.144 417.133C295.537 417.045 295.93 417.293 296.017 417.686C296.105 418.079 295.857 418.472 295.464 418.559C293.543 418.996 289.801 419.229 284.808 419.229H284.779Z" fill="#8593B6"/>
<path d="M74.2419 238.405C79.9482 243.427 87.1829 246.644 92.1905 252.452C94.1557 254.738 95.9316 257.169 97.7658 259.571C99.0905 261.318 102.657 264.214 103.225 266.398C103.472 267.359 103.428 266.049 103.166 265.088C103.166 265.044 103.137 265.015 103.123 264.971C102.628 260.531 102.264 256.077 102.104 251.608C101.944 247.154 102.22 242.685 101.944 238.245C101.551 231.971 99.5854 225.901 94.4614 221.97C91.9576 220.049 88.7405 218.884 86.426 216.744C84.2424 214.721 85.1159 212.406 86.3969 210.15C87.6051 208.039 89.0608 205.958 89.5266 203.527C90.0652 200.761 89.0171 197.908 87.6196 195.564C84.6355 190.556 78.0266 184.967 71.7526 185.724C66.5267 186.349 65.9299 192.376 66.0172 196.568C66.09 200.644 66.4976 204.72 66.5267 208.796C66.5704 212.989 65.8571 217.108 65.7989 221.286C65.697 228.39 68.9868 233.805 74.1982 238.39L74.2419 238.405Z" fill="#00CABE"/>
<path d="M127.302 303.589C128.889 299.789 130.723 296.252 132.965 292.802C136.036 288.071 139.457 283.457 141.524 278.158C143.635 272.743 143.329 266.964 143.533 261.272C143.679 257.079 144.931 252.916 144.596 248.709C144.436 246.7 143.271 243.44 140.666 243.774C138.642 244.037 137.434 246.54 136.662 248.156C135.309 250.951 134.362 253.935 133.358 256.876C132.965 258.026 132.586 259.19 132.092 260.297C131.8 260.937 130.883 262.509 130.01 262.305C128.525 261.942 129.879 255.9 130.097 254.823C131.204 249.452 132.863 244.459 133.096 238.927C133.431 230.906 132.805 221.371 124.959 216.975C122.906 215.825 120.315 215.141 118.364 216.859C116.443 218.547 115.904 221.473 115.613 223.89C114.74 231.299 116.487 238.301 118.859 245.274C120.825 251.024 123.154 256.963 123.328 263.121C123.488 269.045 120.417 274.286 118.961 279.89C116.661 288.799 117.127 293.53 117.127 296.412C117.127 300.022 117.244 303.603 117.506 307.213C117.753 310.532 118.03 313.837 118.437 317.141C118.525 317.811 118.597 318.51 118.685 319.208C117.404 316.137 116.967 312.629 115.904 309.543C114.026 304.069 111.857 298.698 110.052 293.195C108.568 288.653 107.156 284.068 105.205 279.686C103.371 275.581 101.144 271.243 97.7082 268.23C95.6265 266.41 93.1227 265.348 90.3424 265.362C88.5664 265.362 86.9652 265.988 85.2766 266.44C83.1949 266.993 81.55 266.804 79.8323 265.479C74.2133 261.155 72.4956 253.411 68.3469 247.938C65.2463 243.862 57.8805 236.904 52.4653 241.358C49.5976 243.716 48.797 248.273 48.9571 251.781C49.1463 256.162 51.0679 260.18 53.3387 263.848C55.7697 267.75 58.8995 271.243 61.1267 275.246C62.4514 277.619 62.6552 279.89 62.4368 282.554C62.233 285.072 62.0147 287.503 62.8735 289.934C65.4501 297.227 73.5 296.208 79.7595 296.398C84.1411 296.529 88.8285 297.184 92.9917 298.581C97.7955 300.197 100.925 303.327 102.643 308.072C103.88 311.508 104.55 315.424 106.894 318.335C108 319.703 109.456 320.722 111.057 321.436C113.502 322.513 120.941 322.979 120.985 322.309C121.174 320.038 122.251 317.636 122.921 315.482C124.187 311.435 125.672 307.49 127.317 303.574L127.302 303.589Z" fill="#00CABE"/>
<path d="M161.845 302.222C161.205 298.059 161.321 293.459 159.356 289.631C159.21 289.354 158.846 289.281 158.584 289.427C157.172 290.213 157.114 292.498 156.998 293.896C156.808 296.225 156.954 298.554 156.663 300.869C156.168 304.944 155.222 309.137 153.751 312.965C152.092 317.303 149.079 319.763 144.697 321.117C141.888 321.991 139.122 322.748 136.764 324.611C134.653 326.285 133.197 328.585 132.12 331.016C129.194 337.581 127.797 344.903 126.443 351.92C125.526 356.636 124.783 361.382 123.633 366.054C122.483 370.727 121.26 375.371 120.605 380.145C120.489 380.393 120.373 380.626 120.271 380.873C119.965 381.587 121.086 381.965 121.464 381.383C125.991 374.425 131.494 368.165 139.02 364.337C142.412 362.604 146.924 362.24 149.763 359.518C151.917 357.451 152.208 354.292 151.888 351.468C151.466 347.771 149.69 344.728 147.841 341.57C146.822 339.837 145.629 337.989 146.036 335.878C146.429 333.898 148.074 332.428 149.705 331.409C152.834 329.473 156.488 328.599 159.036 325.805C161.408 323.213 162.733 319.967 162.995 316.474C163.344 311.815 162.544 306.808 161.831 302.208L161.845 302.222Z" fill="#00CABE"/>
<path d="M100.168 326.256C96.1796 321.117 91.3613 316.677 85.9461 313.082C83.0493 311.16 76.2366 307.375 74.8537 313.038C74.0531 316.357 77.2993 319.618 79.4392 321.699C82.6562 324.829 86.3683 327.522 89.0758 331.132C85.7132 332.21 82.205 332.413 79.2936 334.728C75.8436 337.479 74.286 342.778 77.7215 346.155C79.3955 347.8 81.6081 348.804 83.6752 349.809C86.3828 351.119 89.1341 352.298 91.8999 353.463C97.8828 355.966 103.938 358.499 109.033 362.59C114.23 366.753 119.121 373.813 119.529 380.611C119.573 381.266 119.325 380.669 119.704 380.378C119.922 380.568 120.621 380.233 120.621 379.854C120.519 369.766 118.699 360.144 114.58 350.901C110.751 342.327 105.933 333.694 100.168 326.27V326.256Z" fill="#00CABE"/>
<path d="M86.3826 232.293C88.5807 236.864 90.8807 241.333 93.3263 245.788C95.6845 250.082 98.0281 254.332 99.7895 258.918C101.958 264.551 104.229 270.098 106.515 275.687C108.902 281.496 111.027 287.406 112.731 293.447C116.064 305.238 118.539 317.364 119.762 329.563C120.388 335.764 120.664 341.994 120.489 348.224C120.358 353.086 119.805 357.905 119.354 362.752C118.874 367.789 118.539 372.898 118.961 377.95C119.31 382.171 119.98 387.208 123.27 390.221C123.91 390.818 124.827 390.076 124.449 389.319C120.548 381.327 120.766 372.607 121.508 363.946C121.916 359.157 122.484 354.397 122.658 349.593C122.862 343.479 122.629 337.35 122.047 331.266C120.912 319.3 118.524 307.48 115.438 295.878C113.851 289.924 111.886 284.087 109.63 278.366C107.359 272.631 104.739 267.041 102.541 261.276C98.5667 250.839 92.5111 241.595 87.1396 231.871C86.863 231.362 86.1351 231.813 86.3681 232.322L86.3826 232.293Z" fill="#43588E"/>
<path d="M119.965 317.596C120.591 309.997 121.275 302.675 123.823 295.44C125.016 292.063 126.457 288.773 127.622 285.381C128.568 282.572 129.995 278.729 129.267 275.745C129.18 275.41 128.699 275.424 128.612 275.745C128.117 277.448 128.175 279.311 127.826 281.058C127.476 282.761 127.025 284.421 126.501 286.08C125.38 289.588 123.91 292.951 122.643 296.415C120.183 303.097 118.917 310.492 119.455 317.596C119.485 317.931 119.95 317.931 119.98 317.596H119.965Z" fill="#43588E"/>
<path d="M75.9312 273.937C78.9445 281.216 88.0135 281.638 94.6223 283.268C99.3387 284.433 102.818 287.577 105.322 291.668C108.058 296.137 109.907 301.377 111.436 306.37C111.45 306.428 111.537 306.399 111.523 306.341C109.674 297.607 107.025 287.097 98.0286 283.036C90.8084 279.775 81.3027 281.42 76.7027 273.617C76.4698 273.239 75.7711 273.486 75.9603 273.937H75.9312Z" fill="#43588E"/>
<path d="M115.191 316.443C115.555 316.923 115.875 317.433 116.254 317.913C116.443 318.146 116.618 318.364 116.851 318.553C117.083 318.743 117.36 318.99 117.695 318.976C117.826 318.976 117.928 318.816 117.855 318.699C117.709 318.452 117.433 318.306 117.229 318.131C117.011 317.942 116.792 317.753 116.589 317.549C116.166 317.156 115.788 316.719 115.366 316.312C115.293 316.239 115.133 316.341 115.206 316.443H115.191Z" fill="#43588E"/>
<path d="M96.3396 339.56C101.536 343.825 106.34 348.876 110.154 354.423C111.974 357.072 113.662 359.867 115.191 362.691C116.85 365.777 117.957 369.038 119.252 372.284C119.354 372.531 119.805 372.531 119.762 372.211C119.034 365.355 114.696 359.488 111.231 353.782C109.426 350.827 107.184 348.44 104.768 345.965C102.279 343.418 99.7313 341.001 96.82 338.949C96.4706 338.701 96.0048 339.283 96.3541 339.56H96.3396Z" fill="#43588E"/>
<path d="M137.754 331.48C135.251 332.907 135.163 336.852 135.12 339.385C135.032 344.247 136.226 348.803 134.101 353.432C132.179 357.61 129.108 361.104 126.691 364.976C124.435 368.615 122.193 373.259 122.251 377.626C122.251 377.873 122.644 378.019 122.761 377.757C123.678 375.777 123.998 373.521 124.653 371.439C125.381 369.095 126.415 366.97 127.739 364.918C130.068 361.307 132.922 358.032 134.814 354.16C136.808 350.07 136.517 346.023 136.386 341.597C136.299 338.773 136.022 334.232 138.293 332.135C138.642 331.801 138.191 331.247 137.784 331.48H137.754Z" fill="#43588E"/>
<path d="M120.999 378.077C110.911 377.931 91.6817 377.829 91.6817 377.829L96.4418 413.144C97.519 421.092 104.288 427.017 112.309 427.017H129.69C137.711 427.017 144.494 421.092 145.557 413.144L150.317 377.829C150.317 377.829 131.087 377.946 120.999 378.077Z" fill="white"/>
<path d="M608.815 313.186L551.242 427.225L383.387 428.433L435.18 311.57L608.815 313.186Z" fill="#F6F7FA"/>
<path d="M271.983 427.718L272.012 418.591H380.679L430.668 308.963H604.448L608.815 313.184H439.052L387.099 427.631C387.099 427.631 271.983 427.427 271.983 427.718Z" fill="#D9DEE8"/>
<path d="M521.648 376.116C519.756 381.808 509.464 386.204 498.663 385.928C487.862 385.651 480.641 380.833 482.548 375.141C484.441 369.449 494.732 365.053 505.534 365.33C516.335 365.606 523.555 370.425 521.648 376.116Z" fill="#D9DEE8"/>
<path d="M387.099 428.357C386.997 428.357 386.896 428.343 386.794 428.299C386.43 428.139 386.27 427.702 386.43 427.338L438.572 312.47H608.801C609.208 312.47 609.529 312.79 609.529 313.198C609.529 313.605 609.208 313.925 608.801 313.925H439.504L387.74 427.95C387.623 428.212 387.347 428.372 387.07 428.372L387.099 428.357Z" fill="white"/>
<path d="M264.414 436.365H64.7368V480.633H264.414V436.365Z" fill="#596B9B"/>
<path d="M622.543 436.365H263.279V480.633H622.543V436.365Z" fill="#7A89AF"/>
<g style="mix-blend-mode:multiply">
<path d="M264.415 436.363H263.279H64.7376V444.486H263.279H264.415H622.543V436.363H264.415Z" fill="#BDC4D7"/>
</g>
<path d="M273.148 427.629H55.1007V438.474H273.148V427.629Z" fill="#6F7FA9"/>
<path d="M631.277 427.629H272.012V438.474H631.277V427.629Z" fill="#9CA6C3"/>
<path d="M214.002 144.354H143.518C139.152 144.354 135.613 147.892 135.613 152.258V187.442C135.613 191.807 139.152 195.346 143.518 195.346H214.002C218.368 195.346 221.907 191.807 221.907 187.442V152.258C221.907 147.892 218.368 144.354 214.002 144.354Z" fill="white"/>
<path d="M241.995 169.842L215.516 158.677V181.022L241.995 169.842Z" fill="white"/>
<path d="M162.035 174.718C164.728 174.718 166.911 172.535 166.911 169.841C166.911 167.148 164.728 164.965 162.035 164.965C159.341 164.965 157.158 167.148 157.158 169.841C157.158 172.535 159.341 174.718 162.035 174.718Z" fill="#223A7A"/>
<path d="M178.761 174.718C181.454 174.718 183.638 172.535 183.638 169.841C183.638 167.148 181.454 164.965 178.761 164.965C176.068 164.965 173.885 167.148 173.885 169.841C173.885 172.535 176.068 174.718 178.761 174.718Z" fill="#223A7A"/>
<path d="M195.472 174.718C198.165 174.718 200.349 172.535 200.349 169.841C200.349 167.148 198.165 164.965 195.472 164.965C192.779 164.965 190.596 167.148 190.596 169.841C190.596 172.535 192.779 174.718 195.472 174.718Z" fill="#223A7A"/>
<path d="M572.874 36.0928H410.142C399.69 36.0928 391.218 44.5649 391.218 55.0167V132.212C391.218 142.664 399.69 151.136 410.142 151.136H424.728C425.136 158.138 424.131 168.546 418.294 181.851C437.101 173.175 447.917 160.161 453.58 151.136H572.888C583.34 151.136 591.812 142.664 591.812 132.212V55.0167C591.812 44.5649 583.34 36.0928 572.888 36.0928H572.874Z" fill="#007972"/>
<path d="M503.452 72.8938H422.734C420.521 72.8938 418.716 71.0888 418.716 68.8761C418.716 66.6635 420.521 64.8584 422.734 64.8584H503.452C505.664 64.8584 507.469 66.6489 507.469 68.8761C507.469 71.0888 505.679 72.8938 503.452 72.8938Z" fill="#6EFFFF"/>
<path d="M561.33 96.2884H421.176C419.822 96.2884 418.716 95.1821 418.716 93.8283C418.716 92.4745 419.822 91.3682 421.176 91.3682H561.33C562.684 91.3682 563.79 92.4745 563.79 93.8283C563.79 95.1821 562.684 96.2884 561.33 96.2884Z" fill="#00CABE"/>
<path d="M561.33 109.94H421.176C419.822 109.94 418.716 108.833 418.716 107.48C418.716 106.126 419.822 105.02 421.176 105.02H561.33C562.684 105.02 563.79 106.126 563.79 107.48C563.79 108.833 562.684 109.94 561.33 109.94Z" fill="#00CABE"/>
<path d="M530.76 124.493H421.19C419.837 124.493 418.73 123.387 418.73 122.033C418.73 120.68 419.837 119.573 421.19 119.573H530.76C532.114 119.573 533.22 120.68 533.22 122.033C533.22 123.387 532.114 124.493 530.76 124.493Z" fill="#00CABE"/>
<path d="M560.224 72.8938H521.721C519.508 72.8938 517.703 71.0888 517.703 68.8761C517.703 66.6635 519.508 64.8584 521.721 64.8584H560.224C562.437 64.8584 564.242 66.6489 564.242 68.8761C564.242 71.0888 562.437 72.8938 560.224 72.8938Z" fill="#6EFFFF"/>
<path d="M463.173 214.75H419.459C417.851 214.75 416.547 216.053 416.547 217.661V247.532C416.547 249.14 417.851 250.444 419.459 250.444H463.173C464.781 250.444 466.085 249.14 466.085 247.532V217.661C466.085 216.053 464.781 214.75 463.173 214.75Z" fill="white"/>
<path d="M441.614 237.927C441.367 237.927 441.119 237.84 440.915 237.68L417.115 218.028C416.649 217.649 416.591 216.95 416.969 216.485C417.362 216.019 418.046 215.961 418.512 216.339L441.6 235.409L464.09 215.844C464.541 215.451 465.24 215.495 465.633 215.946C466.026 216.397 465.982 217.096 465.531 217.489L442.342 237.665C442.138 237.84 441.876 237.927 441.629 237.927H441.614Z" fill="#6F7FA9"/>
<path d="M417.829 249.618C417.552 249.618 417.29 249.516 417.072 249.312C416.635 248.89 416.621 248.206 417.028 247.769L433.667 230.271C434.074 229.835 434.773 229.82 435.21 230.228C435.646 230.65 435.661 231.334 435.253 231.771L418.615 249.268C418.396 249.487 418.12 249.603 417.829 249.603V249.618Z" fill="#6F7FA9"/>
<path d="M464.818 248.977C464.542 248.977 464.265 248.875 464.047 248.656L447.467 232.032C447.044 231.61 447.044 230.912 447.467 230.489C447.889 230.067 448.587 230.067 449.01 230.489L465.59 247.113C466.012 247.536 466.012 248.234 465.59 248.656C465.372 248.875 465.095 248.977 464.818 248.977Z" fill="#6F7FA9"/>
<path d="M468.356 228.248C476.419 228.248 482.956 221.711 482.956 213.647C482.956 205.584 476.419 199.047 468.356 199.047C460.292 199.047 453.755 205.584 453.755 213.647C453.755 221.711 460.292 228.248 468.356 228.248Z" fill="#6EFFFF"/>
<path d="M464.836 214.134L464.801 213.732C465.243 213.93 465.628 214.186 465.954 214.501C466.28 214.815 466.53 215.159 466.705 215.531C466.88 215.904 466.967 216.288 466.967 216.684C466.967 217.348 466.781 217.959 466.408 218.518C466.047 219.066 465.558 219.508 464.941 219.846C464.323 220.172 463.636 220.335 462.879 220.335C462.122 220.335 461.435 220.172 460.818 219.846C460.201 219.508 459.706 219.066 459.333 218.518C458.972 217.959 458.792 217.348 458.792 216.684C458.792 216.148 458.902 215.688 459.124 215.304C459.356 214.908 459.642 214.576 459.98 214.308C460.329 214.041 460.672 213.819 461.01 213.645L460.87 214.134C460.579 214.017 460.294 213.854 460.014 213.645C459.747 213.423 459.525 213.144 459.351 212.806C459.176 212.468 459.089 212.072 459.089 211.618C459.089 210.966 459.258 210.378 459.595 209.854C459.933 209.318 460.387 208.893 460.958 208.579C461.54 208.264 462.181 208.107 462.879 208.107C463.59 208.107 464.224 208.264 464.783 208.579C465.354 208.893 465.808 209.318 466.146 209.854C466.484 210.378 466.652 210.966 466.652 211.618C466.652 212.119 466.553 212.538 466.355 212.876C466.157 213.214 465.919 213.482 465.639 213.68C465.36 213.878 465.092 214.029 464.836 214.134ZM461.185 211.653C461.185 211.968 461.255 212.247 461.394 212.492C461.546 212.736 461.75 212.934 462.006 213.086C462.262 213.225 462.553 213.295 462.879 213.295C463.205 213.295 463.491 213.225 463.735 213.086C463.991 212.934 464.189 212.736 464.329 212.492C464.481 212.247 464.556 211.968 464.556 211.653C464.556 211.187 464.393 210.803 464.067 210.5C463.753 210.186 463.357 210.029 462.879 210.029C462.39 210.029 461.983 210.186 461.656 210.5C461.342 210.803 461.185 211.187 461.185 211.653ZM462.879 218.413C463.438 218.413 463.91 218.245 464.294 217.907C464.678 217.558 464.871 217.138 464.871 216.649C464.871 216.311 464.783 216.009 464.609 215.741C464.434 215.473 464.195 215.263 463.892 215.112C463.59 214.949 463.252 214.867 462.879 214.867C462.507 214.867 462.169 214.949 461.866 215.112C461.563 215.263 461.325 215.473 461.15 215.741C460.975 216.009 460.888 216.311 460.888 216.649C460.888 217.138 461.08 217.558 461.464 217.907C461.849 218.245 462.32 218.413 462.879 218.413ZM471.873 220.51C471.442 220.51 470.982 220.446 470.493 220.317C470.004 220.178 469.602 219.98 469.288 219.724C469.136 219.595 469.014 219.432 468.921 219.234C468.839 219.025 468.798 218.827 468.798 218.641C468.798 218.443 468.88 218.256 469.043 218.082C469.218 217.907 469.462 217.82 469.777 217.82C469.986 217.82 470.248 217.93 470.563 218.151C470.749 218.268 470.953 218.373 471.174 218.466C471.395 218.559 471.622 218.606 471.855 218.606C472.414 218.606 472.898 218.507 473.305 218.309C473.713 218.099 474.027 217.814 474.249 217.453C474.47 217.092 474.58 216.667 474.58 216.178C474.58 215.735 474.476 215.357 474.266 215.042C474.068 214.728 473.8 214.483 473.462 214.308C473.136 214.134 472.781 214.046 472.397 214.046C472.036 214.046 471.721 214.105 471.454 214.221C471.186 214.338 470.941 214.46 470.72 214.588C470.499 214.704 470.277 214.763 470.056 214.763C469.672 214.763 469.387 214.681 469.2 214.518C469.014 214.343 468.897 214.14 468.851 213.907C468.804 213.674 468.793 213.464 468.816 213.278L469.357 209.033C469.404 208.788 469.52 208.59 469.707 208.439C469.905 208.276 470.138 208.195 470.405 208.195H475.454C475.733 208.195 475.966 208.288 476.153 208.474C476.339 208.66 476.432 208.893 476.432 209.173C476.432 209.441 476.339 209.668 476.153 209.854C475.966 210.029 475.733 210.116 475.454 210.116H470.947L471.139 209.959L470.668 213.505L470.44 212.841C470.51 212.725 470.662 212.614 470.895 212.509C471.128 212.404 471.395 212.317 471.698 212.247C472.001 212.166 472.298 212.125 472.589 212.125C473.369 212.125 474.068 212.305 474.685 212.666C475.302 213.016 475.786 213.499 476.135 214.116C476.496 214.722 476.677 215.409 476.677 216.178C476.677 217.051 476.479 217.814 476.083 218.466C475.687 219.118 475.128 219.625 474.406 219.986C473.695 220.335 472.851 220.51 471.873 220.51Z" fill="#006D67"/>
<path d="M615.074 183.263H529.741C526.526 183.263 523.919 185.87 523.919 189.085V202.434C523.919 205.65 526.526 208.257 529.741 208.257H615.074C618.29 208.257 620.897 205.65 620.897 202.434V189.085C620.897 185.87 618.29 183.263 615.074 183.263Z" fill="#6EFFFF"/>
<path d="M535.899 202.317C535.52 202.317 535.214 202.186 534.981 201.91C534.749 201.633 534.647 201.298 534.676 200.891L535.04 197.659C535.069 197.572 535.04 197.528 534.996 197.499C534.938 197.47 534.88 197.499 534.792 197.542L532.128 199.464C531.794 199.711 531.459 199.799 531.109 199.726C530.76 199.653 530.469 199.449 530.25 199.085C530.003 198.649 529.959 198.27 530.105 197.935C530.25 197.601 530.513 197.382 530.862 197.237L533.846 195.883C533.933 195.854 533.962 195.81 533.962 195.767C533.962 195.723 533.919 195.665 533.846 195.65L530.862 194.296C530.483 194.136 530.236 193.874 530.119 193.525C530.018 193.175 530.047 192.811 530.236 192.462C530.454 192.113 530.745 191.894 531.095 191.822C531.444 191.749 531.794 191.822 532.114 192.04L534.778 194.005C534.865 194.063 534.923 194.078 534.981 194.049C535.04 194.02 535.054 193.961 535.025 193.889L534.661 190.657C534.632 190.249 534.749 189.9 534.996 189.638C535.244 189.361 535.564 189.23 535.986 189.23C536.364 189.23 536.685 189.361 536.932 189.638C537.18 189.915 537.267 190.249 537.223 190.657L536.859 193.889C536.83 193.976 536.859 194.02 536.903 194.049C536.961 194.078 537.019 194.049 537.107 194.005L539.771 192.084C540.091 191.836 540.44 191.749 540.819 191.822C541.183 191.894 541.459 192.098 541.663 192.462C541.911 192.899 541.954 193.277 541.809 193.612C541.663 193.932 541.401 194.165 541.052 194.311L538.068 195.665C537.98 195.694 537.951 195.737 537.951 195.781C537.951 195.825 537.995 195.883 538.068 195.898L541.052 197.251C541.43 197.411 541.692 197.673 541.809 198.023C541.925 198.372 541.881 198.736 541.663 199.085C541.474 199.435 541.197 199.653 540.819 199.726C540.455 199.799 540.106 199.726 539.771 199.508L537.107 197.542C537.019 197.484 536.961 197.47 536.903 197.499C536.845 197.528 536.83 197.586 536.859 197.659L537.223 200.891C537.281 201.298 537.18 201.647 536.918 201.91C536.655 202.186 536.321 202.317 535.913 202.317H535.899Z" fill="#007972"/>
<path d="M553.542 202.317C553.163 202.317 552.858 202.186 552.625 201.91C552.392 201.633 552.29 201.298 552.319 200.891L552.683 197.659C552.712 197.572 552.683 197.528 552.639 197.499C552.581 197.47 552.523 197.499 552.436 197.542L549.772 199.464C549.437 199.711 549.102 199.799 548.753 199.726C548.403 199.653 548.112 199.449 547.894 199.085C547.646 198.649 547.603 198.27 547.748 197.935C547.894 197.601 548.156 197.382 548.505 197.237L551.489 195.883C551.577 195.854 551.606 195.81 551.606 195.767C551.606 195.723 551.562 195.665 551.489 195.65L548.505 194.296C548.127 194.136 547.879 193.874 547.763 193.525C547.661 193.175 547.69 192.811 547.879 192.462C548.098 192.113 548.389 191.894 548.738 191.822C549.087 191.749 549.437 191.822 549.757 192.04L552.421 194.005C552.508 194.063 552.567 194.078 552.625 194.049C552.683 194.02 552.698 193.961 552.668 193.889L552.304 190.657C552.275 190.249 552.392 189.9 552.639 189.638C552.887 189.361 553.207 189.23 553.629 189.23C554.008 189.23 554.328 189.361 554.575 189.638C554.823 189.915 554.91 190.249 554.867 190.657L554.503 193.889C554.473 193.976 554.488 194.02 554.546 194.049C554.604 194.078 554.663 194.049 554.75 194.005L557.414 192.084C557.734 191.836 558.084 191.749 558.462 191.822C558.826 191.894 559.103 192.098 559.306 192.462C559.554 192.899 559.598 193.277 559.452 193.612C559.306 193.932 559.044 194.165 558.695 194.311L555.711 195.665C555.623 195.694 555.594 195.737 555.594 195.781C555.594 195.825 555.638 195.883 555.711 195.898L558.695 197.251C559.073 197.411 559.335 197.673 559.452 198.023C559.568 198.372 559.525 198.736 559.306 199.085C559.117 199.435 558.841 199.653 558.462 199.726C558.098 199.799 557.749 199.726 557.414 199.508L554.75 197.542C554.663 197.484 554.604 197.47 554.546 197.499C554.488 197.528 554.473 197.586 554.503 197.659L554.867 200.891C554.925 201.298 554.823 201.647 554.561 201.91C554.299 202.186 553.964 202.317 553.556 202.317H553.542Z" fill="#007972"/>
<path d="M571.199 202.317C570.821 202.317 570.515 202.186 570.282 201.91C570.049 201.633 569.948 201.298 569.977 200.891L570.341 197.659C570.37 197.572 570.341 197.528 570.297 197.499C570.239 197.47 570.18 197.499 570.093 197.542L567.429 199.464C567.094 199.711 566.76 199.799 566.41 199.726C566.061 199.653 565.77 199.449 565.551 199.085C565.304 198.649 565.26 198.27 565.406 197.935C565.551 197.601 565.813 197.382 566.163 197.237L569.147 195.883C569.234 195.854 569.263 195.81 569.263 195.767C569.263 195.723 569.22 195.665 569.147 195.65L566.163 194.296C565.784 194.136 565.537 193.874 565.42 193.525C565.318 193.175 565.348 192.811 565.537 192.462C565.755 192.113 566.046 191.894 566.396 191.822C566.745 191.749 567.094 191.822 567.415 192.04L570.078 194.005C570.166 194.063 570.224 194.078 570.282 194.049C570.341 194.02 570.355 193.961 570.326 193.889L569.962 190.657C569.933 190.249 570.049 189.9 570.297 189.638C570.544 189.361 570.865 189.23 571.287 189.23C571.665 189.23 571.985 189.361 572.233 189.638C572.48 189.915 572.568 190.249 572.524 190.657L572.16 193.889C572.131 193.976 572.146 194.02 572.204 194.049C572.262 194.078 572.32 194.049 572.408 194.005L575.072 192.084C575.392 191.836 575.741 191.749 576.12 191.822C576.484 191.894 576.76 192.098 576.964 192.462C577.211 192.899 577.255 193.277 577.109 193.612C576.964 193.932 576.702 194.165 576.353 194.311L573.368 195.665C573.281 195.694 573.252 195.737 573.252 195.781C573.252 195.825 573.296 195.883 573.368 195.898L576.353 197.251C576.731 197.411 576.993 197.673 577.109 198.023C577.226 198.372 577.182 198.736 576.964 199.085C576.775 199.435 576.498 199.653 576.12 199.726C575.756 199.799 575.406 199.726 575.072 199.508L572.408 197.542C572.32 197.484 572.262 197.47 572.204 197.499C572.146 197.528 572.131 197.586 572.16 197.659L572.524 200.891C572.582 201.298 572.48 201.647 572.218 201.91C571.956 202.186 571.622 202.317 571.214 202.317H571.199Z" fill="#007972"/>
<path d="M588.842 202.317C588.464 202.317 588.158 202.186 587.925 201.91C587.692 201.633 587.59 201.298 587.619 200.891L587.983 197.659C588.013 197.572 587.983 197.528 587.94 197.499C587.882 197.47 587.823 197.499 587.736 197.542L585.072 199.464C584.737 199.711 584.402 199.799 584.053 199.726C583.704 199.653 583.413 199.449 583.194 199.085C582.947 198.649 582.903 198.27 583.049 197.935C583.194 197.601 583.456 197.382 583.806 197.237L586.79 195.883C586.877 195.854 586.906 195.81 586.906 195.767C586.906 195.723 586.863 195.665 586.79 195.65L583.806 194.296C583.427 194.136 583.18 193.874 583.063 193.525C582.961 193.175 582.99 192.811 583.18 192.462C583.398 192.113 583.689 191.894 584.038 191.822C584.388 191.749 584.737 191.822 585.057 192.04L587.721 194.005C587.809 194.063 587.867 194.078 587.925 194.049C587.983 194.02 587.998 193.961 587.969 193.889L587.605 190.657C587.576 190.249 587.692 189.9 587.94 189.638C588.187 189.361 588.507 189.23 588.93 189.23C589.308 189.23 589.628 189.361 589.876 189.638C590.123 189.915 590.211 190.249 590.167 190.657L589.803 193.889C589.774 193.976 589.788 194.02 589.847 194.049C589.905 194.078 589.963 194.049 590.05 194.005L592.714 192.084C593.035 191.836 593.384 191.749 593.762 191.822C594.126 191.894 594.403 192.098 594.607 192.462C594.854 192.899 594.898 193.277 594.752 193.612C594.607 193.932 594.345 194.165 593.995 194.311L591.011 195.665C590.924 195.694 590.895 195.737 590.895 195.781C590.895 195.825 590.938 195.883 591.011 195.898L593.995 197.251C594.374 197.411 594.636 197.673 594.752 198.023C594.869 198.372 594.825 198.736 594.607 199.085C594.418 199.435 594.141 199.653 593.762 199.726C593.399 199.799 593.049 199.726 592.714 199.508L590.05 197.542C589.963 197.484 589.905 197.47 589.847 197.499C589.788 197.528 589.774 197.586 589.803 197.659L590.167 200.891C590.225 201.298 590.123 201.647 589.861 201.91C589.599 202.186 589.264 202.317 588.857 202.317H588.842Z" fill="#007972"/>
<path d="M606.5 202.317C606.121 202.317 605.816 202.186 605.583 201.91C605.35 201.633 605.248 201.298 605.277 200.891L605.641 197.659C605.67 197.572 605.641 197.528 605.597 197.499C605.539 197.47 605.481 197.499 605.393 197.542L602.73 199.464C602.395 199.711 602.06 199.799 601.711 199.726C601.361 199.653 601.07 199.449 600.852 199.085C600.604 198.649 600.561 198.27 600.706 197.935C600.852 197.601 601.114 197.382 601.463 197.237L604.447 195.883C604.535 195.854 604.564 195.81 604.564 195.767C604.564 195.723 604.52 195.665 604.447 195.65L601.463 194.296C601.085 194.136 600.837 193.874 600.721 193.525C600.619 193.175 600.648 192.811 600.837 192.462C601.056 192.113 601.347 191.894 601.696 191.822C602.045 191.749 602.395 191.822 602.715 192.04L605.379 194.005C605.466 194.063 605.524 194.078 605.583 194.049C605.641 194.02 605.656 193.961 605.626 193.889L605.262 190.657C605.233 190.249 605.35 189.9 605.597 189.638C605.845 189.361 606.165 189.23 606.587 189.23C606.966 189.23 607.286 189.361 607.533 189.638C607.781 189.915 607.868 190.249 607.824 190.657L607.461 193.889C607.431 193.976 607.446 194.02 607.504 194.049C607.562 194.078 607.621 194.049 607.708 194.005L610.372 192.084C610.692 191.836 611.042 191.749 611.42 191.822C611.784 191.894 612.061 192.098 612.264 192.462C612.512 192.899 612.555 193.277 612.41 193.612C612.264 193.932 612.002 194.165 611.653 194.311L608.669 195.665C608.581 195.694 608.552 195.737 608.552 195.781C608.552 195.825 608.596 195.883 608.669 195.898L611.653 197.251C612.031 197.411 612.293 197.673 612.41 198.023C612.526 198.372 612.483 198.736 612.264 199.085C612.075 199.435 611.799 199.653 611.42 199.726C611.056 199.799 610.707 199.726 610.372 199.508L607.708 197.542C607.621 197.484 607.562 197.47 607.504 197.499C607.446 197.528 607.431 197.586 607.461 197.659L607.824 200.891C607.883 201.298 607.781 201.647 607.519 201.91C607.257 202.186 606.922 202.317 606.514 202.317H606.5Z" fill="#00CABE"/>
<defs>
<linearGradient id="paint0_linear_0_17664" x1="305.224" y1="227.339" x2="305.224" y2="431.558" gradientUnits="userSpaceOnUse">
<stop stop-color="#5DC1FA"/>
<stop offset="1" stop-color="#2898CF"/>
</linearGradient>
</defs>
</svg>
