<svg width="172" height="60" viewBox="0 0 172 60" fill="none" xmlns="http://www.w3.org/2000/svg">
<path d="M32.2106 24.313C34.3272 24.9184 36.4437 25.6193 38.434 26.5432C28.8936 28.6459 21.4066 31.131 15.8783 33.3611C8.67564 31.0354 1.7889 27.2441 1.7889 17.9092C1.7889 5.73889 13.9513 0.959961 24.313 0.959961C34.264 0.959961 44.2782 5.35658 46.1421 15.5198L32.0527 18.9288C32.2738 13.8631 27.5668 12.2064 23.1441 12.2064C20.0482 12.2064 16.1626 13.2896 16.1626 16.9853C16.1942 21.2545 24.155 22.051 32.2106 24.313ZM33.8533 42.1225C33.8533 46.2643 29.3675 47.8254 25.0396 47.8254C18.911 47.8254 14.899 45.7227 14.5831 39.1596L0.304138 41.7402C1.66253 54.1017 12.277 59.0399 24.155 59.0399C36.3174 59.0399 48.227 54.5159 48.227 40.3702C48.227 35.4001 46.2684 31.9912 43.3305 29.538C32.4317 30.8124 24.2182 32.4691 18.1528 34.0302C26.082 36.2604 33.8533 37.248 33.8533 42.1225ZM78.2697 46.2324C82.8503 46.2324 86.0093 44.6076 86.0093 39.9879C86.0093 35.0816 82.5976 33.4249 78.2697 33.4249H66.7391V46.2324H78.2697ZM52.3338 28.6459C62.1269 27.8176 73.689 27.276 87.273 27.276C88.5366 27.276 89.7686 27.276 90.9691 27.3078C90.9375 27.3078 90.9059 27.3397 90.8743 27.3397C96.7502 29.0601 100.415 34.2213 100.415 40.5295C100.415 53.815 90.7479 57.8611 78.8699 57.8611H52.3022V28.6459M66.7391 13.3852H77.8906C80.9233 13.3852 83.7664 14.7233 83.7664 18.7695C83.7664 19.9483 83.4505 20.9041 82.9767 21.6687C84.3982 21.6368 85.8198 21.6368 87.273 21.6368C90.5268 21.6368 93.6859 21.7005 96.7501 21.7961C97.6663 20.1076 98.1717 18.196 98.1717 16.1251C98.1717 4.49637 87.7152 1.97946 78.2065 2.13876H52.3338V24.0263C56.8197 23.3891 61.5898 22.8156 66.7391 22.4014V13.3852ZM118.642 13.7675H130.11C134.122 13.7675 137.376 15.6472 137.376 19.789C137.376 23.0386 135.986 25.1732 133.395 25.9697C138.481 27.0211 143.03 28.168 147.074 29.3787C150.233 26.5432 151.781 22.274 151.781 17.8455C151.781 6.5991 142.177 2.13876 132.416 2.13876H104.237V22.1784C109.355 22.497 114.157 22.9749 118.642 23.5484V13.7675ZM104.237 57.893H118.642V37.5985H129.573C136.302 37.5985 137.249 43.365 137.628 49.0042C137.786 50.5653 138.007 56.0451 139.239 57.893H153.487C151.56 55.854 151.307 47.6661 151.181 45.3085C150.707 39.9879 149.001 33.3611 143.125 31.9593V31.8C143.441 31.6726 143.725 31.5451 144.041 31.3858C134.217 29.6654 121.201 28.168 104.269 27.5627V57.893H104.237ZM157.499 2.13876V32.8832C166.597 36.4197 170.925 39.4145 170.925 39.4145C170.925 39.4145 167.292 37.025 157.499 34.3488V57.893H171.904V2.13876H157.499Z" fill="#B8B8B8"/>
</svg>
