<svg width="909" height="949" viewBox="0 0 909 949" fill="none" xmlns="http://www.w3.org/2000/svg">
<g opacity="0.1">
<path d="M825.298 372.57L825.009 371.415L824.859 370.828V370.798L796.846 293.279L797.045 293.448L796.319 291.766L796.378 291.627L796.199 291.477L795.841 290.472L795.801 290.562L776.481 246.143L775.456 244.341L775.246 243.973L771.084 237.004L754.891 213.64L754.682 213.362L754.633 213.292L747.831 204.87L744.634 200.978L744.604 200.948L744.535 200.868L740.711 196.438L733.411 188.245L733.401 188.235L730.712 185.329L728.76 183.258L727.565 182.014L721.63 175.931L721.58 175.872L721.481 175.772L719.718 174.01L717.697 172.019L715.456 169.869L710.776 165.449L708.545 163.378L704.82 159.984L703.108 158.46L702.749 158.152L696.276 152.527L691.815 148.794L691.616 148.635L685.87 143.976L681.986 140.95L678.132 137.963L678.062 137.914L677.863 137.764H677.843V137.744L672.904 134.101L665.654 128.904L663.782 127.58L660.754 125.49L657.398 123.25L656.343 122.553L648.844 117.715L641.047 112.937L633.199 108.348L627.722 105.321L622.414 102.434L622.106 102.265L621.558 101.977L621.409 101.897L614.946 98.572L613.79 98.0046L605.316 93.8832L603.105 92.8479L597.946 90.4986L591.752 87.8207L587.48 85.999L583.387 84.3365L582.82 84.1076L582.61 84.018L581.226 83.4804L580.629 83.2514L580.181 83.0723L578.468 82.4152L575.361 81.2406L568.489 78.6822L558.212 75.178L547.955 71.9626L547.119 71.7038L546.352 71.4748L541.711 70.1707L536.085 68.6277L531.364 67.4033L531.315 67.5626L528.078 66.5671L527.779 66.4874L526.754 66.2386L526.385 66.149L522.9 65.3426L518.15 64.2576L517.921 64.2078H517.851V64.1978L510.83 62.7444L508.918 62.3761L496.599 60.1761L493.871 59.7181L482.339 58.0955H482.289H482.22L482.2 58.0855L481.881 58.0457L473.197 57.0403H473.187L467.73 56.5226L463.687 56.1643L463.727 56.1344L462.243 56.0348H462.123L454.426 55.5172H454.276H454.256L446.479 55.1389L445.493 55.109L436.58 54.8701H436.57H428.633L422.081 54.9398H421.891H421.722H421.672H421.632H421.463L419.173 54.9796H418.774L414.014 55.1588L409.383 55.3579H409.304H409.174L399.674 56.5724H399.654L399.535 56.5923L398.539 56.7914L398.23 56.8611L397.075 57.11L396.945 57.1398L394.067 57.8168L393.799 57.8864L392.823 58.1353L388.939 59.1706L388.71 59.0711L388.6 59.2403L333.261 68.0902L332.644 68.2295L332.226 68.3191H332.216L311.124 73.4758V73.2667L310.486 73.635L310.168 73.7147V73.7844L217.335 116.212L214.836 116.112L214.467 116.341L208.781 119.935L208.442 120.154L202.148 124.295L201.382 124.823L194.022 129.9L193.763 130.089L189.81 132.956L189.661 133.066L189.392 133.265L184.9 136.57L179.901 140.353L179.871 140.382L173.837 145.141L173.04 145.798L166.308 151.343L166.298 151.363L160.771 156.101L159.726 157.037L153.253 162.841L152.456 163.587L152.575 163.398L149.976 165.887L149.817 166.036L145.316 170.357L140.795 174.757L140.775 174.776L135.477 180.152L134.78 180.889L128.934 187.061L128.894 187.101L128.347 187.698L124.283 192.168L123.188 193.412L117.621 199.803L117.542 199.893L112.791 205.577L112.214 206.294L106.946 212.874L106.886 212.963L103.55 217.334L103.172 217.831L102.923 218.16L100.343 221.594L96.8779 226.313L96.1609 227.328L95.9517 227.617L91.3509 234.257L90.0762 236.108V236.089L89.4688 236.994L89.3692 237.144L87.3974 240.11L87.3476 240.18L87.2979 240.25L84.4697 244.67L84.0514 245.327L83.8821 245.585L81.6016 249.199L78.5145 254.216V254.246H78.4946L74.6008 260.876L74.2921 261.424L70.2191 268.681V268.701L70.1992 268.711L66.5843 275.48L66.2855 276.057L62.5113 283.474V283.494L59.4541 289.775L58.8964 290.99L55.4109 298.575L54.0267 301.691L52.752 304.648L51.9852 306.499L48.7189 314.463L47.8525 316.643L46.8467 319.232L45.6417 322.487L42.7239 330.55V330.57L40.3239 337.668L39.9953 338.713L37.436 346.836L36.9978 348.29L35.3547 353.954L35.0559 355.059L32.8451 363.282V363.312L31.0426 370.639L30.8335 371.574L28.9613 379.887V379.936L27.6169 386.706L27.5273 387.174V387.213L26.8302 390.787L25.7846 396.611V396.631L24.6095 404.007L24.4601 405.072L23.295 413.514L23.1655 414.549V414.649H23.1556L22.4684 420.572L22.3091 422.205L21.5124 430.517L21.3033 433.006L21.0543 436.38L20.885 439.078L20.417 447.639L20.168 455.145L20.1481 456.25L20.0386 464.861V465.827L20.0983 472.447L20.1182 473.462L20.3473 481.476V481.506L20.9448 492.944V492.984L21.2635 497.513V497.543L21.3332 498.419V498.559V498.598L21.4925 500.579V500.719L21.5523 501.336V501.366L22.0402 506.373L22.1896 507.866L22.8767 514.387L23.2153 517.254L24.1315 524.053L24.2211 524.71L25.4659 532.843L25.5157 533.142V533.172V533.182L26.8701 540.857L27.0593 541.832L28.6327 549.836L28.6427 549.906V549.936H28.6526L29.9273 555.709L32.4767 566.491L33.3231 569.826L34.299 573.449L34.6575 574.743L36.9978 582.956L40.7322 594.772L41.4293 596.913V596.933L41.4592 597.022V597.052L41.6185 597.53L41.6484 597.629L42.1961 599.242L44.9048 606.848L45.0741 607.296L48.1214 615.339L48.1313 615.379L50.4815 621.163L50.5014 621.222L50.7006 621.71L52.4134 625.832L54.7338 631.237L55.6201 633.238H55.6001L56.0184 634.134L56.1279 634.373L58.8765 640.266L61.7644 646.349L61.7943 646.418L65.2399 653.267L66.4648 655.597L69.3926 661.132V661.141L69.4225 661.201L69.4324 661.221L73.1369 667.891L73.4457 668.428L77.5983 675.576L77.6481 675.656L77.668 675.695V675.715H77.678L81.8506 682.544L82.1095 682.963L86.4514 689.782L92.2372 698.363L92.1874 698.323L92.765 699.149L92.8347 699.249L94.5476 701.718L95.3642 702.892L95.8621 703.599L96.8082 704.923L100.134 709.482L100.811 710.388L105.87 717.048V717.068L110.471 722.872L111.128 723.678L116.486 730.159L118.687 732.757L121.196 735.644L122.033 736.589L127.699 742.891L129.392 744.732L133.146 748.714L133.545 749.123L139.46 755.185L139.56 755.285L144.868 760.511L145.644 761.258L151.908 767.171L151.948 767.211L152.058 767.31H152.067V767.33L158.053 772.736L158.381 773.024L164.914 778.698L165.093 778.848L169.206 782.252L174.036 786.195L178.427 789.699L178.447 789.709L184.622 794.427L185.458 795.044L192.568 800.231L199.908 805.338L205.514 809.081L208.064 810.753L208.353 810.942L215.353 815.352L215.672 815.551L220.014 818.16L227.881 822.789L231.785 824.969L233.04 825.646L235.758 827.109L236.784 827.647L237.192 827.866L239.851 829.239L241.235 829.946L244.342 831.489L245.268 831.947L249.312 833.868L250.327 834.346L253.405 835.75L254.839 836.387L257.577 837.591L259.061 838.229L261.969 839.443L263.124 839.921L263.194 839.951L268.223 841.952L269.358 842.39L274.038 844.142L274.636 844.361L279.794 846.173L281.019 846.591L286.297 848.333L290.639 849.677L292.073 850.105L295.011 850.961L296.704 851.439L299.403 852.185L301.195 852.663L303.824 853.35L305.646 853.808L308.295 854.455L310.078 854.883L312.747 855.49L313.265 855.958L313.305 855.789L316.601 857.66L314.659 855.918L317.766 856.575L318.971 856.824L323.532 857.71C372.637 866.441 429.3 874.424 467.531 874.424C468.258 874.424 468.975 874.424 469.692 874.424H469.941L469.961 874.395L477.509 873.558L482.937 872.911L486.89 872.384L487 872.364L498.561 870.592L498.8 870.552L510.053 868.491L522.89 865.764L523.089 865.724L527.331 864.719L527.68 864.629L531.444 863.673L537.638 862.041L539.819 861.443L543.504 860.428L544.699 860.089L546.372 859.602L557.436 856.157H557.446L566.916 852.962L567.653 852.693L568.3 852.464L572.055 851.11L572.224 851.05H572.234L580.3 847.945L585.927 845.715L594.132 842.25L594.869 841.922L603.772 837.91L605.963 836.885L611.48 834.217L617.385 831.22L620.682 829.538L621.926 828.881L627.882 825.675L628.758 825.178L636.794 820.628L637.969 819.942L643.008 816.935L644.522 815.999L652.2 811.181L658.753 806.871L661.432 805.029L666.919 801.246L666.968 801.216L668.552 800.092L673.123 796.777L674.059 796.07L681.099 790.754H681.109L682.314 789.818L687.025 786.095L687.961 785.318L694.703 779.774L698.656 776.369L700.867 774.448L700.847 774.498L702.092 773.383L702.291 773.203L703.815 771.84L707.758 768.286L713.315 763.099L714.052 762.383L720.236 756.36L720.595 756.001L725.086 751.452L726.221 750.257L730.563 745.678L732.296 743.837L732.594 743.518L737.793 737.754L743.379 731.333L743.449 731.244L748.199 725.559L750.35 722.882L754.045 718.263V718.243L754.105 718.163L757.779 713.365L760.12 710.259L764.123 704.813L768.525 698.552L768.923 697.955L773.593 691.026V691.016L777.746 684.565L778.105 683.988L782.476 676.89V676.87L786.171 670.599L786.679 669.693L790.762 662.416L792.793 658.613L794.805 654.83V654.81V654.8V654.78L798.977 645.502L800.172 642.655L803.021 635.547L803.031 635.518V635.508L804.694 631.108V631.147L805.271 629.594L805.331 629.435L807.333 623.92L807.512 621.87L827.717 560.388L828.096 558.666L828.156 558.377V558.348L837.317 459.814L825.059 372.55L825.298 372.57ZM701.425 454.498L695.718 463.388L699.313 430.019L699.353 429.531L699.552 426.983V426.963L701.196 385.133L701.166 384.974L670.633 207.349L671.5 208.434L736.797 309.297L754.244 346.946L754.204 346.986L754.274 347.085L702.45 452.876L701.415 454.508L701.425 454.498ZM706.513 629.585L646.374 764.792L629.833 727.003L628.778 725.649L628.698 725.549L628.678 725.53L609.966 705.859L610.076 705.68H610.106L610.195 705.48V705.461L610.743 704.594L610.604 704.614L663.871 593.827L706.234 626.21L706.493 629.575L706.513 629.585ZM188.625 784.174L215.045 766.703L216.041 768.754L309.192 852.454L190.129 785.07L188.625 784.174ZM131.145 603.413L130.139 601.412L128.436 597.958L127.809 596.664L125.668 592.194L125.459 591.756L94.8662 509.818L94.4181 508.255L98.6505 493.979L128.556 424.465L129.014 423.618L151.779 482.352L151.331 485.448L151.291 485.727V485.776L164.217 660.166L134.332 609.655L133.844 608.709L132.18 605.474L131.135 603.413H131.145ZM79.2514 294.255L100.055 265.276L78.5643 380.554C78.3054 380.603 77.907 380.693 77.3693 380.802C73.9834 381.509 65.3893 383.291 56.7055 384.884C52.3636 385.68 48.0019 386.437 44.2575 386.994C40.5231 387.552 37.3862 387.9 35.5638 387.9H35.5339C34.9663 387.9 34.5281 387.86 34.2791 387.801C34.2592 387.801 34.2493 387.801 34.2293 387.791L77.8274 296.425L79.1718 294.374L79.2514 294.255ZM102.455 260.906L104.785 255.56L105.97 252.902L106.577 251.548L129.203 209.539V209.519H129.213L131.961 205.248L132.768 204.014L134.879 200.858L147.427 183.517L148.164 182.571L150.404 179.744L152.605 177.016L153.511 175.911L206.032 127.501L198.424 139.048L193.037 162.542V165.678L191.393 167.052L187.818 170.078L102.455 260.896V260.906ZM430.416 79.1301L547.238 141.268L666.829 204.88L589.791 208.782L539.968 214.765L504.198 219.056L504.267 218.896L503.68 219.066L449.227 112.25V112.23L430.416 79.1301ZM669.378 205.885L669.448 206.503L669.498 206.463L674.597 236.148L669.179 205.776L669.378 205.885ZM700.21 385.193L698.576 426.913L698.377 429.452L698.337 429.91L694.613 464.503L648.675 347.055L648.436 346.588L647.49 344.726L632.93 317.499L633.1 317.36L632.901 317.211L662.099 241.235L665.753 222.44L668.582 207.906L700.22 385.183L700.21 385.193ZM512.822 815.123L557.077 774.697H557.087L557.406 774.338L559.925 771.611L560.831 770.615L562.883 768.335L564.187 766.862L565.88 764.951L567.484 763.109L568.888 761.487L570.68 759.376L571.865 757.972L573.767 755.683L574.803 754.429L576.765 752.019L577.691 750.875L579.683 748.376L580.509 747.341L582.561 744.713L583.238 743.846L585.399 741.029L585.827 740.462L588.187 737.326V737.316L609.349 706.705L627.882 726.187L627.931 726.246L628.927 727.521L645.647 765.737L512.762 815.143L512.822 815.123ZM608.791 705.879L587.46 736.729L585.1 739.865L584.672 740.432L582.511 743.249L581.844 744.115L579.792 746.733L578.966 747.769L576.974 750.267L576.048 751.412L574.096 753.811L573.06 755.066L571.158 757.345L569.973 758.749L568.181 760.859L566.777 762.482L565.173 764.314L563.48 766.225L562.166 767.698L560.114 769.968L559.208 770.954L556.689 773.681L556.38 774.01L511.408 815.084L515.829 802.282L515.809 776.588L515.69 775.971L515.59 775.493V775.453L504.497 746.773L493.114 728.526L494.877 728.088L507.185 725.002L546.103 716.371L583.278 709.691L585.11 709.403L585.797 709.293L608.781 705.869L608.791 705.879ZM305.477 686.118L276.648 572.404L372.567 529.986L372.288 530.653L373.414 529.737L404.544 569.089L406.296 572.284L306.264 686.258L305.477 686.118ZM79.59 382.107L128.456 422.583L128.197 423.051L127.669 424.026L97.7343 493.641L94.1094 505.846L92.3766 491.082L79.59 382.107ZM79.5004 380.773L89.9567 324.697L101.25 264.141H101.27L101.279 264.092L122.132 279.342L122.162 279.362L153.611 296.554L154.219 296.853L157.226 298.346L157.913 298.685L160.931 300.158L161.11 300.248L202.288 319.301L193.495 329.405L128.994 421.767L79.5103 380.783L79.5004 380.773ZM192.927 167.032L186.832 248.562L186.922 249.309L187.44 253.43L187.599 254.585L188.157 258.497L188.336 259.701L188.983 263.743L189.143 264.679L189.929 269.139L190.019 269.617V269.636L195.994 296.306V296.325L196.054 296.544L197.329 301.313L197.976 303.652L198.414 305.215L202.288 318.276L190.945 313.03L161.508 299.401L161.329 299.312L158.321 297.839L157.634 297.5L154.627 296.007L154.039 295.718L122.63 278.546L101.638 263.186L188.466 170.814L191.991 167.828L192.907 167.052L192.927 167.032ZM311.701 274.305L435.843 239.234L502.585 220.38L414.164 430.955L373.364 528.125L203.861 319.341L289.902 283.414L311.701 274.315V274.305ZM646.633 345.184L647.579 347.036L647.798 347.464L694.195 466.086L694.225 466.205L561.977 483.437H561.897L554.548 484.751L498.84 495.811L494.668 496.727L492.258 497.254L384.179 525.377H384.159L382.326 525.924L375.704 527.905L632.194 318.137L646.663 345.184H646.633ZM152.277 485.597L152.635 483.168L275.293 572.165L184.034 646.04L165.262 661.241L152.247 485.816L152.277 485.597ZM152.794 482.093L153.292 478.818L153.362 478.4L203.284 320.147L316.72 459.874L372.736 528.881L276.16 571.597L152.804 482.103L152.794 482.093ZM374.698 527.458L503.63 220.42L631.526 317.42L374.698 527.467V527.458ZM374.32 529.329L382.575 526.86L384.408 526.313L492.457 498.2L494.847 497.673L499.019 496.757L554.717 485.707L562.056 484.413H562.116L693.747 467.25L600.834 587.306L407.511 570.93L406.984 571.528L405.36 568.571L374.32 529.329ZM407.91 571.936L600.127 588.212L492.437 727.361L407.471 572.434L407.91 571.936ZM661.153 240.996L632.084 316.633L504.666 220.001L589.86 209.778L667.994 205.826L661.153 241.006V240.996ZM194.251 330.023L201.909 321.233L152.396 478.191L152.316 478.679L152.048 480.451L129.611 422.563L194.241 330.023H194.251ZM275.801 573.011L304.432 685.969L165.969 661.928L275.791 573.021L275.801 573.011ZM307.379 686.477L406.794 573.21L491.302 727.311L451.109 711.433L307.389 686.477H307.379ZM585.668 708.377L584.981 708.487L583.148 708.776L545.963 715.455L507.016 724.086L493.622 727.441L503.451 714.748L601.293 588.322L662.985 593.548L609.478 704.823L585.688 708.367L585.668 708.377ZM601.98 587.416L694.006 468.505L663.334 592.612L601.98 587.416ZM429.012 78.6622L448.371 112.738L493.931 202.123L502.326 218.588L499.995 217.433L496.54 215.721L332.913 147.918L429.012 78.6722V78.6622ZM331.897 148.754L331.977 148.844L332.116 148.625L496.141 216.587L499.567 218.289L502.087 219.544L311.393 273.409L204.299 318.127L244.273 254.157L299.721 183.636L302.988 179.923L303.366 179.495L317.089 164.384L317.706 163.717L320.903 160.292L331.897 148.735V148.754ZM320.196 159.645L316.999 163.07L316.382 163.737L302.659 178.848L302.271 179.286L298.974 183.019L243.476 253.589L203.234 317.987L199.36 304.946L198.922 303.383L198.275 301.054L197 296.296L196.95 296.087L190.975 269.437L190.885 268.969L190.099 264.52L189.939 263.594L189.292 259.562L189.113 258.368L188.545 254.465L188.386 253.32L187.858 249.209L187.778 248.572L193.923 166.365L287.761 151.661L330.682 148.595L320.166 159.645H320.196ZM34.3488 388.836C34.6874 388.886 35.0858 388.906 35.5538 388.906C37.7646 388.906 41.5488 388.438 46.04 387.741C58.1893 385.85 75.3577 382.256 78.5543 381.579L93.4024 508.125L39.9554 573.101C39.7463 565.256 38.6409 523.177 37.4459 481.098C36.7787 457.773 36.0816 434.449 35.4941 416.949C35.1953 408.198 34.9364 400.911 34.7073 395.804C34.5978 393.256 34.4982 391.245 34.4086 389.871C34.3787 389.463 34.3588 389.115 34.3289 388.816C34.3389 388.816 34.3489 388.816 34.3588 388.816L34.3488 388.836ZM165.73 662.953L165.85 662.983L165.79 662.874L264.787 680.066L304.69 686.994L304.86 687.661L215.383 765.25L165.73 662.953ZM312.518 854.186L216.817 768.196L215.821 766.145L305.129 688.706L328.87 782.342L325.394 797.633L312.528 854.176L312.518 854.186ZM305.945 688L306.354 687.641L306.622 687.333L450.831 712.379L490.943 728.217L329.696 781.715L305.935 688H305.945ZM492.138 728.845L492.297 729.133L492.327 729.103L503.64 747.241L514.664 775.762L514.754 776.2L514.863 776.717L514.883 802.152L510.033 816.169L331.28 782.213L492.138 728.845ZM510.541 817.264H510.591L510.711 817.035L510.89 816.895L641.535 768.326L474.641 867.655L510.541 817.254V817.264ZM664.25 592.941L694.404 470.924L706.145 624.956L664.25 592.941ZM754.971 346.239L737.643 308.849L672.276 207.886L671.649 207.11L729.796 237.482H729.806L730.214 237.731L795.183 291.925L783.552 317.808L754.971 346.239ZM702.022 158.869L702.371 159.177L704.083 160.69L707.798 164.075L710.019 166.146L714.699 170.566L716.94 172.706L718.951 174.687L720.714 176.439L720.814 176.538L720.863 176.588L726.799 182.671L727.994 183.915L729.946 185.976L732.614 188.873L732.634 188.902L739.934 197.085L743.748 201.505L743.818 201.585L743.848 201.615L747.044 205.497L753.846 213.909L753.896 213.969L754.095 214.228L770.267 237.562L774.41 244.48L774.619 244.839L775.615 246.601L794.536 290.104L730.812 236.945L730.344 236.656L730.314 236.636H730.304L670.733 205.517L692.173 188.345L692.233 188.285L692.99 187.539L703.068 173.781L703.197 173.433L703.337 173.044L703.366 172.965L703.645 162.87L703.516 162.492L703.426 162.243L703.406 162.203L703.357 162.124L700.937 157.923L702.032 158.869H702.022ZM602.517 93.724L604.718 94.7493L613.183 98.8607L614.338 99.4281L620.781 102.743L620.931 102.823L621.478 103.111L621.747 103.251L627.095 106.158L632.562 109.174L640.399 113.753L648.187 118.522L655.676 123.35L656.711 124.027L660.077 126.276L663.095 128.357L664.957 129.681L672.207 134.867L677.136 138.511H677.156L677.355 138.68L677.415 138.73L681.269 141.716L685.153 144.733L690.898 149.382L691.098 149.541L695.509 153.224L695.688 153.413L699.423 157.385L702.51 162.632L702.59 162.841L702.659 163.04L702.391 172.795L702.271 173.104L702.181 173.333L692.223 186.921L691.526 187.608L691.506 187.628L670.215 204.681L669.199 195.353L669.189 195.234L669.09 194.497V194.457L652.459 143.04L652.22 142.622L651.304 141.029L650.935 140.402L650.069 138.959L649.671 138.312L648.745 136.839L648.545 136.53L648.505 136.47L648.316 136.301L599.49 92.3402L602.517 93.714V93.724ZM545.854 72.4106L546.621 72.6296L547.457 72.8884L557.695 76.0939L567.972 79.598L574.813 82.1464L577.91 83.3211L579.623 83.9782L580.071 84.1474L580.659 84.3763L582.013 84.9039L596.005 91.4244L647.768 137.107L647.928 137.346L648.854 138.82L649.252 139.457L650.119 140.89L650.487 141.497L651.403 143.09L651.593 143.419L668.163 194.656L668.253 195.353V195.463H668.273L669.209 204.014L669.08 203.855L669.119 204.104L668.86 203.825L668.651 202.68L668.502 203.447L545.884 72.4106H545.894H545.854ZM544.818 72.7391L640.808 175.324L542.986 72.1717L544.808 72.7491L544.818 72.7391ZM493.473 60.6937L496.161 61.1417L508.47 63.3417L510.372 63.71L517.383 65.1535L517.452 65.1734L517.681 65.2232L522.432 66.3083L525.917 67.1146L526.286 67.2042L527.281 67.4431L527.58 67.5228L541.233 71.7138L663.682 200.848L483.594 59.31L493.482 60.7037L493.473 60.6937ZM467.342 57.4982L472.789 58.0059L481.473 59.0113L481.672 59.0412L621.986 169.321L663.991 202.332L516.118 123.678L430.107 77.9256L453.519 62.625L462.064 57.0403L467.332 57.4982H467.342ZM428.324 55.8357H436.212H436.221L445.134 56.0747L446.11 56.1045L453.928 56.4828H454.047L460.46 56.9208L451.528 62.7544L429.38 77.2188L427.438 72.2314L427.11 71.3952L427.04 71.226L422.748 59.738L422.708 59.6285L422.578 59.2602L422.519 59.081L422.379 58.643L421.911 55.9253L428.305 55.8557L428.324 55.8357ZM392.693 59.091L393.659 58.8421L393.928 58.7724L396.786 58.1054L396.916 58.0756L398.061 57.8267L398.369 57.767L399.365 57.5679L399.475 57.548H399.495L408.896 56.3434H409.005H409.075L413.705 56.1443L418.466 55.9652H418.854L420.945 55.9253L421.453 58.862L421.473 58.9417L421.622 59.3896L421.682 59.5788L421.812 59.9571L421.851 60.0865L426.154 71.5943L426.223 71.7735L426.552 72.6097L428.235 76.9401L427.916 76.7708L428.006 76.9301L389.955 59.8376L392.693 59.1109V59.091ZM388.7 60.3154L428.195 78.055L368.484 121.08L333.699 146.146L388.7 60.3154ZM332.066 69.2748L332.475 69.1852L333.072 69.0558L387.525 60.3552L331.877 147.201L313.165 124.226L311.741 94.3113L310.795 74.4713L332.066 69.2649V69.2748ZM312.209 124.594L326.111 141.657L330.961 147.61L287.691 150.706L194.829 165.25L241.634 115.953L242.042 115.605L245.278 112.927L245.697 112.588L277.534 93.8932L309.839 74.9292L312.209 124.594ZM245.139 111.792L244.661 112.18L241.425 114.868L240.996 115.236L240.976 115.256L193.993 164.742V162.711L199.32 139.486L207.825 126.575L217.335 117.128L301.892 78.4831L245.149 111.802L245.139 111.792ZM153.432 163.557L159.905 157.764L160.95 156.838L166.477 152.109L173.209 146.564L174.006 145.917L180.041 141.169L180.071 141.149L185.06 137.376L189.551 134.071L189.82 133.872L189.969 133.762L193.913 130.905L194.172 130.726L201.531 125.659L202.288 125.142L208.582 121L208.92 120.781L214.606 117.188L214.726 117.118L215.871 117.168L152.804 175.304L151.848 176.459L149.648 179.186L147.407 182.024L146.67 182.969L134.103 200.351H134.093L131.981 203.526L131.175 204.761L128.426 209.041L128.406 209.081V209.101L105.731 251.17L105.104 252.554L103.918 255.222L102.076 259.473L105.104 240.956L105.343 239.941L105.542 239.125L150.126 166.673L153.462 163.587L153.432 163.557ZM89.8771 237.323L91.6098 234.804L96.2106 228.184L96.4198 227.896L97.1368 226.9L100.602 222.192L103.182 218.757L103.431 218.429L103.809 217.931L107.145 213.561L107.205 213.491L112.473 206.911L113.05 206.194L117.791 200.52L117.87 200.43L123.427 194.049L124.513 192.815L128.576 188.345L129.123 187.758L129.163 187.718L134.999 181.546L135.696 180.819L140.984 175.463L145.505 171.063L147.327 169.321L104.606 238.746L104.586 238.816L104.367 239.712L104.128 240.737V240.757L100.582 262.359L95.7725 258.258L95.7227 258.208L89.887 237.333L89.8771 237.323ZM20.4369 461.218L20.4967 456.32L20.5166 455.235L20.7655 447.749L21.2236 439.188L21.383 436.52L21.6319 433.135L21.841 430.656L22.6377 422.344L22.7971 420.731L23.4842 414.818V414.719L23.6236 413.693L24.7888 405.252L24.9381 404.206L26.1132 396.83L27.1588 391.006L27.846 387.432V387.393L27.9456 386.925L29.29 380.165V380.126L31.1522 371.813L31.3613 370.887L33.1638 363.6V363.561L35.3845 355.338L35.6833 354.253L37.3264 348.588L37.7646 347.145L40.3239 339.022L40.6525 337.987L43.0525 330.899L45.9703 322.845L47.1753 319.6L48.1811 317.022L49.0375 314.851L52.3039 306.888L53.0707 305.046L54.3354 302.099L55.7097 298.993L59.1951 291.418L59.7528 290.213L62.8001 283.932L66.5644 276.515L66.8631 275.938L70.478 269.179V269.159L74.551 261.901L74.8398 261.384L78.7435 254.744V254.724L81.8406 249.707L84.1211 246.103L84.2804 245.844L84.6987 245.187L87.5667 240.718L87.6066 240.648L89.1103 238.388L94.7966 258.726L94.926 258.845L95.0555 258.965H95.0654L100.154 263.315L100.124 263.345L100.184 263.385L78.385 293.737L78.2954 293.886L76.9112 295.997L33.2136 387.592C33.2136 387.592 33.1937 387.632 33.1837 387.641V387.671L33.1638 387.691V387.721V387.741L33.0841 388.01L32.2675 390.747L20.7157 454.787L20.407 461.238L20.4369 461.218ZM37.3563 582.737L35.0061 574.534L34.6476 573.25L33.6717 569.636L32.8252 566.321L30.2758 555.55L29.0111 549.796V549.776L29.0012 549.697L27.4277 541.703L27.2385 540.737L25.8941 533.062L25.8443 532.754L24.5995 524.64L24.5099 523.983L23.6037 517.194L23.2651 514.337L22.578 507.827L22.4286 506.343L21.9406 501.346V501.316L21.8908 500.699V500.56L21.7216 498.588L21.4427 487.11L21.0543 470.446V470.307L21.7216 454.906V454.877L33.2534 390.956L33.4625 390.27C33.5721 392.131 33.7115 395.028 33.8609 398.751C34.6775 418.711 35.9621 462.631 37.0575 501.555C37.5953 521.017 38.0932 539.234 38.4517 552.584C38.7803 564.798 38.9895 572.941 39.0194 574.235V574.375V574.405V574.484L39.7164 590.143L37.3662 582.707L37.3563 582.737ZM55.1122 630.909L52.8018 625.513L51.089 621.392L50.8898 620.904L50.8699 620.844L48.5297 615.1L48.5097 615.04L45.4625 607.007L45.3031 606.569L42.5944 598.983L42.0467 597.371L42.0168 597.281L41.8675 596.833L40.8617 591.895L40.0052 574.584L93.5717 509.469L93.7111 510.684L93.9102 510.017L93.9401 510.136V510.156L124.562 592.174L124.791 592.652L126.932 597.122L127.56 598.416L129.263 601.87L130.268 603.881L131.314 605.942L132.977 609.177L133.485 610.153L163.838 661.45L56.3271 633.606L55.1221 630.909H55.1122ZM86.79 689.314L82.4481 682.495L82.1892 682.086L78.0166 675.267V675.247L77.9867 675.208L77.9369 675.128L73.7843 667.99L73.4855 667.463L69.7909 660.803V660.783L69.771 660.743V660.723L66.8432 655.188L65.6183 652.869L62.1827 646.03L62.1528 645.98L59.2649 639.908L56.8549 634.741L96.2704 644.955L163.799 662.446L163.719 662.515L164.396 662.635L164.436 663.182L164.685 662.983L214.616 765.857L187.759 783.616L94.8264 701.12L93.1733 698.761L86.79 689.314ZM308.355 853.579L305.706 852.932L303.884 852.474L301.255 851.787L299.462 851.309L296.764 850.563L295.081 850.085L292.143 849.229L290.719 848.811L286.377 847.467L281.109 845.735L279.894 845.316L274.736 843.505L274.138 843.286L269.458 841.534L268.322 841.106L263.303 839.115L263.234 839.085L262.078 838.607L259.17 837.392L257.687 836.755L254.948 835.561L253.514 834.924L250.437 833.52L249.421 833.052L245.378 831.131L244.462 830.683L241.365 829.15L239.981 828.443L237.322 827.079L236.913 826.86L235.888 826.323L233.169 824.869L231.914 824.192L228.021 822.022L220.163 817.393L215.821 814.795L215.503 814.606L208.512 810.206L208.223 810.016L205.674 808.354L200.067 804.621L192.738 799.534L185.627 794.348L184.791 793.74L178.637 789.042H178.617V789.022L174.225 785.528L169.395 781.585L165.282 778.191L165.113 778.041L158.58 772.367L158.262 772.089L152.277 766.683L152.167 766.583L152.127 766.544L145.873 760.64L145.097 759.904L139.799 754.687L139.699 754.588L133.784 748.525L133.395 748.127L129.641 744.155L127.948 742.313L122.282 736.012L121.445 735.076L118.936 732.199L116.745 729.611L111.387 723.13L110.73 722.334L106.139 716.54L101.09 709.89L100.413 708.985L97.2264 704.614L187.37 784.642L187.41 784.661L187.768 784.88L189.581 785.966L309.64 853.917L308.305 853.599L308.355 853.579ZM469.303 873.519C468.676 873.519 468.039 873.519 467.401 873.519H467.391C429.28 873.519 372.637 865.545 323.572 856.814L319.021 855.928L317.816 855.679L314.569 854.993L313.394 854.734L325.135 803.108L329.726 782.909L509.336 817.025L508.49 817.801L509.147 817.562L472.58 868.9L469.552 870.701L332.335 783.825L331.817 784.642L469.532 871.836L471.186 870.851L469.284 873.519H469.303ZM543.155 859.562L539.471 860.577L537.3 861.175L531.105 862.807L527.341 863.763L526.993 863.842L522.75 864.848L522.561 864.888L509.755 867.605L498.502 869.666L498.302 869.696L486.721 871.478L486.611 871.498L482.668 872.015L478.156 872.553V872.503L476.722 872.682L472.351 873.2L470.558 873.399L473.247 869.626L645.07 767.37L610.086 830.991L544.3 859.243L543.135 859.572L543.155 859.562ZM698.108 775.702L694.155 779.097L687.423 784.642L686.487 785.398L681.777 789.121L680.592 790.037H680.572L673.521 795.353L672.575 796.05L668.014 799.355L666.431 800.48L666.391 800.51L660.904 804.292L658.235 806.124L651.702 810.415L644.014 815.223L642.501 816.149L637.472 819.145L636.296 819.822L628.27 824.371L627.404 824.859L621.448 828.065L620.214 828.712L616.927 830.384L611.032 833.371L605.515 836.039L603.334 837.064L594.431 841.076L593.704 841.404L585.508 844.859L579.882 847.088L571.835 850.184L571.656 850.254L567.902 851.598L567.255 851.827L566.518 852.086L557.047 855.281L552.855 856.585L610.773 831.718L646.295 767.111L646.344 767.211L646.653 766.514L689.086 768.574L690.47 768.754L690.829 768.803L691.835 768.943L692.273 769.012L693.209 769.162L693.647 769.231L694.603 769.401L694.872 769.45L695.738 769.62L696.027 769.679L697.889 770.117L698.079 770.167L698.815 770.376L698.915 770.406L699.582 770.625L699.941 770.755L700.09 770.814L702.142 771.949L702.112 772.089L702.002 772.317L701.564 772.706L701.365 772.885L698.138 775.682L698.108 775.702ZM799.495 642.357L798.3 645.194L794.148 654.462L792.136 658.245L790.104 662.037L786.021 669.304L785.514 670.2L781.829 676.462L777.457 683.56L777.109 684.117L772.956 690.568L768.286 697.497L767.887 698.084L763.486 704.336L759.492 709.771L757.152 712.877L753.487 717.665L753.428 717.745V717.765L749.743 722.374L747.592 725.052L742.872 730.706L742.792 730.806L737.215 737.207L732.017 742.961L731.718 743.279L729.995 745.111L725.653 749.69L724.518 750.885L720.027 755.424L719.678 755.772L713.494 761.785L712.757 762.492L707.2 767.669L703.267 771.212L703.068 771.392L700.488 769.968L700.279 769.888L699.901 769.749L699.214 769.53H699.204L699.094 769.49L698.357 769.281L698.168 769.231H698.148L696.246 768.783L695.967 768.724L695.101 768.555L694.832 768.505L693.876 768.335L693.438 768.266L692.502 768.117L692.064 768.047L691.058 767.897L690.699 767.848L689.315 767.669H689.305H689.285L648.057 765.658L708.206 729.332L759.94 688.697L760.488 688.179L761.564 687.164L799.366 642.158L800.232 640.734L799.565 642.386L799.495 642.357ZM798.509 641.56L760.787 686.477L759.751 687.452L759.233 687.94L707.579 728.516L647.44 764.841L707.499 629.813L707.3 627.255L760.687 683.331L761.384 682.664L707.32 625.871L707.181 625.762L695.151 467.918L695.171 467.798L787.356 548.044L804.435 628.888L802.363 635.209L798.509 641.57V641.56ZM806.785 621.73L805.042 627.046L788.232 547.517L695.41 466.703L695.898 466.076L695.41 466.116L695.489 465.578L702.241 455.056L703.267 453.433L703.287 453.393L754.891 348.041L762.39 359.151L818.117 494.835L806.775 621.73H806.785ZM827.439 558.248L827.379 558.507L827.01 560.179L808.119 617.659L819.103 494.676L763.247 358.673L755.449 347.115L784.358 318.356L795.721 293.07L823.913 371.106L824.053 371.664L824.332 372.769L836.57 459.874L827.429 558.228L827.439 558.248Z" fill="#6EFFFF"/>
<g style="mix-blend-mode:screen">
<path d="M530.273 771.882C530.273 763.356 537.18 756.451 545.71 756.451C554.239 756.451 561.146 763.356 561.146 771.882C561.146 780.409 554.239 787.313 545.71 787.313C537.18 787.313 530.273 780.409 530.273 771.882Z" fill="#6EFFFF"/>
</g>
<g style="mix-blend-mode:screen">
<path d="M202.936 309.005C202.936 300.479 209.843 293.574 218.373 293.574C226.902 293.574 233.809 300.479 233.809 309.005C233.809 317.532 226.902 324.436 218.373 324.436C209.843 324.436 202.936 317.532 202.936 309.005Z" fill="#6EFFFF"/>
</g>
<g style="mix-blend-mode:screen">
<path d="M727.287 180.183C727.287 171.657 734.194 164.752 742.723 164.752C751.253 164.752 758.16 171.657 758.16 180.183C758.16 188.71 751.253 195.614 742.723 195.614C734.194 195.614 727.287 188.71 727.287 180.183Z" fill="#6EFFFF"/>
</g>
<g style="mix-blend-mode:screen">
<path d="M759.308 476.078C759.308 467.551 766.215 460.646 774.745 460.646C783.274 460.646 790.181 467.551 790.181 476.078C790.181 484.604 783.274 491.509 774.745 491.509C766.215 491.509 759.308 484.604 759.308 476.078Z" fill="#6EFFFF"/>
</g>
<g style="mix-blend-mode:screen">
<path d="M316.142 726.94C316.142 718.413 323.049 711.509 331.579 711.509C340.108 711.509 347.015 718.413 347.015 726.94C347.015 735.466 340.108 742.371 331.579 742.371C323.049 742.371 316.142 735.466 316.142 726.94Z" fill="#6EFFFF"/>
</g>
<g style="mix-blend-mode:screen">
<path d="M542.542 198.036C542.542 189.509 549.449 182.604 557.978 182.604C566.508 182.604 573.415 189.509 573.415 198.036C573.415 206.562 566.508 213.467 557.978 213.467C549.449 213.467 542.542 206.562 542.542 198.036Z" fill="#6EFFFF"/>
</g>
<g style="mix-blend-mode:screen">
<path d="M412.762 15.4311C412.762 6.90456 419.669 0 428.199 0C436.728 0 443.635 6.90456 443.635 15.4311C443.635 23.9576 436.728 30.8622 428.199 30.8622C419.669 30.8622 412.762 23.9576 412.762 15.4311Z" fill="#6EFFFF"/>
</g>
<g style="mix-blend-mode:screen">
<path d="M79.1958 524.59C79.1958 516.064 86.1028 509.159 94.6324 509.159C103.162 509.159 110.069 516.064 110.069 524.59C110.069 533.117 103.162 540.021 94.6324 540.021C86.1028 540.021 79.1958 533.117 79.1958 524.59Z" fill="#6EFFFF"/>
</g>
<g style="mix-blend-mode:screen">
<path d="M414.647 567.529C426.275 565.642 434.171 554.69 432.284 543.066C430.396 531.443 419.44 523.549 407.812 525.436C396.184 527.323 388.288 538.275 390.176 549.899C392.063 561.523 403.02 569.416 414.647 567.529Z" fill="#6EFFFF"/>
</g>
<g style="mix-blend-mode:screen">
<path d="M556.311 871.969C556.311 867.092 560.266 863.139 565.145 863.139C570.024 863.139 573.979 867.092 573.979 871.969C573.979 876.846 570.024 880.8 565.145 880.8C560.266 880.8 556.311 876.846 556.311 871.969Z" fill="#6EFFFF"/>
</g>
<g style="mix-blend-mode:screen">
<path d="M523.262 944.926C527.769 943.059 529.91 937.894 528.043 933.388C526.176 928.882 521.008 926.743 516.501 928.609C511.993 930.475 509.853 935.641 511.72 940.147C513.587 944.652 518.754 946.792 523.262 944.926Z" fill="#6EFFFF"/>
</g>
<g style="mix-blend-mode:screen">
<path d="M345.918 923.553C350.426 921.686 352.566 916.521 350.699 912.015C348.832 907.509 343.664 905.369 339.157 907.236C334.65 909.102 332.509 914.268 334.376 918.774C336.243 923.279 341.411 925.419 345.918 923.553Z" fill="#6EFFFF"/>
</g>
<g style="mix-blend-mode:screen">
<path d="M107.398 251.059C111.905 249.193 114.045 244.027 112.178 239.522C110.311 235.016 105.144 232.876 100.636 234.742C96.1291 236.609 93.9886 241.775 95.8557 246.28C97.7227 250.786 102.89 252.926 107.398 251.059Z" fill="#6EFFFF"/>
</g>
<g style="mix-blend-mode:screen">
<path d="M177.113 703.293C181.861 702.173 184.802 697.417 183.681 692.67C182.56 687.924 177.802 684.984 173.054 686.104C168.306 687.225 165.365 691.981 166.486 696.727C167.606 701.474 172.364 704.414 177.113 703.293Z" fill="#6EFFFF"/>
</g>
<g style="mix-blend-mode:screen">
<path d="M721.94 822.044C726.688 820.924 729.629 816.168 728.508 811.421C727.387 806.675 722.63 803.735 717.881 804.855C713.133 805.976 710.192 810.732 711.313 815.478C712.434 820.225 717.191 823.165 721.94 822.044Z" fill="#6EFFFF"/>
</g>
<g style="mix-blend-mode:screen">
<path d="M728.807 618.798C728.807 613.921 732.762 609.968 737.641 609.968C742.52 609.968 746.475 613.921 746.475 618.798C746.475 623.675 742.52 627.629 737.641 627.629C732.762 627.629 728.807 623.675 728.807 618.798Z" fill="#6EFFFF"/>
</g>
<g style="mix-blend-mode:screen">
<path d="M787.572 664.576C792.08 662.71 794.22 657.544 792.353 653.038C790.486 648.533 785.319 646.393 780.811 648.259C776.304 650.126 774.163 655.291 776.03 659.797C777.897 664.303 783.065 666.442 787.572 664.576Z" fill="#6EFFFF"/>
</g>
<g style="mix-blend-mode:screen">
<path d="M365.764 842.237C370.271 840.371 372.412 835.205 370.545 830.699C368.678 826.194 363.51 824.054 359.003 825.92C354.495 827.787 352.355 832.952 354.222 837.458C356.089 841.964 361.256 844.104 365.764 842.237Z" fill="#6EFFFF"/>
</g>
<g style="mix-blend-mode:screen">
<path d="M236.785 820.942C241.292 819.076 243.432 813.91 241.565 809.404C239.698 804.898 234.531 802.759 230.023 804.625C225.516 806.492 223.376 811.657 225.243 816.163C227.11 820.669 232.277 822.808 236.785 820.942Z" fill="#6EFFFF"/>
</g>
<g style="mix-blend-mode:screen">
<path d="M304.716 602.604C309.223 600.737 311.364 595.571 309.497 591.066C307.63 586.56 302.462 584.42 297.955 586.287C293.447 588.153 291.307 593.319 293.174 597.824C295.041 602.33 300.209 604.47 304.716 602.604Z" fill="#6EFFFF"/>
</g>
<g style="mix-blend-mode:screen">
<path d="M449.997 603.971C454.505 602.104 456.645 596.939 454.778 592.433C452.911 587.927 447.744 585.787 443.236 587.654C438.729 589.52 436.588 594.686 438.455 599.192C440.322 603.697 445.49 605.837 449.997 603.971Z" fill="#6EFFFF"/>
</g>
<g style="mix-blend-mode:screen">
<path d="M660.142 615.036C660.142 610.159 664.097 606.205 668.976 606.205C673.855 606.205 677.81 610.159 677.81 615.036C677.81 619.913 673.855 623.866 668.976 623.866C664.097 623.866 660.142 619.913 660.142 615.036Z" fill="#6EFFFF"/>
</g>
<g style="mix-blend-mode:screen">
<path d="M900.315 674.11C904.822 672.244 906.962 667.078 905.095 662.572C903.228 658.067 898.061 655.927 893.553 657.793C889.046 659.66 886.906 664.825 888.773 669.331C890.64 673.837 895.807 675.977 900.315 674.11Z" fill="#6EFFFF"/>
</g>
<g style="mix-blend-mode:screen">
<path d="M851.681 729.489C856.429 728.369 859.37 723.613 858.249 718.866C857.128 714.12 852.371 711.18 847.622 712.3C842.874 713.421 839.933 718.177 841.054 722.923C842.175 727.67 846.932 730.61 851.681 729.489Z" fill="#6EFFFF"/>
</g>
<g style="mix-blend-mode:screen">
<path d="M681.204 754.795C685.712 752.928 687.852 747.763 685.985 743.257C684.118 738.751 678.951 736.612 674.443 738.478C669.936 740.344 667.795 745.51 669.662 750.016C671.529 754.521 676.697 756.661 681.204 754.795Z" fill="#6EFFFF"/>
</g>
<g style="mix-blend-mode:screen">
<path d="M833.574 340.577C833.574 335.7 837.529 331.746 842.408 331.746C847.286 331.746 851.241 335.7 851.241 340.577C851.241 345.454 847.286 349.407 842.408 349.407C837.529 349.407 833.574 345.454 833.574 340.577Z" fill="#6EFFFF"/>
</g>
<g style="mix-blend-mode:screen">
<path d="M477.324 44.2363C481.832 42.37 483.972 37.2043 482.105 32.6985C480.238 28.1928 475.071 26.0531 470.563 27.9194C466.056 29.7858 463.915 34.9514 465.782 39.4572C467.649 43.963 472.817 46.1027 477.324 44.2363Z" fill="#6EFFFF"/>
</g>
<g style="mix-blend-mode:screen">
<path d="M892.122 286.19C896.63 284.324 898.77 279.158 896.903 274.653C895.036 270.147 889.869 268.007 885.361 269.874C880.854 271.74 878.713 276.906 880.581 281.411C882.448 285.917 887.615 288.057 892.122 286.19Z" fill="#6EFFFF"/>
</g>
<g style="mix-blend-mode:screen">
<path d="M327.77 31.7191C327.77 26.842 331.725 22.8885 336.604 22.8885C341.483 22.8885 345.438 26.842 345.438 31.7191C345.438 36.5962 341.483 40.5498 336.604 40.5498C331.725 40.5498 327.77 36.5962 327.77 31.7191Z" fill="#6EFFFF"/>
</g>
<g style="mix-blend-mode:screen">
<path d="M592.988 27.2476C592.988 22.3705 596.943 18.417 601.822 18.417C606.7 18.417 610.655 22.3705 610.655 27.2476C610.655 32.1248 606.7 36.0783 601.822 36.0783C596.943 36.0783 592.988 32.1248 592.988 27.2476Z" fill="#6EFFFF"/>
</g>
<g style="mix-blend-mode:screen">
<path d="M784.348 132.488C788.855 130.622 790.996 125.456 789.129 120.95C787.262 116.445 782.094 114.305 777.587 116.171C773.079 118.038 770.939 123.203 772.806 127.709C774.673 132.215 779.84 134.355 784.348 132.488Z" fill="#6EFFFF"/>
</g>
<g style="mix-blend-mode:screen">
<path d="M512.375 20.5961C517.217 20.0001 520.659 15.5929 520.063 10.7524C519.466 5.91197 515.058 2.47119 510.215 3.06724C505.373 3.66329 501.931 8.07045 502.527 12.9109C503.124 17.7514 507.532 21.1922 512.375 20.5961Z" fill="#6EFFFF"/>
</g>
<g style="mix-blend-mode:screen">
<path d="M212.921 143.808C217.428 141.941 219.569 136.776 217.702 132.27C215.835 127.764 210.667 125.624 206.16 127.491C201.653 129.357 199.512 134.523 201.379 139.028C203.246 143.534 208.414 145.674 212.921 143.808Z" fill="#6EFFFF"/>
</g>
<g style="mix-blend-mode:screen">
<path d="M234.487 88.5698C239.329 87.9737 242.771 83.5665 242.175 78.7261C241.579 73.8856 237.17 70.4448 232.328 71.0409C227.485 71.6369 224.043 76.0441 224.64 80.8846C225.236 85.725 229.645 89.1658 234.487 88.5698Z" fill="#6EFFFF"/>
</g>
<g style="mix-blend-mode:screen">
<path d="M78.3296 221.623C78.3296 216.746 82.2845 212.792 87.1634 212.792C92.0422 212.792 95.9972 216.746 95.9972 221.623C95.9972 226.5 92.0422 230.453 87.1634 230.453C82.2845 230.453 78.3296 226.5 78.3296 221.623Z" fill="#6EFFFF"/>
</g>
<g style="mix-blend-mode:screen">
<path d="M24.187 615.036C24.187 610.159 28.1419 606.205 33.0208 606.205C37.8997 606.205 41.8546 610.159 41.8546 615.036C41.8546 619.913 37.8997 623.866 33.0208 623.866C28.1419 623.866 24.187 619.913 24.187 615.036Z" fill="#6EFFFF"/>
</g>
<g style="mix-blend-mode:screen">
<path d="M163.974 501.076C168.481 499.21 170.622 494.044 168.755 489.538C166.888 485.032 161.72 482.893 157.213 484.759C152.705 486.626 150.565 491.791 152.432 496.297C154.299 500.803 159.466 502.942 163.974 501.076Z" fill="#6EFFFF"/>
</g>
<g style="mix-blend-mode:screen">
<path d="M134.701 435.376C139.45 434.256 142.39 429.5 141.27 424.753C140.149 420.007 135.391 417.067 130.643 418.187C125.895 419.308 122.954 424.064 124.075 428.81C125.195 433.557 129.953 436.497 134.701 435.376Z" fill="#6EFFFF"/>
</g>
<g style="mix-blend-mode:screen">
<path d="M15.2394 473.908C19.7468 472.042 21.8872 466.876 20.0202 462.37C18.1531 457.865 12.9857 455.725 8.47826 457.591C3.97086 459.458 1.8304 464.623 3.69743 469.129C5.56446 473.635 10.732 475.774 15.2394 473.908Z" fill="#6EFFFF"/>
</g>
<g style="mix-blend-mode:screen">
<path d="M17.854 386.96C17.854 382.083 21.8089 378.129 26.6878 378.129C31.5667 378.129 35.5216 382.083 35.5216 386.96C35.5216 391.837 31.5667 395.79 26.6878 395.79C21.8089 395.79 17.854 391.837 17.854 386.96Z" fill="#6EFFFF"/>
</g>
<g style="mix-blend-mode:screen">
<path d="M80.2945 386.887C85.1367 386.291 88.5787 381.884 87.9825 377.043C87.3862 372.203 82.9775 368.762 78.1353 369.358C73.2931 369.954 69.851 374.362 70.4473 379.202C71.0436 384.042 75.4523 387.483 80.2945 386.887Z" fill="#6EFFFF"/>
</g>
<g style="mix-blend-mode:screen">
<path d="M55.3204 673.404C59.8278 671.538 61.9683 666.372 60.1012 661.866C58.2342 657.361 53.0667 655.221 48.5593 657.087C44.0519 658.954 41.9115 664.119 43.7785 668.625C45.6455 673.131 50.813 675.271 55.3204 673.404Z" fill="#6EFFFF"/>
</g>
<g style="mix-blend-mode:screen">
<path d="M87.1724 742.822C87.1724 737.945 91.1273 733.991 96.0062 733.991C100.885 733.991 104.84 737.945 104.84 742.822C104.84 747.699 100.885 751.652 96.0062 751.652C91.1273 751.652 87.1724 747.699 87.1724 742.822Z" fill="#6EFFFF"/>
</g>
<g style="mix-blend-mode:screen">
<path d="M707.424 317.161C711.931 315.295 714.072 310.129 712.205 305.623C710.338 301.117 705.17 298.978 700.663 300.844C696.155 302.711 694.015 307.876 695.882 312.382C697.749 316.888 702.917 319.027 707.424 317.161Z" fill="#6EFFFF"/>
</g>
<g style="mix-blend-mode:screen">
<path d="M355.332 115.362C355.332 110.485 359.287 106.531 364.165 106.531C369.044 106.531 372.999 110.485 372.999 115.362C372.999 120.239 369.044 124.193 364.165 124.193C359.287 124.193 355.332 120.239 355.332 115.362Z" fill="#6EFFFF"/>
</g>
<g style="mix-blend-mode:screen">
<path d="M775.094 821.632C775.094 816.755 779.049 812.802 783.928 812.802C788.807 812.802 792.762 816.755 792.762 821.632C792.762 826.51 788.807 830.463 783.928 830.463C779.049 830.463 775.094 826.51 775.094 821.632Z" fill="#6EFFFF"/>
</g>
<g style="mix-blend-mode:screen">
<path d="M682.676 896.682C687.183 894.815 689.324 889.65 687.457 885.144C685.59 880.638 680.422 878.498 675.915 880.365C671.407 882.231 669.267 887.397 671.134 891.902C673.001 896.408 678.169 898.548 682.676 896.682Z" fill="#6EFFFF"/>
</g>
</g>
<path d="M358.862 283.18C325.444 290.075 267.203 322.326 301.575 396.162C333.931 391.388 390.687 362.108 358.862 283.18Z" fill="#6EFFFF"/>
<path d="M567.135 331.971C561.66 309.621 537.872 271.061 486.515 295.618C490.476 317.295 512.145 354.914 567.135 331.971Z" fill="#6EFFFF"/>
<path d="M423.176 501.2C426.707 478.462 419.557 433.722 362.707 436.667C358.037 458.202 363.592 501.259 423.176 501.2Z" fill="#6EFFFF"/>
<path d="M478.801 620.865C456.634 604.839 405.689 588.064 379.245 649.179C399.551 665.746 447.889 683.276 478.801 620.865Z" fill="#6EFFFF"/>
<path d="M435.853 462.761C450.635 445.2 468.044 404.046 419.418 379.922C404.319 395.934 386.468 434.919 435.853 462.761Z" fill="#6EFFFF"/>
<path d="M473.881 482.429C485.566 501.773 518.883 530.977 558.669 493.041C548.573 473.887 517.481 444.949 473.881 482.429Z" fill="#6EFFFF"/>
<path d="M575.355 571.487C573.846 590.64 582.557 627.407 629.473 621.252C632 603.026 624.716 567.556 575.355 571.487Z" fill="#6EFFFF"/>
<path d="M507.65 638.157C488.439 637.877 452.305 648.923 461.451 695.349C479.802 696.705 514.733 687.165 507.65 638.157Z" fill="#6EFFFF"/>
<path d="M450.308 248.439C445.011 261.622 443.609 290.119 480.387 298.646C486.253 286.402 488.45 259.217 450.308 248.439Z" fill="#6EFFFF"/>
<path d="M439.718 230.896C426.522 232.636 402.55 244.799 412.225 279.535C424.91 278.709 448.167 267.826 439.718 230.896Z" fill="#6EFFFF"/>
<path d="M384.588 243.951C374.741 252.19 361.578 274.817 387.7 299.41C397.611 292.21 410.863 271.038 384.588 243.951Z" fill="#6EFFFF"/>
<path d="M518.018 228.42C514.716 238.806 515.574 260.993 545.421 266.649C549.24 256.976 549.106 235.789 518.018 228.42Z" fill="#6EFFFF"/>
<path d="M480.207 226.843C472.589 224.893 457.275 225.671 456.971 244.386C464.157 246.667 478.864 246.352 480.207 226.843Z" fill="#6EFFFF"/>
<path d="M508.802 225.787C501.234 226.577 487.642 232.289 493.824 248.813C501.115 248.455 514.318 243.35 508.802 225.787Z" fill="#6EFFFF"/>
<path d="M419.909 292.87C411.834 295.047 398.062 303.765 407.57 321.217C415.416 319.572 428.869 311.6 419.909 292.87Z" fill="#6EFFFF"/>
<path d="M539.073 272.192C537.927 279.07 540.456 293.016 559.739 293.78C561.274 287.305 559.29 273.922 539.073 272.192Z" fill="#6EFFFF"/>
<path d="M523.743 629.934C528.659 634.879 541.459 640.966 553.334 625.755C548.973 620.729 536.949 614.528 523.743 629.934Z" fill="#6EFFFF"/>
<path d="M525.815 444.586C517.943 441.763 501.66 441.056 499.5 460.812C506.881 463.942 522.478 465.078 525.815 444.586Z" fill="#6EFFFF"/>
<path d="M482.208 411.052C479.481 403.146 469.839 390.005 453.081 400.689C455.261 408.404 464.138 421.277 482.208 411.052Z" fill="#6EFFFF"/>
<path d="M537.597 591.062C529.578 593.433 516.02 602.48 525.946 619.698C533.75 617.864 547.007 609.57 537.597 591.062Z" fill="#6EFFFF"/>
<path d="M612.409 639.895C609.572 630.761 599.354 615.428 581.176 627.173C583.426 636.072 592.824 651.076 612.409 639.895Z" fill="#6EFFFF"/>
<path d="M672.914 535.267C672.817 525.802 666.394 507.891 641.485 511.965C640.991 520.996 646.586 538.3 672.914 535.267Z" fill="#6EFFFF"/>
<path d="M370.667 401.078C362.593 403.255 348.821 411.972 358.328 429.425C366.175 427.78 379.628 419.807 370.667 401.078Z" fill="#6EFFFF"/>
<path d="M341.268 640.314C335.678 641.577 325.745 648.19 330.73 664.531C336.125 663.722 345.784 657.746 341.268 640.314Z" fill="#6EFFFF"/>
<path d="M380.254 658.943C375.603 663.165 369.595 674.408 382.772 685.601C387.472 681.877 393.55 671.333 380.254 658.943Z" fill="#6EFFFF"/>
<path d="M396.993 671.215C394.591 676.941 393.246 688.803 407.082 690.449C409.675 685.082 411.287 673.723 396.993 671.215Z" fill="#6EFFFF"/>
<path d="M375.602 648.655C368.088 645.981 351.584 646.281 345.677 668.874C352.632 671.93 368.353 672.164 375.602 648.655Z" fill="#6EFFFF"/>
<path d="M370.746 576.313C364.203 578.396 353.101 586.951 361.033 604.499C367.396 602.944 378.247 595.131 370.746 576.313Z" fill="#6EFFFF"/>
<path d="M302.233 585.076C298.053 590.068 293.605 602.804 309.249 613.809C313.562 609.355 318.198 597.372 302.233 585.076Z" fill="#6EFFFF"/>
<path d="M368.376 545.359C364.532 554.659 362.832 574.275 386.781 578.338C390.973 569.653 393.16 550.899 368.376 545.359Z" fill="#6EFFFF"/>
<path d="M552.115 553.733C542.154 552.3 522.724 555.488 524.689 579.699C534.139 581.621 552.854 579.118 552.115 553.733Z" fill="#6EFFFF"/>
<path d="M641.752 537.885C635.539 548.015 629.744 570.347 656.275 578.637C662.764 569.269 668.946 548.003 641.752 537.885Z" fill="#6EFFFF"/>
<path d="M563.41 416.917C552.347 412.578 529.345 410.791 525.839 438.365C536.2 443.11 558.221 445.464 563.41 416.917Z" fill="#6EFFFF"/>
<path d="M522.467 663.942C515.655 665.936 504.064 674.022 512.197 690.419C518.819 688.922 530.144 681.532 522.467 663.942Z" fill="#6EFFFF"/>
<path d="M574.233 421.414C568.695 427.68 562.006 442.544 579.556 451.868C585.198 446.172 592.031 432.106 574.233 421.414Z" fill="#6EFFFF"/>
<path d="M614.099 286.34C608.528 290.071 600.327 300.304 612.089 311.383C617.624 308.121 625.777 298.545 614.099 286.34Z" fill="#6EFFFF"/>
<path d="M634.649 280.199C628.278 282.289 617.619 289.929 625.955 303.771C632.166 302.124 642.599 295.103 634.649 280.199Z" fill="#6EFFFF"/>
<path d="M602.026 265.882C601.94 272.587 605.718 285.145 621.514 281.74C621.966 275.33 618.701 263.185 602.026 265.882Z" fill="#6EFFFF"/>
<path d="M577.01 293.098C578.878 299.538 586.144 310.455 600.267 302.604C598.836 296.34 592.181 285.669 577.01 293.098Z" fill="#6EFFFF"/>
<path d="M543.393 353.861C549.626 356.334 562.705 357.287 565.161 341.316C559.335 338.606 546.825 337.321 543.393 353.861Z" fill="#6EFFFF"/>
<path d="M439.197 316.369C438.147 321.685 439.521 332.372 453.423 332.591C454.742 327.577 453.743 317.313 439.197 316.369Z" fill="#6EFFFF"/>
<path d="M430.935 325.274C426.824 328.804 421.299 338.055 432.093 346.819C436.228 343.692 441.786 335.006 430.935 325.274Z" fill="#6EFFFF"/>
<path d="M371.664 306.851C371.489 312.267 374.575 322.591 388.329 320.555C388.819 315.394 386.171 305.427 371.664 306.851Z" fill="#6EFFFF"/>
<path d="M313.373 447.483C317.811 450.593 328.142 453.655 333.96 441.027C329.907 437.795 320.115 434.56 313.373 447.483Z" fill="#6EFFFF"/>
<path d="M326.284 429.213C330.273 432.881 340.11 437.279 347.543 425.529C343.952 421.79 334.672 417.293 326.284 429.213Z" fill="#6EFFFF"/>
<path d="M300.567 429.129C303.752 433.514 312.523 439.772 322.135 429.726C319.355 425.35 311.149 419.105 300.567 429.129Z" fill="#6EFFFF"/>
<path d="M292.263 399.067C290.846 404.298 291.476 415.055 305.33 416.236C306.993 411.326 306.708 401.018 292.263 399.067Z" fill="#6EFFFF"/>
<path d="M392.388 407.449C387.114 408.695 377.955 414.372 383.515 427.116C388.625 426.24 397.553 421.079 392.388 407.449Z" fill="#6EFFFF"/>
<path d="M475.562 428.824C474.712 423.472 469.733 413.917 456.61 418.511C457.104 423.672 461.584 432.959 475.562 428.824Z" fill="#6EFFFF"/>
<path d="M484.099 515.779C486.202 510.785 487.017 500.04 473.446 497.016C471.141 501.66 470.045 511.914 484.099 515.779Z" fill="#6EFFFF"/>
<path d="M601.159 364.921C606.119 362.739 614.095 355.494 606.316 343.971C601.451 345.759 593.607 352.454 601.159 364.921Z" fill="#6EFFFF"/>
<path d="M520.157 524.509C523.318 528.911 532.055 535.217 541.721 525.224C538.965 520.833 530.794 514.543 520.157 524.509Z" fill="#6EFFFF"/>
<path d="M531.909 548.089C536.836 550.113 547.417 550.807 550.329 537.391C545.747 535.165 535.647 534.188 531.909 548.089Z" fill="#6EFFFF"/>
<path d="M562.414 576.267C567.634 575.212 576.817 569.91 571.784 557.137C566.737 557.832 557.797 562.632 562.414 576.267Z" fill="#6EFFFF"/>
<path d="M607.651 566.634C607.477 561.311 603.772 551.376 590.341 554.22C590.189 559.312 593.439 568.924 607.651 566.634Z" fill="#6EFFFF"/>
<path d="M455.675 594.627C452.04 590.734 442.711 585.695 434.473 596.677C437.711 600.61 446.485 605.706 455.675 594.627Z" fill="#6EFFFF"/>
<path d="M360.405 568.947C360.628 563.625 357.674 553.441 344.069 555.276C343.538 560.343 346.062 570.171 360.405 568.947Z" fill="#6EFFFF"/>
<path d="M351.256 552.927C355.924 550.362 363.105 542.561 354.49 531.873C349.88 534.042 342.781 541.291 351.256 552.927Z" fill="#6EFFFF"/>
<path d="M364.857 612.089C369.852 613.935 380.451 614.25 382.881 600.738C378.222 598.677 368.094 598.063 364.857 612.089Z" fill="#6EFFFF"/>
<path d="M627.894 644.04C630.216 639.247 631.558 628.728 618.345 624.998C615.842 629.436 614.248 639.456 627.894 644.04Z" fill="#6EFFFF"/>
<path d="M521.219 657.346C526.126 655.274 534.072 648.252 526.6 636.735C521.792 638.42 513.985 644.9 521.219 657.346Z" fill="#6EFFFF"/>
<path d="M511.347 589.846C513.927 593.364 521.12 598.347 529.252 590.146C527.008 586.632 520.284 581.654 511.347 589.846Z" fill="#6EFFFF"/>
<path d="M635.507 604.018C640.765 604.865 651.225 603.13 651.004 589.403C646.035 588.28 635.978 589.63 635.507 604.018Z" fill="#6EFFFF"/>
<path d="M624.915 579.701C627.135 582.73 634.303 586.941 645.208 579.56C643.367 576.528 636.732 572.311 624.915 579.701Z" fill="#6EFFFF"/>
<path d="M615.922 574.139C619.484 575.109 627.11 574.37 629.12 563.658C625.805 562.49 618.524 562.952 615.922 574.139Z" fill="#6EFFFF"/>
<path d="M604.547 515.334C604.982 511.668 603.129 504.234 592.237 503.823C591.57 507.274 593.098 514.407 604.547 515.334Z" fill="#6EFFFF"/>
<path d="M496.339 636.273C496.774 632.607 494.921 625.173 484.029 624.762C483.362 628.213 484.891 635.347 496.339 636.273Z" fill="#6EFFFF"/>
<path d="M669.132 494.886C665.84 493.216 658.222 492.395 654.086 502.48C657.096 504.294 664.32 505.315 669.132 494.886Z" fill="#6EFFFF"/>
<path d="M656.389 469.422C653.098 467.752 645.48 466.931 641.344 477.016C644.354 478.83 651.578 479.852 656.389 469.422Z" fill="#6EFFFF"/>
<path d="M450.536 671.073C454.225 670.942 461.288 667.973 460.028 657.147C456.515 657.016 449.7 659.617 450.536 671.073Z" fill="#6EFFFF"/>
<path d="M467.932 609.097C470.519 606.464 473.602 599.449 465.238 592.46C462.599 594.782 459.444 601.36 467.932 609.097Z" fill="#6EFFFF"/>
<path d="M493.397 462.703C495.984 460.069 499.067 453.055 490.703 446.066C488.064 448.388 484.908 454.965 493.397 462.703Z" fill="#6EFFFF"/>
<path d="M367.735 274.356C366.08 271.056 360.44 265.87 351.121 271.524C352.464 274.772 357.668 279.886 367.735 274.356Z" fill="#6EFFFF"/>
<path d="M426.228 360.475C422.748 359.245 415.088 359.421 412.295 369.957C415.516 371.365 422.811 371.44 426.228 360.475Z" fill="#6EFFFF"/>
<path d="M400.276 315.986C401.085 312.384 400.006 304.799 389.214 303.271C388.196 306.635 388.983 313.888 400.276 315.986Z" fill="#6EFFFF"/>
<path d="M384.637 619.795C388.315 620.115 395.687 618.029 395.756 607.13C392.285 606.572 385.203 608.324 384.637 619.795Z" fill="#6EFFFF"/>
<path d="M343.758 614.421C347.142 615.896 354.795 616.268 358.333 605.958C355.221 604.323 347.95 603.727 343.758 614.421Z" fill="#6EFFFF"/>
<path d="M281.668 582.513C285.052 583.987 292.705 584.359 296.243 574.05C293.131 572.415 285.86 571.819 281.668 582.513Z" fill="#6EFFFF"/>
<path d="M292.573 632.036C296.226 632.57 303.707 630.917 304.411 620.04C300.979 619.281 293.807 620.617 292.573 632.036Z" fill="#6EFFFF"/>
<path d="M580.427 307.452C577.252 305.569 569.705 304.249 564.914 314.04C567.799 316.048 574.94 317.542 580.427 307.452Z" fill="#6EFFFF"/>
<path d="M571.214 289.573C567.594 288.852 560.037 290.116 558.774 300.942C562.162 301.878 569.393 300.913 571.214 289.573Z" fill="#6EFFFF"/>
<path d="M628.505 330.945C624.884 330.224 617.328 331.488 616.064 342.314C619.452 343.25 626.684 342.285 628.505 330.945Z" fill="#6EFFFF"/>
<path d="M635.507 623.12C640.765 623.968 651.225 622.232 651.004 608.505C646.035 607.382 635.978 608.733 635.507 623.12Z" fill="#6EFFFF"/>
<path d="M464.464 506.472C461.096 498.908 450.236 486.774 433.742 498.755C436.534 506.178 446.587 518.114 464.464 506.472Z" fill="#6EFFFF"/>
<path d="M582.226 347.456C576.014 353.439 568.012 368.448 585.697 380.625C591.977 375.263 600.074 361.123 582.226 347.456Z" fill="#6EFFFF"/>
<path d="M538.791 449.311C541.531 458.378 552.452 473.751 574.222 462.704C572.147 453.884 562.157 438.858 538.791 449.311Z" fill="#6EFFFF"/>
<path d="M346.289 436.807C338.274 441.856 326.353 456.467 342.782 474.523C350.735 470.181 362.57 456.56 346.289 436.807Z" fill="#6EFFFF"/>
<path d="M597.443 434.797C595.059 442.812 595.252 459.11 615.098 460.175C617.815 452.633 618.088 436.997 597.443 434.797Z" fill="#6EFFFF"/>
<path d="M629.986 446.673C623.928 452.473 616.117 467.094 633.345 479.173C639.47 473.981 647.373 460.212 629.986 446.673Z" fill="#6EFFFF"/>
<path d="M652.422 491.926C645.408 484.59 628.323 474.907 616.089 494.863C622.423 502.258 638.556 512.024 652.422 491.926Z" fill="#6EFFFF"/>
<path d="M552.272 681.361C557.252 672.518 561.549 653.355 538.898 647.453C533.664 655.663 529.011 673.939 552.272 681.361Z" fill="#6EFFFF"/>
<path d="M454.358 684.319C447.077 674.216 428.619 659.383 413.039 680.873C419.547 690.917 436.921 705.666 454.358 684.319Z" fill="#6EFFFF"/>
<path d="M382.047 623.009C372.492 617.112 351.484 611.523 343.89 636.347C352.732 642.498 372.742 648.442 382.047 623.009Z" fill="#6EFFFF"/>
<path d="M426.738 597.716C421.432 585.992 405.462 567.209 384.035 585.868C388.541 597.374 403.39 615.853 426.738 597.716Z" fill="#6EFFFF"/>
<path d="M618.907 559.802C628.926 551.667 642.91 530.864 618.704 512.732C608.677 519.986 594.68 539.555 618.907 559.802Z" fill="#6EFFFF"/>
<path d="M492.681 334.408C492.142 321.486 483.404 297.641 452.767 305.633C452.556 318.02 460.243 341.116 492.681 334.408Z" fill="#6EFFFF"/>
<path d="M422.338 355.543C419.775 341.945 406.904 318.059 375.923 331.296C377.614 344.445 389.265 367.702 422.338 355.543Z" fill="#6EFFFF"/>
<path d="M446.681 486.077C459.077 483.672 480.847 471.661 468.754 442.86C456.767 444.453 435.57 455.328 446.681 486.077Z" fill="#6EFFFF"/>
<path d="M592.031 658.548C590.366 646.03 579.67 623.585 550.201 633.946C551.08 646.007 560.676 667.813 592.031 658.548Z" fill="#6EFFFF"/>
<path d="M291.92 623.07C296.168 610.066 296.752 583.572 265.11 581.627C260.356 593.858 259.062 619.27 291.92 623.07Z" fill="#6EFFFF"/>
<path d="M514.63 628.785C517.786 614.42 515.35 585.848 480.353 586.481C476.55 600.058 478.081 627.526 514.63 628.785Z" fill="#6EFFFF"/>
<path d="M567.592 495.363C581.426 500.357 610.073 501.647 613.985 466.864C601.017 461.332 573.583 459.287 567.592 495.363Z" fill="#6EFFFF"/>
<path d="M600.627 537.469C596.202 521.777 578.726 495.103 544.228 513.936C547.595 529.193 563.589 555.259 600.627 537.469Z" fill="#6EFFFF"/>
<path d="M571.295 622.131C575.876 608.888 577.345 582.109 546.573 580.938C541.524 593.413 539.401 619.116 571.295 622.131Z" fill="#6EFFFF"/>
<path d="M526.682 406.855C512.817 401.289 483.072 399.627 475.01 437.505C487.91 443.65 516.304 446.123 526.682 406.855Z" fill="#6EFFFF"/>
<path d="M308.657 648.571C321.822 647.52 345.729 637.927 336.043 607.964C323.388 608.252 300.192 616.777 308.657 648.571Z" fill="#6EFFFF"/>
<path d="M621.731 317.868C609.655 310.67 583.142 304.159 573.7 335.693C584.879 343.229 610.135 350.215 621.731 317.868Z" fill="#6EFFFF"/>
<path d="M588.827 284.838C592.835 270.147 592.045 240.671 556.816 240.291C552.204 254.151 552.149 282.464 588.827 284.838Z" fill="#6EFFFF"/>
<path d="M353.093 583.518C347.531 569.343 329.287 546.177 300.809 566.919C305.391 580.789 322.262 603.527 353.093 583.518Z" fill="#6EFFFF"/>
<path d="M670.025 311.083C662.968 303.994 644.422 295.327 626.695 317.372C632.94 324.583 650.35 333.42 670.025 311.083Z" fill="#6EFFFF"/>
<path d="M390.015 359.67C382.913 367 374.058 385.066 395.451 398.693C402.659 392.094 411.662 375.05 390.015 359.67Z" fill="#6EFFFF"/>
<path d="M374.378 366.629C364.175 366.843 345.173 373.454 350.792 398.188C360.557 398.568 378.945 392.788 374.378 366.629Z" fill="#6EFFFF"/>
<path d="M528.088 270.303C523.987 261.542 510.22 247.597 487.956 261.91C491.304 270.518 504.018 284.248 528.088 270.303Z" fill="#6EFFFF"/>
<path d="M345.611 391.899C336.543 388.692 317.547 388.238 314.117 412.079C322.598 415.668 340.77 416.655 345.611 391.899Z" fill="#6EFFFF"/>
<path d="M443.337 311.902C448.583 304.915 453.801 287.9 432.714 275.738C427.266 282.049 421.764 298.116 443.337 311.902Z" fill="#6EFFFF"/>
<path d="M211.16 642.874C210.88 642.874 210.661 642.654 210.661 642.375V607.833C210.661 607.653 210.76 607.494 210.9 607.394L253.045 583.069C253.284 582.929 253.584 583.009 253.723 583.248C253.863 583.488 253.783 583.787 253.544 583.927L211.658 608.112V642.375C211.658 642.654 211.439 642.874 211.16 642.874Z" fill="#9FFFFA"/>
<path d="M205.195 647.38L209.316 645V647.003L205.195 649.383V647.38Z" fill="white"/>
<path d="M167.725 669.002L174.343 665.171V667.174L167.725 671.005V669.002Z" fill="white"/>
<path d="M181.164 666.68L188.565 662.414V664.417L181.164 668.683V666.68Z" fill="white"/>
<path d="M157.945 680.089L171.18 672.456V674.459L157.945 682.092V680.089Z" fill="white"/>
<path d="M205.195 669.148L209.316 666.768V668.77L205.195 671.15V669.148Z" fill="white"/>
<path d="M202.494 672.718L196.428 676.2V674.198L202.494 670.715V672.718Z" fill="white"/>
<path d="M193.732 677.768L177.043 687.404V685.402L193.732 675.766V677.768Z" fill="white"/>
<path d="M154.317 698.519L165.056 692.337V694.34L154.317 700.522V698.519Z" fill="white"/>
<path d="M191.264 682.644L197.33 679.132V681.135L191.264 684.647V682.644Z" fill="white"/>
<path d="M178.466 692.019L173.88 694.689V692.687L178.466 690.017V692.019Z" fill="white"/>
<path d="M171.18 696.227L157.945 703.89V701.887L171.18 694.225V696.227Z" fill="white"/>
<path d="M202.496 683.601L196.43 687.113V685.082L202.496 681.599V683.601Z" fill="white"/>
<path d="M167.727 701.655L184.764 691.845V693.847L167.727 703.657V701.655Z" fill="white"/>
<path d="M154.317 709.404L165.056 703.222V705.224L154.317 711.406V709.404Z" fill="white"/>
<path d="M191.264 693.529L197.33 690.017V692.019L191.264 695.531V693.529Z" fill="white"/>
<path d="M202.496 716.254L196.43 719.766V717.763L202.496 714.251V716.254Z" fill="white"/>
<path d="M178.464 735.555L173.878 738.225V736.223L178.464 733.553V735.555Z" fill="white"/>
<path d="M200.029 677.564L209.316 672.194V674.197L200.029 679.595V677.564Z" fill="white"/>
<path d="M191.264 704.412L197.33 700.9V702.903L191.264 706.415V704.412Z" fill="white"/>
<path d="M202.496 650.95L196.43 654.433V652.43L202.496 648.947V650.95Z" fill="white"/>
<path d="M200.029 655.797L209.316 650.428V652.43L200.029 657.8V655.797Z" fill="white"/>
<path d="M178.464 670.25L173.878 672.891V670.888L178.464 668.247V670.25Z" fill="white"/>
<path d="M181.164 699.361L188.565 695.065V697.068L181.164 701.364V699.361Z" fill="white"/>
<path d="M173.878 705.573V703.571L178.464 700.9V702.903L173.878 705.573Z" fill="white"/>
<path d="M202.494 694.486L196.428 697.998V695.995L202.494 692.483V694.486Z" fill="white"/>
<path d="M200.029 699.362L209.316 693.964V695.996L200.029 701.365V699.362Z" fill="white"/>
<path d="M173.88 714.455L182.704 709.347V711.349L173.88 716.458V714.455Z" fill="white"/>
<path d="M200.029 721.13L209.316 715.731V717.763L200.029 723.133V721.13Z" fill="white"/>
<path d="M191.264 726.18L197.33 722.668V724.671L191.264 728.183V726.18Z" fill="white"/>
<path d="M181.164 732.013L188.565 727.718V729.72L181.164 734.016V732.013Z" fill="white"/>
<path d="M181.164 688.478L188.565 684.183V686.185L181.164 690.481V688.478Z" fill="white"/>
<path d="M205.195 680.032L209.316 677.652V679.655L205.195 682.035V680.032Z" fill="white"/>
<path d="M205.195 712.684L209.316 710.304V712.306L205.195 714.686V712.684Z" fill="white"/>
<path d="M193.732 656L177.043 665.636V663.633L193.732 653.997V656Z" fill="white"/>
<path d="M191.264 660.847L197.33 657.365V659.367L191.264 662.85V660.847Z" fill="white"/>
<path d="M200.029 688.478L209.316 683.079V685.082L200.029 690.48V688.478Z" fill="white"/>
<path d="M193.732 721.303L177.043 730.939V728.937L193.732 719.301V721.303Z" fill="white"/>
<path d="M165.056 672.544L154.317 678.755V676.752L165.056 670.541V672.544Z" fill="white"/>
<path d="M167.727 690.77L174.345 686.968V688.97L167.727 692.773V690.77Z" fill="white"/>
<path d="M193.73 688.651L187.46 692.279V690.276L193.73 686.648V688.651Z" fill="white"/>
<path d="M157.945 712.771L171.18 705.108V707.111L157.945 714.773V712.771Z" fill="white"/>
<path d="M205.195 690.916L209.316 688.536V690.539L205.195 692.919V690.916Z" fill="white"/>
<path d="M193.731 699.536L176.723 709.375L167.725 714.541V712.539L176.723 707.372L193.731 697.533V699.536Z" fill="white"/>
<path d="M185.401 707.808L188.564 705.95V707.953L185.401 709.81V707.808Z" fill="white"/>
<path d="M705.948 363C706.227 363 706.447 362.78 706.447 362.5V327.885C706.447 327.705 706.347 327.545 706.207 327.445L664.064 303.069C663.825 302.929 663.525 303.009 663.385 303.249C663.246 303.489 663.326 303.789 663.565 303.929L705.449 328.165V362.5C705.449 362.78 705.669 363 705.948 363Z" fill="#9FFFFA"/>
<path d="M716.177 362.723L712.006 365.137V366.514L716.177 364.1V362.723Z" fill="white"/>
<path d="M735.892 351.328L731.362 353.962V355.339L735.892 352.705V351.328Z" fill="white"/>
<path d="M713.702 367.891L707.317 371.582V372.959L713.702 369.267V367.891Z" fill="white"/>
<path d="M715.558 368.21L719.729 365.796V364.419L715.558 366.814V368.21Z" fill="white"/>
<path d="M721.583 364.717L726.672 361.784V360.407L721.583 363.341V364.717Z" fill="white"/>
<path d="M733.538 357.813L742.637 352.565V351.188L733.538 356.436V357.813Z" fill="white"/>
<path d="M710.15 373.678L707.317 375.334V376.711L710.15 375.055V373.678Z" fill="white"/>
<path d="M712.006 373.997L716.177 371.582V370.205L712.006 372.62V373.997Z" fill="white"/>
<path d="M718.033 370.525L722.343 368.031V366.634L718.033 369.148V370.525Z" fill="white"/>
<path d="M737.749 359.131L745.132 354.86V353.483L737.749 357.754V359.131Z" fill="white"/>
<path d="M719.728 371.902L715.558 374.316V375.693L719.728 373.279V371.902Z" fill="white"/>
<path d="M731.681 364.997L728.528 366.813V368.19L731.681 366.374V364.997Z" fill="white"/>
<path d="M733.538 365.297L742.637 360.049V358.672L733.538 363.92V365.297Z" fill="white"/>
<path d="M744.493 358.971L748.105 356.896V355.519L744.493 357.594V358.971Z" fill="white"/>
<path d="M710.15 381.161L707.317 382.817V384.194L710.15 382.538V381.161Z" fill="white"/>
<path d="M712.006 381.48L716.177 379.065V377.688L712.006 380.103V381.48Z" fill="white"/>
<path d="M718.033 378.008L729.726 371.244L735.892 367.692V366.295L730.385 369.488L718.033 376.632V378.008Z" fill="white"/>
<path d="M713.702 382.856L707.317 386.548V387.925L713.702 384.233V382.856Z" fill="white"/>
<path d="M723.759 377.05L721.583 378.307V379.684L723.759 378.427V377.05Z" fill="white"/>
<path d="M731.682 372.48L725.616 375.993V377.369L731.682 373.857V372.48Z" fill="white"/>
<path d="M733.538 372.799L742.637 367.531V366.154L733.538 371.402V372.799Z" fill="white"/>
<path d="M744.493 366.454L748.105 364.379V363.002L744.493 365.077V366.454Z" fill="white"/>
<path d="M710.15 396.127L707.317 397.763V399.14L710.15 397.504V396.127Z" fill="white"/>
<path d="M735.892 381.261L731.362 383.895V385.272L735.892 382.638V381.261Z" fill="white"/>
<path d="M726.672 390.34L721.584 393.273V394.65L726.672 391.717V390.34Z" fill="white"/>
<path d="M742.637 381.101L733.538 386.369V387.746L742.637 382.498V381.101Z" fill="white"/>
<path d="M744.493 381.42L748.105 379.325V377.948L744.493 380.043V381.42Z" fill="white"/>
<path d="M710.15 411.094L707.317 412.75V414.127L710.15 412.471V411.094Z" fill="white"/>
<path d="M712.006 411.412L716.177 408.998V407.621L712.006 410.036V411.412Z" fill="white"/>
<path d="M718.033 407.921L729.507 401.296V399.919L718.033 406.544V407.921Z" fill="white"/>
<path d="M745.132 390.898L737.749 395.169V396.546L745.132 392.275V390.898Z" fill="white"/>
<path d="M719.728 409.317L715.558 411.712V413.089L719.728 410.694V409.317Z" fill="white"/>
<path d="M728.528 405.606L731.681 403.79V402.413L728.528 404.229V405.606Z" fill="white"/>
<path d="M733.538 402.712L742.637 397.464V396.087L733.538 401.335V402.712Z" fill="white"/>
<path d="M712.006 418.896L716.177 416.481V415.104L712.006 417.519V418.896Z" fill="white"/>
<path d="M735.892 403.71L724.199 410.475V411.852L735.892 405.087V403.71Z" fill="white"/>
<path d="M745.132 398.382L737.749 402.652V404.029L745.132 399.759V398.382Z" fill="white"/>
<path d="M719.729 416.8L715.558 419.194V420.591L719.729 418.177V416.8Z" fill="white"/>
<path d="M748.105 400.417L744.493 402.492V403.869L748.105 401.794V400.417Z" fill="white"/>
<path d="M744.493 411.353L748.105 409.277V407.9L744.493 409.976V411.353Z" fill="white"/>
<path d="M712.006 441.345L716.177 438.93V437.553L712.006 439.968V441.345Z" fill="white"/>
<path d="M735.892 426.159L731.362 428.793V430.17L735.892 427.536V426.159Z" fill="white"/>
<path d="M728.528 435.539L731.681 433.723V432.346L728.528 434.162V435.539Z" fill="white"/>
<path d="M733.538 432.644L742.637 427.396V426.019L733.538 431.268V432.644Z" fill="white"/>
<path d="M744.493 426.319L748.105 424.244V422.867L744.493 424.943V426.319Z" fill="white"/>
<path d="M710.15 366.194L707.317 367.851V369.228L710.15 367.571V366.194Z" fill="white"/>
<path d="M744.493 351.487L748.105 349.412V348.035L744.493 350.11V351.487Z" fill="white"/>
<path d="M724.198 366.953L735.891 360.188V358.812L724.198 365.576V366.953Z" fill="white"/>
<path d="M713.702 375.374L707.317 379.066V380.442L713.702 376.751V375.374Z" fill="white"/>
<path d="M713.702 412.789L707.317 416.481V417.858L713.702 414.166V412.789Z" fill="white"/>
<path d="M719.728 424.283L715.558 426.678V428.075L719.728 425.66V424.283Z" fill="white"/>
<path d="M745.132 346L737.749 350.27V351.647L745.132 347.377V346Z" fill="white"/>
<path d="M721.584 370.824V372.201L726.672 369.267V367.891L721.584 370.824Z" fill="white"/>
<path d="M712.006 396.427L716.177 394.032V392.655L712.006 395.05V396.427Z" fill="white"/>
<path d="M713.702 397.823L707.317 401.515V402.892L713.702 399.2V397.823Z" fill="white"/>
<path d="M728.528 390.639L731.681 388.823V387.446L728.528 389.262V390.639Z" fill="white"/>
<path d="M726.672 412.789L721.583 415.722V417.099L726.672 414.166V412.789Z" fill="white"/>
<path d="M731.681 411.272V409.896L728.528 411.711V413.088L731.681 411.272Z" fill="white"/>
<path d="M712.006 426.378L716.177 423.964V422.587L712.006 425.001V426.378Z" fill="white"/>
<path d="M745.132 405.865L737.749 410.136V411.512L745.132 407.242V405.865Z" fill="white"/>
<path d="M713.702 427.756L707.317 431.447V432.824L713.702 429.132V427.756Z" fill="white"/>
<path d="M731.682 417.379L725.616 420.871V422.268L731.682 418.756V417.379Z" fill="white"/>
<path d="M713.702 442.722L707.317 446.413V447.79L713.702 444.099V442.722Z" fill="white"/>
<path d="M719.729 439.25L715.558 441.665V443.041L719.729 440.627V439.25Z" fill="white"/>
<path d="M726.672 435.238L721.583 438.172V439.549L726.672 436.615V435.238Z" fill="white"/>
<path d="M729.507 355.02L718.033 361.645V363.041L729.507 356.416V355.02Z" fill="white"/>
<path d="M728.528 359.33V360.706L731.681 358.891V357.514L728.528 359.33Z" fill="white"/>
<path d="M737.749 366.614L745.132 362.364V360.967L737.749 365.237V366.614Z" fill="white"/>
<path d="M719.728 379.385L715.558 381.799V383.176L719.728 380.762V379.385Z" fill="white"/>
<path d="M726.672 405.307L721.583 408.24V409.617L726.672 406.684V405.307Z" fill="white"/>
<path d="M748.105 392.914L744.493 395.009V396.386L748.105 394.311V392.914Z" fill="white"/>
<path d="M710.15 418.576L707.317 420.233V421.609L710.15 419.953V418.576Z" fill="white"/>
<path d="M710.15 441.025L707.317 442.682V444.059L710.15 442.402V441.025Z" fill="white"/>
<path d="M718.033 392.954L729.507 386.329V384.952L718.033 391.577V392.954Z" fill="white"/>
<path d="M719.728 394.331L715.558 396.745V398.122L719.728 395.728V394.331Z" fill="white"/>
<path d="M713.702 420.272L707.317 423.964V425.341L713.702 421.649V420.272Z" fill="white"/>
<path d="M733.538 417.679L742.637 412.431V411.054L733.538 416.302V417.679Z" fill="white"/>
<path d="M718.033 437.873L729.507 431.248V429.871L718.033 436.496V437.873Z" fill="white"/>
<path d="M737.749 381.56L745.132 377.31V375.933L737.749 380.183V381.56Z" fill="white"/>
<path d="M735.892 396.227L731.362 398.861V400.238L735.892 397.603V396.227Z" fill="white"/>
<path d="M718.033 415.423L722.343 412.909V411.532L718.033 414.026V415.423Z" fill="white"/>
<path d="M742.637 403.57L733.538 408.818V410.195L742.637 404.947V403.57Z" fill="white"/>
<path d="M710.15 426.059L707.317 427.716V429.093L710.15 427.436V426.059Z" fill="white"/>
<path d="M718.033 422.907L729.726 416.142L735.892 412.57V411.193L729.726 414.765L718.033 421.53V422.907Z" fill="white"/>
<path d="M723.759 421.949L721.583 423.206V424.583L723.759 423.326V421.949Z" fill="white"/>
<path d="M737.749 426.478L745.132 422.208V420.831L737.749 425.101V426.478Z" fill="white"/>
<path d="M178.893 483.869L177.317 484.787V481.894L178.893 480.976V483.869ZM182.705 477.663L181.128 478.581V483.69L182.705 482.772V477.663ZM186.516 476.087L184.94 477.005V480.876L186.516 479.958V476.087ZM190.328 474.95L188.751 475.867V477.604L190.328 476.686V474.95ZM194.139 469.043L192.562 469.961V479.1L194.139 478.182V469.043ZM197.95 468.324L196.374 469.242V475.428L197.95 474.511V468.324ZM201.762 466.648L200.185 467.566V472.675L201.762 471.757V466.648ZM205.573 458.467L203.997 459.385V476.466L205.573 475.548V458.467ZM209.385 457.788L207.808 458.706V472.754L209.385 471.837V457.788ZM213.196 458.746L211.619 459.664V467.387L213.196 466.469V458.746ZM217.007 457.848L215.431 458.766V463.875L217.007 462.957V457.848ZM220.819 452.021L219.242 452.939V465.291L220.819 464.373V452.021ZM224.63 451.423L223.054 452.341V461.48L224.63 460.562V451.423ZM228.442 450.704L226.865 451.622V457.808L228.442 456.89V450.704ZM232.253 450.146L230.676 451.063V453.957L232.253 453.039V450.146ZM236.064 447.132L234.488 448.05V452.56L236.064 451.642V447.132ZM239.876 439.49L238.299 440.407V455.793L239.876 454.875V439.49ZM243.687 440.966L242.111 441.884V449.926L243.687 449.008V440.966ZM247.499 434.641L245.922 435.558V451.842L247.499 450.924V434.641ZM251.31 431.727L249.733 432.645V450.345L251.31 449.427V431.727ZM255.121 428.794L253.545 429.712V448.888L255.121 447.97V428.794ZM258.933 433.643L257.356 434.561V439.649L258.933 438.731V433.643ZM262.744 433.184L261.168 434.102V435.718L262.744 434.8V433.184ZM266.556 430.011L264.979 430.929V434.461L266.556 433.543V430.011ZM270.367 426L268.79 426.918V434.062L270.367 433.144V426ZM274.178 426.798L272.602 427.716V428.874L274.178 427.956V426.798Z" fill="white"/>
<path opacity="0.95" d="M631.602 710.918L633.178 710V712.714L631.602 713.632V710.918ZM627.79 716.745L629.367 715.827V711.277L627.79 712.195V716.745ZM623.979 720.217L625.556 719.299V712.215L623.979 713.133V720.217ZM620.168 724.068L621.744 723.15V712.754L620.168 713.672V724.068ZM616.356 725.086L617.933 724.168V716.126L616.356 717.044V725.086ZM612.545 725.186L614.121 724.268V720.456L612.545 721.374V725.186ZM608.733 729.716L610.31 728.798V720.297L608.733 721.215V729.716ZM604.922 734.604L606.499 733.687V719.818L604.922 720.736V734.604ZM601.111 734.644L602.687 733.726V724.188L601.111 725.106V734.644ZM597.299 734.844L598.876 733.926V728.379L597.299 729.296V734.844ZM593.488 737.697L595.064 736.78V729.935L593.488 730.853V737.697ZM589.676 740.711L591.253 739.793V731.292L589.676 732.21V740.711ZM585.865 743.425L587.442 742.507V732.968L585.865 733.886V743.425ZM582.054 748.274L583.63 747.356V732.529L582.054 733.447V748.274ZM578.242 752.165L579.819 751.247V733.048L578.242 733.966V752.165ZM574.431 752.664L576.007 751.746V736.919L574.431 737.837V752.664ZM570.619 748.753L572.196 747.835V745.221L570.619 746.138V748.753ZM566.808 752.125L568.385 751.207V746.258L566.808 747.176V752.125ZM562.997 755.757L564.573 754.839V747.036L562.997 747.954V755.757ZM559.185 756.834L560.762 755.916V750.369L559.185 751.287V756.834ZM555.374 758.331L556.95 757.413V753.242L555.374 754.16V758.331ZM551.563 762.342L553.139 761.424V753.622L551.563 754.539V762.342ZM547.751 762.242L549.328 761.324V758.111L547.751 759.029V762.242ZM543.94 764.916L545.516 763.998V759.828L543.94 760.745V764.916ZM540.128 765.994L541.705 765.076V763.16L540.128 764.078V765.994ZM536.317 767.71L537.893 766.792V765.834L536.317 766.752V767.71Z" fill="white"/>
<path d="M584.392 706.188C587.505 704.392 590.039 700.401 590.039 697.268C590.039 694.135 587.505 693.078 584.392 694.874C581.279 696.67 578.745 700.661 578.745 703.794C578.745 706.927 581.279 707.984 584.392 706.188Z" fill="white"/>
<path d="M584.392 708.503C578.286 712.035 573.317 719.019 573.317 724.107L595.467 711.316C595.467 706.228 590.518 704.971 584.392 708.503Z" fill="white"/>
<path d="M354.089 163.873L341.437 170.31L328.785 163.873L341.437 157.437L354.089 163.873Z" fill="#008A8A"/>
<path d="M328.785 163.873V177.041L341.437 183.478V170.31L328.785 163.873Z" fill="#007C7C"/>
<path d="M354.046 163.873V177.041L341.399 183.478V170.31L354.046 163.873Z" fill="#6EFFFF"/>
<path d="M363.296 227.399L350.644 233.836L337.997 227.399L350.644 220.967L363.296 227.399Z" fill="#008A8A"/>
<path d="M337.997 227.398V240.571L350.644 247.008V233.835L337.997 227.398Z" fill="#007C7C"/>
<path d="M363.258 227.398V240.571L350.606 247.008V233.835L363.258 227.398Z" fill="#6EFFFF"/>
<path d="M268.246 217.523L255.599 223.96L242.947 217.523L255.599 211.091L268.246 217.523Z" fill="#008A8A"/>
<path d="M242.947 217.523V230.696L255.599 237.128V223.96L242.947 217.523Z" fill="#007C7C"/>
<path d="M268.208 217.523V230.696L255.556 237.128V223.96L268.208 217.523Z" fill="#6EFFFF"/>
<path d="M285.768 240.645H274.335V251.649H285.768V240.645Z" fill="#6EFFFF"/>
<path d="M340.824 135H329.392V146.004H340.824V135Z" fill="#6EFFFF"/>
<path d="M373.748 148.495H362.316V159.499H373.748V148.495Z" fill="#6EFFFF"/>
<path d="M389.915 229.646H378.483V240.651H389.915V229.646Z" fill="#6EFFFF"/>
<path d="M237.228 240.645H225.795V251.649H237.228V240.645Z" fill="#6EFFFF"/>
<path d="M234.749 193.616H223.317V204.62H234.749V193.616Z" fill="#6EFFFF"/>
<path d="M325.154 189.772L303.815 200.629L282.477 189.772L303.815 178.92L325.154 189.772Z" fill="#7EC4AE"/>
<path d="M282.477 189.773V211.988L303.815 222.845V200.629L282.477 189.773Z" fill="#007C7C"/>
<path d="M325.087 189.773V211.988L303.749 222.845V200.629L325.087 189.773Z" fill="#6EFFFF"/>
<path d="M733.436 642.424L701.192 624.503V588.665L733.436 570.745L765.68 588.665V624.503L733.436 642.424ZM702.339 623.867L733.436 641.148L764.533 623.867V589.305L733.436 572.024L702.339 589.305V623.867Z" fill="#6EFFFF"/>
<path d="M766.083 624.971L763.358 623.786L763.659 623.143L763.653 623.134L763.669 623.124L763.831 622.781L764.087 622.894L764.648 622.582L766.083 624.974V624.971ZM700.792 624.971L702.83 621.571L703.825 622.123L702.989 623.521L703.183 623.932L700.795 624.971H700.792ZM704.227 623.477L703.753 622.469L705.844 621.559L706.317 622.566L704.227 623.477ZM762.314 623.33L760.224 622.419L760.697 621.412L762.788 622.323L762.314 623.33ZM763.082 622.173L761.935 620.261L762.93 619.709L764.077 621.621L763.082 622.173ZM707.363 622.111L706.89 621.103L708.981 620.192L709.454 621.2L707.363 622.111ZM759.178 621.964L757.087 621.053L757.56 620.046L759.651 620.957L759.178 621.964ZM704.402 621.166L703.407 620.613L704.554 618.701L705.549 619.253L704.402 621.166ZM710.504 620.744L710.03 619.737L712.121 618.826L712.594 619.834L710.504 620.744ZM756.041 620.598L753.95 619.687L754.424 618.679L756.514 619.59L756.041 620.598ZM713.641 619.378L713.167 618.371L715.258 617.46L715.731 618.467L713.641 619.378ZM761.362 619.3L760.215 617.388L761.209 616.836L762.357 618.748L761.362 619.3ZM752.904 619.232L750.814 618.321L751.287 617.313L753.377 618.224L752.904 619.232ZM706.122 618.293L705.127 617.741L706.275 615.828L707.269 616.381L706.122 618.293ZM716.777 618.012L716.304 617.004L718.394 616.094L718.868 617.101L716.777 618.012ZM749.767 617.865L747.677 616.954L748.15 615.947L750.24 616.858L749.767 617.865ZM719.914 616.646L719.441 615.638L721.531 614.727L722.005 615.735L719.914 616.646ZM746.63 616.499L744.54 615.588L745.013 614.581L747.103 615.492L746.63 616.499ZM759.641 616.427L758.494 614.515L759.489 613.963L760.636 615.875L759.641 616.427ZM707.843 615.42L706.848 614.868L707.995 612.956L708.99 613.508L707.843 615.42ZM723.051 615.276L722.578 614.269L724.668 613.358L725.141 614.365L723.051 615.276ZM743.493 615.13L741.403 614.219L741.876 613.211L743.966 614.122L743.493 615.13ZM726.188 613.91L725.715 612.903L727.805 611.992L728.278 612.999L726.188 613.91ZM740.356 613.763L738.266 612.853L738.739 611.845L740.829 612.756L740.356 613.763ZM757.92 613.554L756.773 611.642L757.768 611.09L758.915 613.002L757.92 613.554ZM709.567 612.547L708.572 611.995L709.719 610.083L710.714 610.635L709.567 612.547ZM729.328 612.547L728.855 611.539L730.945 610.629L731.418 611.636L729.328 612.547ZM737.222 612.4L735.132 611.489L735.605 610.482L737.696 611.393L737.222 612.4ZM732.465 611.181L731.992 610.173L733.444 609.543L734.559 610.027L734.086 611.034L733.444 610.756L732.465 611.181ZM756.199 610.685L755.052 608.773L756.047 608.22L757.194 610.133L756.199 610.685ZM711.288 609.677L710.293 609.125L711.44 607.213L712.435 607.765L711.288 609.677ZM754.479 607.815L753.331 605.903L754.326 605.351L755.474 607.263L754.479 607.815ZM713.012 606.807L712.017 606.255L713.164 604.343L714.159 604.895L713.012 606.807ZM752.758 604.945L751.611 603.033L752.606 602.481L753.753 604.393L752.758 604.945ZM714.733 603.938L713.738 603.386L714.885 601.473L715.88 602.025L714.733 603.938ZM751.037 602.075L749.89 600.163L750.885 599.611L752.032 601.523L751.037 602.075ZM716.453 601.068L715.458 600.516L716.606 598.604L717.601 599.156L716.453 601.068ZM749.313 599.206L748.166 597.294L749.161 596.741L750.308 598.654L749.313 599.206ZM718.174 598.198L717.179 597.646L718.326 595.734L719.321 596.286L718.174 598.198ZM747.592 596.336L746.445 594.424L747.44 593.872L748.587 595.784L747.592 596.336ZM719.895 595.328L718.9 594.776L720.047 592.864L721.042 593.416L719.895 595.328ZM745.872 593.466L744.724 591.554L745.719 591.002L746.866 592.914L745.872 593.466ZM721.619 592.459L720.624 591.906L721.771 589.994L722.766 590.546L721.619 592.459ZM744.151 590.596L743.004 588.684L743.999 588.132L745.146 590.044L744.151 590.596ZM723.34 589.589L722.345 589.037L723.492 587.125L724.487 587.677L723.34 589.589ZM742.43 587.727L741.283 585.814L742.278 585.262L743.425 587.175L742.43 587.727ZM725.06 586.719L724.066 586.167L725.213 584.255L726.208 584.807L725.06 586.719ZM740.706 584.857L739.559 582.945L740.554 582.393L741.701 584.305L740.706 584.857ZM726.781 583.849L725.786 583.297L726.933 581.385L727.928 581.937L726.781 583.849ZM738.985 581.987L737.838 580.075L738.833 579.523L739.98 581.435L738.985 581.987ZM728.502 580.98L727.507 580.427L728.654 578.515L729.649 579.067L728.502 580.98ZM737.261 579.117L736.114 577.205L737.109 576.653L738.256 578.565L737.261 579.117ZM730.223 578.11L729.228 577.558L730.375 575.646L731.37 576.198L730.223 578.11ZM735.541 576.248L734.393 574.335L735.388 573.783L736.535 575.695L735.541 576.248ZM731.943 575.24L730.949 574.688L732.096 572.776L733.091 573.328L731.943 575.24ZM733.82 573.378L732.99 571.996L732.673 571.818L733.441 570.536L734.815 572.826L733.82 573.378Z" fill="#6EFFFF"/>
<path d="M733.437 642.891L732.669 641.609L732.986 641.431L733.816 640.049L734.811 640.601L733.437 642.891ZM732.095 640.651L730.948 638.739L731.943 638.187L733.09 640.099L732.095 640.651ZM735.384 639.644L734.389 639.092L735.537 637.18L736.531 637.732L735.384 639.644ZM730.374 637.782L729.227 635.869L730.222 635.317L731.369 637.229L730.374 637.782ZM737.105 636.774L736.11 636.222L737.257 634.31L738.252 634.862L737.105 636.774ZM728.65 634.912L727.503 633L728.498 632.448L729.645 634.36L728.65 634.912ZM738.826 633.904L737.831 633.352L738.978 631.44L739.973 631.992L738.826 633.904ZM726.93 632.042L725.782 630.13L726.777 629.578L727.924 631.49L726.93 632.042ZM740.547 631.035L739.552 630.482L740.699 628.57L741.694 629.122L740.547 631.035ZM725.209 629.172L724.062 627.26L725.056 626.708L726.204 628.62L725.209 629.172ZM742.271 628.165L741.276 627.613L742.423 625.701L743.418 626.253L742.271 628.165ZM723.488 626.303L722.341 624.39L723.336 623.838L724.483 625.75L723.488 626.303ZM743.991 625.295L742.996 624.743L744.144 622.831L745.139 623.383L743.991 625.295ZM721.767 623.433L720.62 621.521L721.615 620.969L722.762 622.881L721.767 623.433ZM745.712 622.425L744.717 621.873L745.864 619.961L746.859 620.513L745.712 622.425ZM720.043 620.563L718.896 618.651L719.891 618.099L721.038 620.011L720.043 620.563ZM747.433 619.556L746.438 619.003L747.585 617.091L748.58 617.643L747.433 619.556ZM718.322 617.693L717.175 615.781L718.17 615.229L719.317 617.141L718.322 617.693ZM749.154 616.686L748.159 616.134L749.306 614.222L750.301 614.774L749.154 616.686ZM716.602 614.824L715.455 612.911L716.449 612.359L717.597 614.271L716.602 614.824ZM750.878 613.816L749.883 613.264L751.03 611.352L752.025 611.904L750.878 613.816ZM714.881 611.954L713.734 610.042L714.729 609.49L715.876 611.402L714.881 611.954ZM752.598 610.946L751.604 610.394L752.751 608.482L753.746 609.034L752.598 610.946ZM713.16 609.084L712.013 607.172L713.008 606.62L714.155 608.532L713.16 609.084ZM754.319 608.076L753.324 607.524L754.471 605.612L755.466 606.164L754.319 608.076ZM711.436 606.214L710.289 604.302L711.284 603.75L712.431 605.662L711.436 606.214ZM756.04 605.207L755.045 604.655L756.192 602.742L757.187 603.295L756.04 605.207ZM733.437 603.884L731.985 603.254L732.458 602.246L733.437 602.671L734.078 602.393L734.551 603.401L733.437 603.884ZM709.715 603.344L708.568 601.432L709.563 600.88L710.71 602.792L709.715 603.344ZM735.595 602.945L735.122 601.938L737.212 601.027L737.685 602.034L735.595 602.945ZM730.938 602.799L728.848 601.888L729.321 600.88L731.411 601.791L730.938 602.799ZM757.761 602.337L756.766 601.785L757.913 599.873L758.908 600.425L757.761 602.337ZM738.732 601.579L738.259 600.571L740.349 599.661L740.822 600.668L738.732 601.579ZM727.801 601.432L725.711 600.522L726.184 599.514L728.274 600.425L727.801 601.432ZM707.991 600.475L706.844 598.563L707.839 598.01L708.986 599.923L707.991 600.475ZM741.869 600.213L741.396 599.205L743.486 598.294L743.959 599.302L741.869 600.213ZM724.664 600.066L722.574 599.155L723.047 598.148L725.137 599.059L724.664 600.066ZM759.481 599.467L758.487 598.915L759.634 597.003L760.629 597.555L759.481 599.467ZM745.006 598.846L744.533 597.839L746.623 596.928L747.096 597.936L745.006 598.846ZM721.527 598.7L719.437 597.789L719.91 596.781L722.001 597.692L721.527 598.7ZM706.271 597.602L705.123 595.69L706.118 595.138L707.266 597.05L706.271 597.602ZM748.143 597.48L747.669 596.473L749.76 595.562L750.233 596.569L748.143 597.48ZM718.391 597.334L716.3 596.423L716.773 595.415L718.864 596.326L718.391 597.334ZM761.202 596.594L760.207 596.042L761.355 594.13L762.349 594.682L761.202 596.594ZM751.279 596.114L750.806 595.106L752.897 594.196L753.37 595.203L751.279 596.114ZM715.254 595.967L713.163 595.057L713.637 594.049L715.727 594.96L715.254 595.967ZM754.416 594.748L753.943 593.74L756.033 592.829L756.507 593.837L754.416 594.748ZM704.55 594.729L703.403 592.817L704.398 592.265L705.545 594.177L704.55 594.729ZM712.117 594.601L710.027 593.69L710.5 592.683L712.59 593.594L712.117 594.601ZM762.926 593.721L761.931 593.169L763.079 591.257L764.073 591.809L762.926 593.721ZM757.557 593.381L757.083 592.374L759.174 591.463L759.647 592.471L757.557 593.381ZM708.98 593.235L706.89 592.324L707.363 591.316L709.453 592.227L708.98 593.235ZM760.693 592.015L760.22 591.008L762.31 590.097L762.784 591.104L760.693 592.015ZM705.843 591.869L703.753 590.958L704.226 589.95L706.316 590.861L705.843 591.869ZM702.829 591.856L700.791 588.456L703.179 589.495L702.985 589.907L703.821 591.304L702.826 591.856H702.829ZM764.647 590.849L764.086 590.537L763.83 590.649L763.668 590.306L763.652 590.296L763.659 590.287L763.357 589.645L766.083 588.459L764.647 590.852V590.849Z" fill="#6EFFFF"/>
<path d="M733.438 576.768C736.527 576.768 739.031 574.357 739.031 571.384C739.031 568.41 736.527 566 733.438 566C730.348 566 727.844 568.41 727.844 571.384C727.844 574.357 730.348 576.768 733.438 576.768Z" fill="#008A8A"/>
<g style="mix-blend-mode:multiply" opacity="0.5">
<path d="M733.438 576.768C730.349 576.768 727.844 574.357 727.844 571.384C727.844 568.411 730.349 566 733.438 566V576.771V576.768Z" fill="#008A8A"/>
</g>
<path d="M727.195 641.787C727.195 638.468 729.988 635.779 733.436 635.779C736.884 635.779 739.678 638.468 739.678 641.787C739.678 645.106 736.884 647.795 733.436 647.795C729.988 647.795 727.195 645.106 727.195 641.787Z" fill="#007C7C"/>
<g style="mix-blend-mode:multiply">
<path d="M733.437 647.796C729.989 647.796 727.196 645.107 727.196 641.788C727.196 638.469 729.989 635.78 733.437 635.78V647.796Z" fill="#007C7C"/>
</g>
<path d="M695.526 589.673C695.526 586.354 698.319 583.665 701.767 583.665C705.215 583.665 708.009 586.354 708.009 589.673C708.009 592.992 705.215 595.681 701.767 595.681C698.319 595.681 695.526 592.992 695.526 589.673Z" fill="#007C7C"/>
<path d="M758.277 589.322C758.277 585.601 761.411 582.581 765.28 582.581C769.149 582.581 772.283 585.597 772.283 589.322C772.283 593.046 769.149 596.063 765.28 596.063C761.411 596.063 758.277 593.046 758.277 589.322Z" fill="#7EC4AE"/>
<g style="mix-blend-mode:multiply" opacity="0.5">
<path d="M765.279 596.063C761.413 596.063 758.276 593.046 758.276 589.322C758.276 585.597 761.41 582.581 765.279 582.581V596.063Z" fill="#7EC4AE"/>
</g>
<path d="M745.064 613.517C749.034 607.335 747.045 599.225 740.622 595.403C734.199 591.582 725.774 593.496 721.804 599.678C717.834 605.861 719.822 613.971 726.245 617.792C732.668 621.614 741.094 619.7 745.064 613.517Z" fill="#6EFFFF"/>
<path d="M701.767 614.664C696.549 614.664 692.317 618.738 692.317 623.76C692.317 628.782 696.549 632.856 701.767 632.856C706.984 632.856 711.216 628.782 711.216 623.76C711.216 618.738 706.984 614.664 701.767 614.664ZM701.767 628.37C699.122 628.37 696.977 626.305 696.977 623.76C696.977 621.214 699.122 619.149 701.767 619.149C704.411 619.149 706.556 621.214 706.556 623.76C706.556 626.305 704.411 628.37 701.767 628.37Z" fill="#008A8A"/>
<g style="mix-blend-mode:multiply" opacity="0.5">
<path d="M701.767 629.846C698.273 629.846 695.444 627.119 695.444 623.76C695.444 620.4 698.277 617.674 701.767 617.674V614.664C696.549 614.664 692.317 618.738 692.317 623.76C692.317 628.782 696.549 632.856 701.767 632.856V629.846Z" fill="#008A8A"/>
</g>
<g style="mix-blend-mode:multiply">
<path d="M748.945 605.641C748.965 605.953 748.978 606.268 748.978 606.586C748.978 614.846 742.02 621.543 733.439 621.543C724.858 621.543 717.9 614.846 717.9 606.586C717.9 598.326 724.858 591.629 733.439 591.629V581.8C719.216 581.8 707.686 592.898 707.686 606.589C707.686 620.28 719.216 631.378 733.439 631.378C747.662 631.378 759.192 620.28 759.192 606.589C759.192 606.274 759.183 605.959 759.173 605.644H748.949L748.945 605.641Z" fill="#007C7C"/>
</g>
<g style="mix-blend-mode:multiply">
<path d="M701.767 595.68C698.319 595.68 695.526 592.991 695.526 589.672C695.526 586.353 698.319 583.664 701.767 583.664V595.68Z" fill="#007C7C"/>
</g>
<path d="M766.077 628.6C768.75 628.182 770.565 625.758 770.131 623.185C769.698 620.612 767.179 618.865 764.506 619.283C761.833 619.7 760.018 622.125 760.452 624.697C760.886 627.27 763.404 629.017 766.077 628.6Z" fill="#6EFFFF"/>
<g style="mix-blend-mode:multiply" opacity="0.5">
<path d="M765.28 628.67C762.57 628.67 760.376 626.555 760.376 623.95C760.376 621.346 762.574 619.231 765.28 619.231V628.673V628.67Z" fill="#6EFFFF"/>
</g>
</svg>
